<svg height="464pt" viewBox="-80 0 464 464.0039" width="464pt" xmlns="http://www.w3.org/2000/svg"><path d="m267.316406 68.722656c-4.574218-4.546875-11.433594-5.902344-17.394531-3.4375s-9.859375 8.269532-9.886719 14.71875h32c.023438-4.246094-1.679687-8.316406-4.71875-11.28125zm0 0" fill="#e6e7e8"/><path d="m272.035156 95.125v-15.121094h-32c0 4.71875-2.085937 9.195313-5.695312 12.234375-3.609375 3.035157-8.375 4.328125-13.023438 3.527344-7.546875-1.523437-13.03125-8.066406-13.207031-15.761719h-184.074219v68.640625c.015625 7.464844 1.738282 14.824219 5.039063 21.519531l6.242187 12.398438c3.097656 6.226562 4.820313 13.050781 5.039063 20l6.25 213.441406h210.863281l6.246094-213.441406c.222656-6.949219 1.941406-13.773438 5.042968-20l6.238282-12.398438c3.300781-6.695312 5.027344-14.054687 5.039062-21.519531v-38.800781c-4.996094-3.226562-8.011718-8.773438-8-14.71875zm-32 56.878906c0 8.835938-7.164062 16-16 16-8.835937 0-16-7.164062-16-16v-16c0-8.835937 7.164063-16 16-16 8.835938 0 16 7.164063 16 16zm0 0" fill="#ffb655"/><path d="m59.316406 182.5625-6.242187-12.398438c-3.300781-6.695312-5.023438-14.054687-5.039063-21.519531v-68.640625h-24v68.640625c.015625 7.464844 1.738282 14.824219 5.039063 21.519531l6.242187 12.398438c3.097656 6.226562 4.820313 13.050781 5.039063 20l6.25 213.441406h24l-6.25-213.441406c-.21875-6.949219-1.941407-13.773438-5.039063-20zm0 0" fill="#ee8700"/><path d="m208.109375 80.003906c0-.296875-.074219-.585937-.074219-.878906v-15.121094c-.027344-8.824218-7.171875-15.972656-16-16h-168v32zm0 0" fill="#e6e7e8"/><path d="m24.035156 48.003906h24v32h-24zm0 0" fill="#bcbec0"/><path d="m47.554688 448.484375c.261718 8.648437 7.347656 15.523437 16 15.519531h176.960937c8.652344.003906 15.742187-6.871094 16-15.519531l.953125-32.480469h-210.863281zm0 0" fill="#d1d3d4"/><path d="m71.554688 448.484375-.949219-32.480469h-24l.949219 32.480469c.261718 8.648437 7.347656 15.523437 16 15.519531h24c-8.652344.003906-15.738282-6.871094-16-15.519531zm0 0" fill="#a7a9ac"/><path d="m208.035156 64.003906v15.121094c-.191406 8.03125 5.40625 15.042969 13.28125 16.640625 4.648438.800781 9.414063-.492187 13.023438-3.527344 3.609375-3.039062 5.695312-7.515625 5.695312-12.234375 0-8.835937 7.164063-16 16-16 8.835938 0 16 7.164063 16 16v15.121094c-.011718 5.945312 3.003906 11.492188 8 14.71875 1.625.96875 3.414063 1.621094 5.28125 1.921875 4.648438.800781 9.414063-.492187 13.023438-3.527344 3.609375-3.039062 5.695312-7.515625 5.695312-12.234375v-64c0-17.671875-14.324218-31.99999975-32-31.99999975h-246.640625c-13.09375-.23046825-24.15625 9.67578175-25.3593748 22.71874975-.3515622 6.585938 2.0234378 13.023438 6.5624998 17.804688 4.539063 4.78125 10.84375 7.484375 17.4375 7.476562h168c8.828125.027344 15.972656 7.175782 16 16zm0 0" fill="#ffdaaa"/><path d="m24.035156 22.722656c1.203125-13.042968 12.265625-22.949218 25.359375-22.71874975h-24c-13.09375-.23046825-24.15625 9.67578175-25.3593748 22.71874975-.3515622 6.585938 2.0234378 13.023438 6.5624998 17.804688 4.539063 4.78125 10.84375 7.484375 17.4375 7.476562h24c-6.59375.007813-12.898437-2.695312-17.4375-7.476562-4.539062-4.78125-6.914062-11.21875-6.5625-17.804688zm0 0" fill="#ffb655"/><path d="m224.035156 120.003906c-8.835937 0-16 7.164063-16 16v16c0 8.835938 7.164063 16 16 16 8.835938 0 16-7.164062 16-16v-16c0-8.835937-7.164062-16-16-16zm0 0" fill="#ffdaaa"/><g fill="#ff9811"><path d="m152.035156 384.003906c-4.417968 0-8-3.582031-8-8v-192c0-4.417968 3.582032-8 8-8 4.417969 0 8 3.582032 8 8v192c0 4.417969-3.582031 8-8 8zm0 0"/><path d="m200.035156 384.003906h-.335937c-2.121094-.085937-4.121094-1.015625-5.558594-2.578125s-2.195313-3.636719-2.105469-5.757812l8-192c.054688-2.132813.972656-4.15625 2.542969-5.601563 1.570313-1.445312 3.664063-2.1875 5.792969-2.0625 2.125.085938 4.125 1.015625 5.5625 2.578125s2.195312 3.636719 2.101562 5.757813l-8 192c-.179687 4.285156-3.707031 7.667968-8 7.664062zm0 0"/><path d="m104.035156 384.003906c-4.289062.003906-7.820312-3.378906-8-7.664062l-8-192c-.183594-4.417969 3.246094-8.148438 7.664063-8.335938s8.152343 3.246094 8.335937 7.664063l8 192c.09375 2.121093-.664062 4.195312-2.101562 5.757812s-3.4375 2.492188-5.5625 2.578125zm0 0"/></g></svg>