<svg height="464pt" viewBox="-20 0 464 464.00413" width="464pt" xmlns="http://www.w3.org/2000/svg"><path d="m316.875 143.84375c-8.167969-.820312-15.679688-4.847656-20.878906-11.199219-5.183594-6.160156-8.015625-13.953125-8-22v-6.640625c-.003906-4.71875-2.085938-9.195312-5.695313-12.234375-3.609375-3.035156-8.378906-4.328125-13.027343-3.527343-1.878907.292968-3.675782.976562-5.277344 2-5.007813 3.179687-8.03125 8.710937-8 14.640624v39.121094c-.003906 4.71875-2.085938 9.195313-5.695313 12.234375-3.609375 3.039063-8.378906 4.328125-13.027343 3.527344-7.875-1.597656-13.46875-8.609375-13.277344-16.640625v-63.121094c-.027344-8.824218-7.175782-15.972656-16-16h-176l8 352h272l1.117187-48 .722657-32 4.320312-192.078125c-.402344 0-.882812-.082031-1.28125-.082031zm0 0" fill="#ffb655"/><path d="m31.996094 64.003906 8 352h32l-8-352zm0 0" fill="#ff9811"/><path d="m223.996094 80.003906v63.121094c-.191406 8.03125 5.402344 15.042969 13.277344 16.640625 4.648437.800781 9.417968-.488281 13.027343-3.527344 3.609375-3.039062 5.691407-7.515625 5.695313-12.234375v-39.121094c-.03125-5.929687 2.992187-11.460937 8-14.640624 1.601562-1.023438 3.398437-1.707032 5.277344-2 4.648437-.800782 9.417968.492187 13.027343 3.527343 3.609375 3.039063 5.691407 7.515625 5.695313 12.234375v6.640625c-.015625 8.046875 2.816406 15.839844 8 22 5.199218 6.351563 12.710937 10.378907 20.878906 11.199219.398438 0 .878906.082031 1.28125.082031 8.792969.527344 17.414062-2.597656 23.820312-8.644531 6.410157-6.042969 10.035157-14.46875 10.019532-23.277344v-64c0-26.507812-21.492188-47.99999975-48-47.99999975h-270.640625c-16.820313-.26562525-31.136719 12.18749975-33.199219 28.87890575-.882812 8.988282 2.074219 17.925782 8.136719 24.613282 6.066406 6.691406 14.671875 10.507812 23.703125 10.507812h176c8.824218.027344 15.972656 7.175782 16 16zm0 0" fill="#ffc477"/><path d="m32.15625 28.882812c2.0625-16.691406 16.378906-29.144531 33.199219-28.87890575h-32c-16.820313-.26562525-31.136719 12.18749975-33.199219 28.87890575-.882812 8.988282 2.074219 17.925782 8.136719 24.613282 6.066406 6.691406 14.671875 10.507812 23.703125 10.507812h32c-9.03125 0-17.636719-3.816406-23.703125-10.507812-6.0625-6.6875-9.019531-15.625-8.136719-24.613282zm0 0" fill="#ffa733"/><path d="m327.996094 132.644531c-5.183594-6.160156-8.015625-13.953125-8-22v-6.640625c-.003906-4.71875-2.085938-9.195312-5.695313-12.234375-3.609375-3.035156-8.378906-4.328125-13.027343-3.527343-1.878907.292968-3.675782.976562-5.277344 2-5.007813 3.179687-8.03125 8.710937-8 14.640624v5.761719c-.015625 8.046875 2.816406 15.839844 8 22 5.199218 6.351563 12.710937 10.378907 20.878906 11.199219.398438 0 .878906.082031 1.28125.082031 6.304688.375 12.582031-1.148437 18.015625-4.378906-3.097656-1.820313-5.859375-4.15625-8.175781-6.902344zm0 0" fill="#ffa733"/><path d="m255.996094 80.003906c-.027344-8.824218-7.175782-15.972656-16-16h-32c8.824218.027344 15.972656 7.175782 16 16v63.121094c-.191406 8.03125 5.402344 15.042969 13.277344 16.640625 4.648437.800781 9.417968-.488281 13.027343-3.527344 3.609375-3.039062 5.691407-7.515625 5.695313-12.234375zm0 0" fill="#ffa733"/><path d="m39.996094 456.003906c0 4.417969 3.582031 8 8 8h256c4.417968 0 8-3.582031 8-8v-40h-272zm0 0" fill="#bcbec0"/><path d="m71.996094 456.003906v-40h-32v40c0 4.417969 3.582031 8 8 8h32c-4.417969 0-8-3.582031-8-8zm0 0" fill="#939598"/><path d="m351.996094 64.402344v32.320312c23.09375 3.871094 40.007812 23.863282 40 47.28125v144c0 26.511719-21.492188 48-48 48h-30.160156l-.722657 32h30.882813c44.152344-.070312 79.929687-35.847656 80-80v-144c-.078125-41.054687-31.160156-75.417968-72-79.601562zm0 0" fill="#d1d3d4"/><path d="m343.996094 336.003906h16c26.507812 0 48-21.488281 48-48v-144c.007812-21.300781-14.042969-40.050781-34.488282-46.023437-3.3125-1.027344-5.554687-4.109375-5.511718-7.578125v-22.664063c-5.203125-1.664062-10.566406-2.78125-16-3.335937v32.320312c23.09375 3.871094 40.007812 23.863282 40 47.28125v144c0 26.511719-21.492188 48-48 48zm0 0" fill="#a7a9ac"/><path d="m313.835938 336.003906-.722657 32h16l.722657-32zm0 0" fill="#a7a9ac"/><g fill="#ff9811"><path d="m175.996094 384.003906c-4.417969 0-8-3.582031-8-8v-240c0-4.417968 3.582031-8 8-8 4.417968 0 8 3.582032 8 8v240c0 4.417969-3.582032 8-8 8zm0 0"/><path d="m111.996094 384.003906c-4.222656.007813-7.722656-3.261718-8-7.472656l-16-240c-.144532-2.121094.5625-4.214844 1.960937-5.816406 1.402344-1.597656 3.386719-2.574219 5.507813-2.710938 4.398437-.230468 8.179687 3.082032 8.53125 7.472656l16 240c.144531 2.121094-.5625 4.214844-1.964844 5.816407-1.402344 1.601562-3.386719 2.574219-5.507812 2.710937zm0 0"/><path d="m239.996094 384.003906c-.234375.011719-.472656.011719-.707032 0-2.121093-.179687-4.085937-1.195312-5.457031-2.828125-1.367187-1.632812-2.03125-3.746093-1.835937-5.867187l16-184c.382812-4.417969 4.277344-7.6875 8.695312-7.304688 4.417969.382813 7.6875 4.277344 7.304688 8.695313l-16 184c-.363282 4.144531-3.839844 7.320312-8 7.304687zm0 0"/></g></svg>