<svg height="464pt" viewBox="-96 0 464 464" width="464pt" xmlns="http://www.w3.org/2000/svg"><path d="m252.839844 80h-233.640625c4.625 48.441406 12.800781 138.710938 12.800781 176 0 41.425781-10.09375 148.265625-14.246094 190.472656-.433594 4.488282 1.050782 8.949219 4.085938 12.289063 3.03125 3.335937 7.332031 5.238281 11.839844 5.238281h204.640624c4.507813 0 8.808594-1.902344 11.84375-5.238281 3.03125-3.339844 4.515626-7.800781 4.085938-12.289063-4.152344-42.199218-14.25-148.96875-14.25-190.375 0-37.304687 8.175781-127.632812 12.839844-176.097656zm0 0" fill="#ffb655"/><path d="m41.753906 446.472656c4.152344-42.207031 14.246094-149.046875 14.246094-190.472656 0-37.289062-8.175781-127.558594-12.839844-176h-24c4.664063 48.441406 12.839844 138.710938 12.839844 176 0 41.425781-10.09375 148.265625-14.246094 190.472656-.433594 4.488282 1.050782 8.949219 4.085938 12.289063 3.03125 3.335937 7.332031 5.238281 11.839844 5.238281h24c-4.507813 0-8.808594-1.902344-11.839844-5.238281-3.035156-3.339844-4.519532-7.800781-4.085938-12.289063zm0 0" fill="#ff9811"/><path d="m256 48h-240s1.304688 12.6875 3.160156 32h233.679688c1.855468-19.3125 3.160156-32 3.160156-32zm0 0" fill="#e6e7e8"/><path d="m16 48s1.304688 12.6875 3.160156 32h24c-1.855468-19.3125-3.160156-32-3.160156-32zm0 0" fill="#bcbec0"/><path d="m25.351562 48h134.648438c4.507812.109375 8.773438 2.0625 11.796875 5.402344 3.027344 3.34375 4.546875 7.78125 4.203125 12.277344v13.921874c.304688 7.308594 5.121094 13.65625 12.082031 15.917969 7.714844 1.894531 15.648438-2.160156 18.636719-9.519531.753906-1.777344 1.1875-3.671875 1.28125-5.601562.007812-8.101563 5.914062-14.992188 13.921875-16.238282 4.925781-.714844 9.894531.984375 13.359375 4.558594 2.917969 2.847656 4.613281 6.722656 4.71875 10.800781.164062 7.074219 4.640625 13.324219 11.28125 15.761719.957031.335938 1.949219.550781 2.960938.640625 4.515624.460937 9.019531-1.003906 12.398437-4.035156 3.382813-3.03125 5.328125-7.347657 5.359375-11.886719v-48c0-17.671875-14.328125-32-32-32h-216c-6.671875 0-13.039062 2.777344-17.582031 7.664062-4.539063 4.886719-6.84375 11.441407-6.3515628 18.097657 1.3906248 12.84375 12.3671878 22.5 25.2851558 22.238281zm0 0" fill="#ffdaaa"/><path d="m24.066406 25.761719c-.492187-6.65625 1.8125-13.210938 6.351563-18.097657 4.542969-4.886718 10.910156-7.664062 17.582031-7.664062h-24c-6.671875 0-13.039062 2.777344-17.582031 7.664062-4.539063 4.886719-6.84375 11.441407-6.3515628 18.097657 1.3906248 12.84375 12.3671878 22.5 25.2851558 22.238281h24c-12.917968.261719-23.894531-9.394531-25.285156-22.238281zm0 0" fill="#ffb655"/><path d="m17.761719 446.480469c-.429688 4.484375 1.054687 8.945312 4.085937 12.28125 3.03125 3.332031 7.328125 5.234375 11.832032 5.238281h204.640624c4.507813-.003906 8.804688-1.90625 11.835938-5.238281 3.027344-3.335938 4.511719-7.796875 4.085938-12.28125-.800782-8.222657-1.847657-18.679688-2.984376-30.480469h-230.511718c-1.136719 11.800781-2.175782 22.257812-2.984375 30.480469zm0 0" fill="#d1d3d4"/><path d="m41.761719 446.480469c.800781-8.222657 1.847656-18.679688 2.984375-30.480469h-24c-1.136719 11.800781-2.175782 22.257812-2.984375 30.480469-.429688 4.484375 1.054687 8.945312 4.085937 12.28125 3.03125 3.332031 7.328125 5.234375 11.832032 5.238281h24c-4.503907-.003906-8.800782-1.90625-11.832032-5.238281-3.03125-3.335938-4.515625-7.796875-4.085937-12.28125zm0 0" fill="#a7a9ac"/><g fill="#ffdaaa"><path d="m64 248c-4.171875.015625-7.652344-3.179688-8-7.335938l-8-96c-.367188-4.417968 2.917969-8.296874 7.335938-8.664062 4.417968-.367188 8.296874 2.917969 8.664062 7.335938l8 96c.183594 2.125-.488281 4.230468-1.863281 5.859374-1.378907 1.625-3.347657 2.636719-5.472657 2.804688-.222656 0-.445312 0-.664062 0zm0 0"/><path d="m64 272c-2.117188-.03125-4.144531-.859375-5.679688-2.320312-.738281-.75-1.3125-1.652344-1.679687-2.640626-.410156-.960937-.628906-1.992187-.640625-3.039062 0-4.417969 3.582031-8 8-8s8 3.582031 8 8c-.011719 1.046875-.230469 2.078125-.640625 3.039062-.367187.988282-.9375 1.890626-1.679687 2.640626-1.53125 1.460937-3.5625 2.289062-5.679688 2.320312zm0 0"/></g></svg>