<svg height="464pt" viewBox="-52 0 464 464" width="464pt" xmlns="http://www.w3.org/2000/svg"><path d="m208 32c4.417969 0 8-3.582031 8-8v-16c0-4.417969-3.582031-8-8-8h-64c-4.417969 0-8 3.582031-8 8v16c0 4.417969 3.582031 8 8 8zm0 0" fill="#898890"/><path d="m160 24v-16c0-4.417969 3.582031-8 8-8h-24c-4.417969 0-8 3.582031-8 8v16c0 4.417969 3.582031 8 8 8h24c-4.417969 0-8-3.582031-8-8zm0 0" fill="#57565c"/><path d="m112 448c0 8.835938 7.164062 16 16 16h96c8.835938 0 16-7.164062 16-16v-32h-128zm0 0" fill="#f490c0"/><path d="m136 448v-32h-24v32c0 8.835938 7.164062 16 16 16h24c-8.835938 0-16-7.164062-16-16zm0 0" fill="#ed539d"/><path d="m112 306.34375v13.65625h128v-13.65625c.003906-1.558594-.113281-3.113281-.34375-4.65625l-39.65625-269.6875h-48l-39.65625 269.6875c-.230469 1.542969-.34375 3.097656-.34375 4.65625zm0 0" fill="#f490c0"/><path d="m136.34375 301.6875 39.65625-269.6875h-24l-39.65625 269.6875c-.230469 1.542969-.34375 3.097656-.34375 4.65625v13.65625h24v-13.65625c0-1.558594.113281-3.113281.34375-4.65625zm0 0" fill="#ed539d"/><path d="m112 320h128v96h-128zm0 0" fill="#ff7956"/><path d="m112 320h24v96h-24zm0 0" fill="#ff5023"/><g fill="#ffb655"><path d="m288 176c-.535156-.011719-1.070312-.066406-1.597656-.160156-.503906-.085938-.988282-.25-1.441406-.480469-.511719-.175781-1-.417969-1.449219-.71875l-1.191407-.960937c-3.09375-3.15625-3.09375-8.203126 0-11.359376l1.191407-.960937c.449219-.300781.9375-.542969 1.449219-.71875.453124-.230469.9375-.394531 1.441406-.480469 1.023437-.238281 2.085937-.238281 3.109375 0 .53125.074219 1.050781.238282 1.527343.480469.511719.175781.996094.417969 1.441407.71875l1.199219.960937c3.09375 3.15625 3.09375 8.203126 0 11.359376l-1.199219.960937c-.445313.300781-.929688.542969-1.441407.71875-.476562.242187-.996093.40625-1.527343.480469-.5.09375-1.003907.148437-1.511719.160156zm0 0"/><path d="m352 136c-1.046875-.011719-2.078125-.230469-3.039062-.640625-3.046876-1.152344-5.035157-4.101563-4.960938-7.359375-.027344-1.050781.191406-2.089844.640625-3.039062 1.359375-3.578126 5.132813-5.621094 8.871094-4.800782.53125.074219 1.050781.238282 1.527343.480469.492188.160156.953126.402344 1.363282.71875.46875.320313.878906.640625 1.277344.960937.722656.765626 1.292968 1.660157 1.679687 2.640626.410156.960937.628906 1.992187.640625 3.039062-.03125 2.117188-.859375 4.144531-2.320312 5.679688-.398438.320312-.800782.640624-1.277344.960937-.410156.316406-.871094.558594-1.363282.71875-.476562.242187-.996093.40625-1.527343.480469-.5.09375-1.003907.148437-1.511719.160156zm0 0"/><path d="m72 120c-.535156-.011719-1.070312-.066406-1.597656-.160156-.503906-.085938-.988282-.25-1.441406-.480469-.511719-.175781-1-.417969-1.449219-.71875l-1.191407-.960937-.960937-1.199219c-.300781-.445313-.542969-.929688-.71875-1.441407-.230469-.453124-.394531-.9375-.480469-1.4375-.09375-.53125-.144531-1.066406-.160156-1.601562.027344-2.117188.855469-4.148438 2.320312-5.679688l1.191407-.960937c.449219-.300781.9375-.542969 1.449219-.71875.453124-.230469.9375-.394531 1.441406-.480469 2.632812-.496094 5.34375.308594 7.277344 2.160156 1.460937 1.535157 2.289062 3.5625 2.320312 5.679688-.011719.535156-.066406 1.070312-.167969 1.601562-.078125.5-.238281.988282-.472656 1.4375-.175781.507813-.417969.992188-.71875 1.441407l-.960937 1.199219c-1.535157 1.460937-3.5625 2.289062-5.679688 2.320312zm0 0"/><path d="m88 40c-3.25.019531-6.1875-1.929688-7.433594-4.933594-1.246094-3-.554687-6.457031 1.753906-8.746094 2.289063-2.308593 5.746094-3 8.746094-1.753906 3.003906 1.246094 4.953125 4.183594 4.933594 7.433594.023438 2.128906-.8125 4.175781-2.320312 5.679688-1.503907 1.507812-3.550782 2.34375-5.679688 2.320312zm0 0"/><path d="m8 72c-2.128906.023438-4.175781-.8125-5.679688-2.320312-1.503906-1.503907-2.3398432-3.550782-2.320312-5.679688.0117188-2.121094.84375-4.15625 2.320312-5.679688 3.207032-2.960937 8.152344-2.960937 11.359376 0 1.472656 1.523438 2.304687 3.558594 2.320312 5.679688-.03125 2.117188-.859375 4.144531-2.320312 5.679688-.398438.320312-.800782.640624-1.277344.960937-.410156.316406-.871094.558594-1.363282.71875-.476562.242187-.996093.40625-1.527343.480469-.5.09375-1.003907.148437-1.511719.160156zm0 0"/><path d="m16 272c-2.128906.023438-4.175781-.8125-5.679688-2.320312-1.503906-1.503907-2.339843-3.550782-2.320312-5.679688-.027344-1.050781.191406-2.089844.640625-3.039062.40625-.96875.972656-1.863282 1.679687-2.640626 3.207032-2.960937 8.152344-2.960937 11.359376 0 .707031.777344 1.273437 1.671876 1.679687 2.640626.445313.949218.664063 1.988281.640625 3.039062.023438 2.128906-.8125 4.175781-2.320312 5.679688-1.503907 1.507812-3.550782 2.34375-5.679688 2.320312zm0 0"/><path d="m64 232c-2.117188-.03125-4.148438-.859375-5.679688-2.320312-.34375-.378907-.664062-.78125-.960937-1.199219-.300781-.445313-.542969-.929688-.71875-1.441407-.230469-.453124-.394531-.9375-.480469-1.4375-.09375-.53125-.144531-1.066406-.160156-1.601562 0-4.417969 3.582031-8 8-8s8 3.582031 8 8c-.011719.535156-.066406 1.070312-.167969 1.601562-.078125.5-.238281.988282-.472656 1.4375-.175781.507813-.417969.992188-.71875 1.441407l-.960937 1.199219c-1.535157 1.460937-3.5625 2.289062-5.679688 2.320312zm0 0"/><path d="m328 16c-2.117188-.03125-4.148438-.859375-5.679688-2.320312-.738281-.75-1.3125-1.652344-1.679687-2.640626-.851563-1.9375-.851563-4.140624 0-6.078124.367187-.988282.941406-1.890626 1.679687-2.640626.765626-.722656 1.660157-1.292968 2.640626-1.679687 1.429687-.63671875 3.019531-.804687 4.550781-.480469.53125.074219 1.050781.238282 1.527343.480469.492188.160156.953126.402344 1.363282.71875.457031.277344.882812.597656 1.277344.960937.722656.765626 1.292968 1.660157 1.679687 2.640626.410156.960937.628906 1.992187.640625 3.039062-.03125 2.117188-.859375 4.144531-2.320312 5.679688-.394532.363281-.820313.683593-1.277344.960937-.410156.316406-.871094.558594-1.363282.71875-.476562.242187-.996093.40625-1.527343.480469-.5.09375-1.003907.148437-1.511719.160156zm0 0"/></g><path d="m288 80c4.417969 0 8-3.582031 8-8s-3.582031-8-8-8h-8v-8c0-4.417969-3.582031-8-8-8s-8 3.582031-8 8v8h-8c-4.417969 0-8 3.582031-8 8s3.582031 8 8 8h8v8c0 4.417969 3.582031 8 8 8s8-3.582031 8-8v-8zm0 0" fill="#ff9811"/><path d="m48 152h-8v-8c0-4.417969-3.582031-8-8-8s-8 3.582031-8 8v8h-8c-4.417969 0-8 3.582031-8 8s3.582031 8 8 8h8v8c0 4.417969 3.582031 8 8 8s8-3.582031 8-8v-8h8c4.417969 0 8-3.582031 8-8s-3.582031-8-8-8zm0 0" fill="#ff9811"/><path d="m328 248h-8v-8c0-4.417969-3.582031-8-8-8s-8 3.582031-8 8v8h-8c-4.417969 0-8 3.582031-8 8s3.582031 8 8 8h8v8c0 4.417969 3.582031 8 8 8s8-3.582031 8-8v-8h8c4.417969 0 8-3.582031 8-8s-3.582031-8-8-8zm0 0" fill="#ff9811"/></svg>