<svg height="464pt" viewBox="-20 0 464 464.0055" width="464pt" xmlns="http://www.w3.org/2000/svg"><path d="m232.003906 48.003906c4.417969 0 8-3.582031 8-8v-32c0-4.417968-3.582031-7.99999975-8-7.99999975h-80c-4.417968 0-8 3.58203175-8 7.99999975v32c0 4.417969 3.582032 8 8 8zm0 0" fill="#898890"/><path d="m168.003906 40.003906v-32c0-4.417968 3.582032-7.99999975 8-7.99999975h-24c-4.417968 0-8 3.58203175-8 7.99999975v32c0 4.417969 3.582032 8 8 8h24c-4.417968 0-8-3.582031-8-8zm0 0" fill="#57565c"/><path d="m40.003906 448.003906c0 8.839844 7.164063 16 16 16h272c8.835938 0 16-7.160156 16-16v-56h-304zm0 0" fill="#ff7956"/><path d="m72.003906 448.003906v-56h-32v56c0 8.839844 7.164063 16 16 16h32c-8.835937 0-16-7.160156-16-16zm0 0" fill="#ff5023"/><path d="m232.003906 120.003906c-4.417968 0-8-3.582031-8-8v-64h-64v64c0 4.417969-3.582031 8-8 8-61.855468 0-112 50.144532-112 112h304c0-61.855468-50.144531-112-112-112zm0 0" fill="#ff7956"/><path d="m184.003906 120.003906c4.417969 0 8-3.582031 8-8v-64h-32v64c0 4.417969-3.582031 8-8 8-61.855468 0-112 50.144532-112 112h32c0-61.855468 50.144532-112 112-112zm0 0" fill="#ff5023"/><path d="m40.003906 232.003906h304v160h-304zm0 0" fill="#ffde55"/><path d="m40.003906 232.003906h32v160h-32zm0 0" fill="#ebbf00"/><g fill="#ffb655"><path d="m368.003906 136.003906c-2.128906.023438-4.175781-.8125-5.683594-2.316406-1.503906-1.507812-2.339843-3.554688-2.316406-5.683594 0-4.417968 3.582032-8 8-8 4.417969 0 8 3.582032 8 8 .019532 2.128906-.816406 4.175782-2.320312 5.683594-1.503906 1.503906-3.550782 2.339844-5.679688 2.316406zm0 0"/><path d="m80.003906 104.003906c-2.128906.023438-4.175781-.8125-5.679687-2.320312-.707031-.777344-1.273438-1.671875-1.679688-2.636719-.449219-.949219-.667969-1.992187-.640625-3.042969.023438-2.117187.855469-4.148437 2.320313-5.679687l1.191406-.957031c.449219-.304688.933594-.546876 1.445313-.722657.457031-.230469.941406-.390625 1.441406-.480469 2.632812-.511718 5.351562.292969 7.28125 2.160157 1.460937 1.535156 2.289062 3.5625 2.320312 5.679687-.015625 1.046875-.230468 2.078125-.640625 3.042969-.726562 2.007813-2.3125 3.589844-4.320312 4.320313-.960938.410156-1.996094.625-3.039063.636718zm0 0"/><path d="m96.003906 24.003906c-2.128906.023438-4.175781-.8125-5.679687-2.320312-.703125-.796875-1.296875-1.683594-1.769531-2.636719-.378907-.96875-.566407-2-.550782-3.042969-.027344-1.046875.191406-2.089844.640625-3.039062.402344-.96875.972657-1.859375 1.679688-2.640625.761719-.722657 1.660156-1.292969 2.636719-1.679688 2.984374-1.207031 6.398437-.546875 8.722656 1.679688.707031.78125 1.273437 1.671875 1.679687 2.640625.851563 1.9375.851563 4.144531 0 6.082031-.410156.964844-.976562 1.859375-1.679687 2.636719-1.507813 1.503906-3.554688 2.339844-5.679688 2.320312zm0 0"/><path d="m16.003906 56.003906c-2.128906.023438-4.175781-.8125-5.679687-2.320312-.703125-.796875-1.296875-1.683594-1.769531-2.636719-.378907-.96875-.566407-2-.550782-3.042969-.019531-3.25 1.929688-6.1875 4.929688-7.433594 3.003906-1.246093 6.460937-.550781 8.75 1.753907 1.476562 1.523437 2.308594 3.558593 2.320312 5.679687-.015625 1.046875-.230468 2.078125-.640625 3.042969-.726562 2.007813-2.3125 3.589844-4.320312 4.320313-.960938.410156-1.996094.625-3.039063.636718zm0 0"/><path d="m344.003906 16.003906c-2.128906.023438-4.175781-.8125-5.683594-2.316406-1.503906-1.507812-2.339843-3.554688-2.316406-5.683594.023438-2.117187.855469-4.148437 2.320313-5.679687l1.191406-.957031c.449219-.304688.933594-.546876 1.445313-.722657.457031-.230469.941406-.390625 1.441406-.480469 1.558594-.328124 3.183594-.16015575 4.640625.480469.96875.410157 1.859375.976563 2.640625 1.679688 1.460937 1.535156 2.289062 3.5625 2.320312 5.679687.019532 2.128906-.816406 4.175782-2.320312 5.683594-1.503906 1.503906-3.550782 2.339844-5.679688 2.316406zm0 0"/></g><path d="m304.003906 64.003906h-8v-8c0-4.417968-3.582031-8-8-8-4.417968 0-8 3.582032-8 8v8h-8c-4.417968 0-8 3.582032-8 8 0 4.417969 3.582032 8 8 8h8v8c0 4.417969 3.582032 8 8 8 4.417969 0 8-3.582031 8-8v-8h8c4.417969 0 8-3.582031 8-8 0-4.417968-3.582031-8-8-8zm0 0" fill="#ff9811"/><path d="m40.003906 120.003906h-8v-8c0-4.417968-3.582031-8-8-8-4.417968 0-8 3.582032-8 8v8h-8c-4.417968 0-7.99999975 3.582032-7.99999975 8 0 4.417969 3.58203175 8 7.99999975 8h8v8c0 4.417969 3.582032 8 8 8 4.417969 0 8-3.582031 8-8v-8h8c4.417969 0 8-3.582031 8-8 0-4.417968-3.582031-8-8-8zm0 0" fill="#ff9811"/><path d="m416.003906 216.003906h-8v-8c0-4.417968-3.582031-8-8-8-4.417968 0-8 3.582032-8 8v8h-8c-4.417968 0-8 3.582032-8 8 0 4.417969 3.582032 8 8 8h8v8c0 4.417969 3.582032 8 8 8 4.417969 0 8-3.582031 8-8v-8h8c4.417969 0 8-3.582031 8-8 0-4.417968-3.582031-8-8-8zm0 0" fill="#ff9811"/></svg>