<svg height="464pt" viewBox="-24 0 464 464.00297" width="464pt" xmlns="http://www.w3.org/2000/svg"><path d="m240 48.003906c4.417969 0 8-3.582031 8-8v-32c0-4.417968-3.582031-7.99999975-8-7.99999975h-80c-4.417969 0-8 3.58203175-8 7.99999975v32c0 4.417969 3.582031 8 8 8zm0 0" fill="#898890"/><path d="m176 40.003906v-32c0-4.417968 3.582031-7.99999975 8-7.99999975h-24c-4.417969 0-8 3.58203175-8 7.99999975v32c0 4.417969 3.582031 8 8 8h24c-4.417969 0-8-3.582031-8-8zm0 0" fill="#57565c"/><path d="m160 176.003906h-48c-17.671875 0-32 14.324219-32 32v240c0 8.835938 7.164062 16 16 16h208c8.839844 0 16-7.164062 16-16v-240c0-17.675781-14.324219-32-32-32h-48c-4.417969 0-8-3.582031-8-8v-120h-64v120c0 4.417969-3.582031 8-8 8zm120 40v208h-160v-208zm0 0" fill="#ffb655"/><path d="m192 168.003906v-120h-24v120c0 4.417969-3.582031 8-8 8h24c4.417969 0 8-3.582031 8-8zm0 0" fill="#ee8700"/><path d="m104 448.003906v-240c0-17.675781 14.328125-32 32-32h-24c-17.671875 0-32 14.324219-32 32v240c0 8.835938 7.164062 16 16 16h24c-8.835938 0-16-7.164062-16-16zm0 0" fill="#ee8700"/><path d="m120 216.003906h160v208h-160zm0 0" fill="#ffe477"/><path d="m120 216.003906h24v208h-24zm0 0" fill="#ffd422"/><g fill="#ffb655"><path d="m344 160.003906c-1.042969-.011718-2.078125-.230468-3.039062-.640625-2.007813-.726562-3.59375-2.308593-4.320313-4.320312-.410156-.960938-.625-1.996094-.640625-3.039063.03125-2.117187.859375-4.148437 2.320312-5.679687.777344-.707031 1.671876-1.277344 2.640626-1.679688 2.984374-1.21875 6.402343-.558593 8.71875 1.679688.347656.378906.667968.78125.960937 1.199219.304687.445312.546875.929687.722656 1.441406.230469.453125.390625.9375.476563 1.4375.09375.527344.148437 1.0625.160156 1.601562.027344 1.046875-.191406 2.089844-.636719 3.039063-.40625.96875-.976562 1.863281-1.683593 2.640625-1.53125 1.460937-3.558594 2.289062-5.679688 2.320312zm0 0"/><path d="m408 120.003906c-1.042969-.011718-2.078125-.230468-3.039062-.640625-.96875-.40625-1.863282-.972656-2.640626-1.679687-.722656-.765625-1.292968-1.660156-1.679687-2.640625-.410156-.960938-.625-1.996094-.640625-3.039063.015625-.539062.070312-1.074218.160156-1.601562.089844-.5.25-.984375.480469-1.4375.175781-.511719.417969-.996094.722656-1.441406l.957031-1.199219c.777344-.707031 1.671876-1.277344 2.640626-1.679688 1.949218-.800781 4.132812-.800781 6.082031 0 .96875.402344 1.859375.972657 2.636719 1.679688.347656.378906.667968.78125.960937 1.199219.304687.445312.546875.929687.722656 1.441406.230469.453125.390625.9375.476563 1.4375.09375.527344.148437 1.0625.160156 1.601562-.011719 1.042969-.230469 2.078125-.636719 3.039063-.386719.980469-.957031 1.875-1.683593 2.640625-1.53125 1.460937-3.558594 2.289062-5.679688 2.320312zm0 0"/><path d="m96 120.003906c-3.769531-.039062-6.992188-2.730468-7.699219-6.433594-.707031-3.703124 1.292969-7.394531 4.785157-8.820312 3.492187-1.425781 7.503906-.191406 9.589843 2.949219 2.089844 3.140625 1.671875 7.316406-.996093 9.984375-1.53125 1.460937-3.558594 2.289062-5.679688 2.320312zm0 0"/><path d="m112 40.003906c-2.117188-.03125-4.144531-.859375-5.679688-2.320312l-.957031-1.199219c-.304687-.445313-.546875-.929687-.722656-1.441406-.230469-.453125-.390625-.9375-.480469-1.441407-.089844-.527343-.144531-1.0625-.160156-1.597656.015625-.511718.070312-1.019531.160156-1.519531.074219-.53125.238282-1.046875.480469-1.519531.175781-.511719.417969-.996094.722656-1.441406l.957031-1.199219c3.210938-2.960938 8.152344-2.960938 11.359376 0l.960937 1.199219c.304687.445312.546875.929687.722656 1.441406.242188.472656.402344.988281.476563 1.519531.09375.5.148437 1.007813.160156 1.519531-.011719.535156-.066406 1.070313-.160156 1.597656-.085938.503907-.246094.988282-.476563 1.441407-.175781.511719-.417969.996093-.722656 1.441406l-.960937 1.199219c-1.53125 1.460937-3.558594 2.289062-5.679688 2.320312zm0 0"/><path d="m32 72.003906c-3.25.019532-6.1875-1.929687-7.433594-4.933594-1.246094-3-.550781-6.457031 1.753906-8.746093 3.136719-3.136719 8.222657-3.136719 11.359376 0 3.140624 3.136719 3.140624 8.222656 0 11.359375-1.53125 1.460937-3.558594 2.289062-5.679688 2.320312zm0 0"/><path d="m8 272.003906c-2.117188-.03125-4.144531-.859375-5.679688-2.320312-.703124-.777344-1.273437-1.671875-1.679687-2.640625-.410156-.960938-.625-1.996094-.640625-3.039063.03125-2.117187.859375-4.148437 2.320312-5.679687 2.300782-2.269531 5.742188-2.933594 8.722657-1.679688.96875.402344 1.859375.972657 2.636719 1.679688 1.460937 1.53125 2.289062 3.5625 2.320312 5.679687.027344 1.046875-.191406 2.089844-.636719 3.039063-.40625.96875-.976562 1.863281-1.683593 2.640625-.777344.707031-1.667969 1.273437-2.636719 1.679687-.949219.449219-1.992188.667969-3.042969.640625zm0 0"/><path d="m56 232.003906c-2.117188-.03125-4.144531-.859375-5.679688-2.320312-.363281-.390625-.683593-.820313-.957031-1.28125-.320312-.40625-.5625-.867188-.722656-1.359375-.230469-.453125-.390625-.9375-.480469-1.441407-.085937-.527343-.140625-1.0625-.160156-1.597656 0-4.417968 3.582031-8 8-8s8 3.582032 8 8c0 4.417969-3.582031 8-8 8zm0 0"/><path d="m352 16.003906c-.535156-.019531-1.070312-.070312-1.597656-.160156-.503906-.085938-.988282-.25-1.441406-.480469-.507813-.175781-.992188-.417969-1.4375-.71875-.421876-.296875-.820313-.617187-1.203126-.960937-1.460937-1.535156-2.289062-3.5625-2.320312-5.679688.015625-1.046875.230469-2.078125.640625-3.039062.40625-.972656.976563-1.863282 1.679687-2.640625 1.917969-1.890625 4.644532-2.699219 7.28125-2.160157.5.085938.988282.246094 1.441407.480469.507812.171875.992187.414063 1.4375.71875l1.199219.960938c.707031.777343 1.277343 1.667969 1.683593 2.640625.40625.960937.625 1.992187.636719 3.039062-.03125 2.117188-.859375 4.144532-2.320312 5.679688-.378907.34375-.777344.664062-1.199219.960937-.445313.300781-.929688.542969-1.4375.71875-.453125.230469-.941407.394531-1.441407.480469-.527343.09375-1.0625.144531-1.601562.160156zm0 0"/></g><path d="m312 64.003906h-8v-8c0-4.417968-3.582031-8-8-8s-8 3.582032-8 8v8h-8c-4.417969 0-8 3.582032-8 8 0 4.417969 3.582031 8 8 8h8v8c0 4.417969 3.582031 8 8 8s8-3.582031 8-8v-8h8c4.417969 0 8-3.582031 8-8 0-4.417968-3.582031-8-8-8zm0 0" fill="#ff9811"/><path d="m56 144.003906h-8v-8c0-4.417968-3.582031-8-8-8s-8 3.582032-8 8v8h-8c-4.417969 0-8 3.582032-8 8 0 4.417969 3.582031 8 8 8h8v8c0 4.417969 3.582031 8 8 8s8-3.582031 8-8v-8h8c4.417969 0 8-3.582031 8-8 0-4.417968-3.582031-8-8-8zm0 0" fill="#ff9811"/><path d="m400 264.003906h-8v-8c0-4.417968-3.582031-8-8-8s-8 3.582032-8 8v8h-8c-4.417969 0-8 3.582032-8 8 0 4.417969 3.582031 8 8 8h8v8c0 4.417969 3.582031 8 8 8s8-3.582031 8-8v-8h8c4.417969 0 8-3.582031 8-8 0-4.417968-3.582031-8-8-8zm0 0" fill="#ff9811"/></svg>