<svg height="464pt" viewBox="-24 0 464 464.02003" width="464pt" xmlns="http://www.w3.org/2000/svg"><path d="m232.011719 32.019531c4.417969 0 8-3.582031 8-8v-16c0-4.417969-3.582031-7.9999998-8-7.9999998h-64c-4.417969 0-8 3.5820308-8 7.9999998v16c0 4.417969 3.582031 8 8 8zm0 0" fill="#c0ab91"/><path d="m192.011719 24.019531v-16c0-4.417969 3.582031-7.9999998 8-7.9999998h-32c-4.417969 0-8 3.5820308-8 7.9999998v16c0 4.417969 3.582031 8 8 8h32c-4.417969 0-8-3.582031-8-8zm0 0" fill="#a78966"/><path d="m312.011719 192.316406c.003906-10.242187-4.894531-19.871094-13.175781-25.894531l-68.234376-49.601563c-4.140624-3.011718-6.59375-7.824218-6.589843-12.945312v-71.855469h-48v71.855469c-.003907 5.121094-2.453125 9.925781-6.59375 12.9375l-68.230469 49.597656c-8.285156 6.027344-13.183594 15.660156-13.175781 25.90625v63.703125h224zm0 0" fill="#f072ae"/><path d="m104.011719 464.019531h192c8.835937 0 16-7.164062 16-16v-80h-224v80c0 8.835938 7.164062 16 16 16zm0 0" fill="#f072ae"/><path d="m112.011719 448.019531v-80h-24v80c0 8.835938 7.164062 16 16 16h24c-8.835938 0-16-7.164062-16-16zm0 0" fill="#ea348b"/><path d="m88.011719 256.019531h224v112h-224zm0 0" fill="#ffb655"/><path d="m88.011719 256.019531h24v112h-24zm0 0" fill="#ff9811"/><path d="m112.011719 192.316406c-.007813-10.242187 4.890625-19.871094 13.175781-25.894531l68.230469-49.601563c4.144531-3.011718 6.59375-7.824218 6.59375-12.945312v-71.855469h-24v71.855469c-.003907 5.121094-2.453125 9.925781-6.59375 12.9375l-68.230469 49.597656c-8.285156 6.027344-13.183594 15.660156-13.175781 25.90625v63.703125h24zm0 0" fill="#ea348b"/><g fill="#ffb655"><path d="m344.011719 160.019531c-1.046875-.011719-2.078125-.230469-3.042969-.640625-2.007812-.726562-3.589844-2.308594-4.316406-4.320312-.410156-.960938-.628906-1.992188-.640625-3.039063.03125-2.117187.859375-4.144531 2.320312-5.679687.777344-.707032 1.667969-1.273438 2.636719-1.679688 2.984375-1.214844 6.402344-.558594 8.722656 1.679688.34375.378906.664063.78125.960938 1.199218.300781.445313.542968.929688.71875 1.441407.230468.453125.390625.9375.480468 1.441406.089844.527344.144532 1.0625.160157 1.597656.019531 2.128907-.816407 4.175781-2.320313 5.679688-1.503906 1.507812-3.550781 2.34375-5.679687 2.320312zm0 0"/><path d="m408.011719 120.019531c-1.050781.027344-2.09375-.191406-3.042969-.640625-.96875-.40625-1.859375-.972656-2.636719-1.679687-.726562-.765625-1.296875-1.660157-1.679687-2.640625-.410156-.960938-.628906-1.992188-.640625-3.039063.011719-.535156.066406-1.070312.160156-1.597656.085937-.503906.246094-.988281.480469-1.441406.171875-.511719.414062-.996094.71875-1.441407l.960937-1.199218c.777344-.707032 1.667969-1.273438 2.636719-1.679688 1.949219-.800781 4.132812-.800781 6.082031 0 .96875.40625 1.863281.972656 2.640625 1.679688.34375.378906.664063.78125.960938 1.199218.300781.445313.542968.929688.71875 1.441407.230468.453125.390625.9375.480468 1.441406.089844.527344.144532 1.0625.160157 1.597656-.015625 1.046875-.230469 2.078125-.640625 3.039063-.386719.980468-.957032 1.875-1.679688 2.640625-1.535156 1.460937-3.5625 2.289062-5.679687 2.320312zm0 0"/><path d="m96.011719 120.019531c-2.117188-.03125-4.148438-.859375-5.679688-2.320312-.726562-.765625-1.296875-1.660157-1.679687-2.640625-.410156-.960938-.628906-1.992188-.640625-3.039063 0-4.417969 3.582031-8 8-8s8 3.582031 8 8-3.582031 8-8 8zm0 0"/><path d="m112.011719 40.019531c-2.128907.023438-4.175781-.8125-5.683594-2.320312-1.503906-1.503907-2.339844-3.550781-2.316406-5.679688.011719-1.042969.230469-2.078125.640625-3.039062.367187-.988281.9375-1.890625 1.679687-2.640625 3.207031-2.960938 8.148438-2.960938 11.359375 0 .722656.765625 1.292969 1.660156 1.679688 2.640625.449218.949219.667968 1.988281.640625 3.039062.019531 2.128907-.816407 4.175781-2.320313 5.679688-1.503906 1.507812-3.550781 2.34375-5.679687 2.320312zm0 0"/><path d="m32.011719 72.019531c-2.117188-.03125-4.148438-.859375-5.679688-2.320312-.707031-.777344-1.277343-1.671875-1.679687-2.640625-.410156-.960938-.628906-1.992188-.640625-3.039063 0-4.417969 3.582031-8 8-8s8 3.582031 8 8c-.015625 1.046875-.230469 2.078125-.640625 3.039063-.40625.96875-.976563 1.863281-1.679688 2.640625-1.535156 1.460937-3.5625 2.289062-5.679687 2.320312zm0 0"/><path d="m8.011719 272.019531c-2.128907.023438-4.175781-.8125-5.683594-2.320312-1.503906-1.503907-2.3398438-3.550781-2.3164062-5.679688.0117187-1.042969.2304692-2.078125.6406252-3.039062.402344-.96875.972656-1.863281 1.679687-2.640625.761719-.722656 1.660157-1.292969 2.636719-1.679688 2.984375-1.214844 6.402344-.558594 8.722656 1.679688.703125.777344 1.273438 1.671875 1.679688 2.640625.410156.960937.625 1.996093.640625 3.039062-.03125 2.117188-.859375 4.148438-2.320313 5.679688l-1.199218.960937c-.449219.304688-.933594.546875-1.441407.71875-.453125.230469-.9375.394532-1.441406.480469-.527344.089844-1.0625.144531-1.597656.160156zm0 0"/><path d="m56.011719 232.019531c-1.046875-.011719-2.078125-.230469-3.042969-.640625-.988281-.367187-1.886719-.9375-2.636719-1.679687-2.769531-2.714844-3.230469-7.007813-1.101562-10.25 2.132812-3.238281 6.257812-4.515625 9.847656-3.050781 3.589844 1.464843 5.640625 5.265624 4.890625 9.074218-.746094 3.804688-4.082031 6.546875-7.957031 6.546875zm0 0"/><path d="m352.011719 16.019531c-2.117188-.03125-4.148438-.859375-5.679688-2.320312-.707031-.777344-1.277343-1.671875-1.679687-2.640625-.410156-.960938-.628906-1.992188-.640625-3.039063.03125-2.117187.859375-4.144531 2.320312-5.679687.378907-.34375.777344-.664063 1.199219-.960938.445312-.300781.929688-.542968 1.4375-.71875.453125-.230468.941406-.394531 1.441406-.480468 1.054688-.2382818 2.148438-.2382818 3.199219 0 .503906.085937.988281.25 1.441406.480468.507813.175782.992188.417969 1.441407.71875.417968.296875.816406.617188 1.199218.960938 1.460938 1.535156 2.289063 3.5625 2.320313 5.679687-.015625 1.046875-.230469 2.078125-.640625 3.039063-.40625.96875-.976563 1.863281-1.679688 2.640625l-1.199218.960937c-.449219.304688-.933594.546875-1.441407.71875-.453125.230469-.9375.394532-1.441406.480469-.527344.09375-1.0625.148437-1.597656.160156zm0 0"/></g><path d="m312.011719 64.019531h-8v-8c0-4.417969-3.582031-8-8-8s-8 3.582031-8 8v8h-8c-4.417969 0-8 3.582031-8 8s3.582031 8 8 8h8v8c0 4.417969 3.582031 8 8 8s8-3.582031 8-8v-8h8c4.417969 0 8-3.582031 8-8s-3.582031-8-8-8zm0 0" fill="#ff9811"/><path d="m56.011719 144.019531h-8v-8c0-4.417969-3.582031-8-8-8s-8 3.582031-8 8v8h-8c-4.417969 0-8 3.582031-8 8s3.582031 8 8 8h8v8c0 4.417969 3.582031 8 8 8s8-3.582031 8-8v-8h8c4.417969 0 8-3.582031 8-8s-3.582031-8-8-8zm0 0" fill="#ff9811"/><path d="m400.011719 264.019531h-8v-8c0-4.417969-3.582031-8-8-8s-8 3.582031-8 8v8h-8c-4.417969 0-8 3.582031-8 8s3.582031 8 8 8h8v8c0 4.417969 3.582031 8 8 8s8-3.582031 8-8v-8h8c4.417969 0 8-3.582031 8-8s-3.582031-8-8-8zm0 0" fill="#ff9811"/></svg>