<svg height="464pt" viewBox="-88 0 464 464" width="464pt" xmlns="http://www.w3.org/2000/svg"><path d="m0 8v16c0 4.417969 3.582031 8 8 8h272c4.417969 0 8-3.582031 8-8v-16c0-4.417969-3.582031-8-8-8h-272c-4.417969 0-8 3.582031-8 8zm0 0" fill="#ffcd00"/><path d="m32 24v-16c0-4.417969 3.582031-8 8-8h-32c-4.417969 0-8 3.582031-8 8v16c0 4.417969 3.582031 8 8 8h32c-4.417969 0-8-3.582031-8-8zm0 0" fill="#ddb200"/><path d="m0 448 8 16h272l8-16v-40h-288zm0 0" fill="#ffde55"/><path d="m32 408h-32v40l8 16h32l-8-16zm0 0" fill="#ebbf00"/><path d="m0 64v40h288v-40l-16-32h-256zm0 0" fill="#ffde55"/><path d="m48 32h-32l-16 32v40h32v-40zm0 0" fill="#ebbf00"/><path d="m0 104h288v304h-288zm0 0" fill="#ffc477"/><path d="m0 104h32v304h-32zm0 0" fill="#ffa733"/></svg>