<svg height="480pt" viewBox="-48 0 480 480.43845" width="480pt" xmlns="http://www.w3.org/2000/svg"><path d="m288.21875 464.4375h-88v-224c0-4.417969-3.582031-8-8-8s-8 3.582031-8 8v224h-88c-4.417969 0-8 3.582031-8 8s3.582031 8 8 8h192c4.417969 0 8-3.582031 8-8s-3.582031-8-8-8zm0 0" fill="#acabb1"/><path d="m72.21875 128.4375h104.214844c14.0625-10.667969 33.507812-10.667969 47.570312 0h40.214844c-8.660156.035156-17.09375-2.773438-24-8-10.109375-7.546875-16.042969-19.441406-15.996094-32.058594.046875-12.617187 6.066406-24.464844 16.230469-31.941406h-240.234375zm0 0" fill="#e6e7e8"/><path d="m.21875 56.4375 72 72h32l-72-72zm0 0" fill="#bcbec0"/><path d="m72.21875 128.4375 114.34375 114.34375c3.125 3.125 8.1875 3.125 11.3125 0l114.34375-114.34375zm0 0" fill="#ffde55"/><path d="m104.21875 128.4375h-32l114.34375 114.34375c3.125 3.125 8.1875 3.125 11.3125 0l10.34375-10.34375zm0 0" fill="#ebbf00"/><path d="m304.21875 88.4375c-.011719 12.589844-5.9375 24.4375-16 32-6.90625 5.226562-15.339844 8.035156-24 8h48l72-72h-96.230469c10.183594 7.488281 16.207031 19.363281 16.230469 32zm0 0" fill="#e6e7e8"/><path d="m168.546875 192.765625c-3.238281.003906-6.160156-1.945313-7.398437-4.941406-1.238282-2.992188-.550782-6.433594 1.742187-8.722657l16.082031-16.070312c2.007813-2.082031 4.980469-2.914062 7.777344-2.183594 2.796875.734375 4.984375 2.917969 5.714844 5.714844.730468 2.796875-.101563 5.769531-2.179688 7.78125l-16.082031 16.078125c-1.5 1.5-3.535156 2.34375-5.65625 2.34375zm0 0" fill="#acabb1"/><path d="m296.164062 64.4375c-3.234374 0-6.152343-1.949219-7.390624-4.9375-1.238282-2.988281-.554688-6.429688 1.734374-8.71875l48-48c1.953126-2.269531 5.015626-3.257812 7.929688-2.5625 2.914062.699219 5.191406 2.96875 5.90625 5.878906.710938 2.910156-.261719 5.976563-2.523438 7.941406l-48 48c-1.492187 1.519532-3.527343 2.382813-5.65625 2.398438zm0 0" fill="#acabb1"/><path d="m240.003906 112.4375c-14.875-10.96875-35.339844-10.285156-49.449218 1.652344-14.109376 11.9375-18.171876 32.003906-9.820313 48.492187 8.355469 16.484375 26.941406 25.074219 44.914063 20.757813 17.96875-4.320313 30.621093-20.417969 30.570312-38.902344.003906-12.640625-6.019531-24.523438-16.214844-32zm0 0" fill="#cd2a00"/><path d="m208.609375 168.695312c-6.597656-8.433593-9.488281-19.183593-8.015625-29.789062 1.476562-10.605469 7.191406-20.15625 15.839844-26.46875 3.570312-2.648438 7.550781-4.691406 11.785156-6.046875-3.871094-1.28125-7.921875-1.9375-12-1.953125-15.875-.234375-30.386719 8.945312-36.976562 23.390625-6.59375 14.445313-4.015626 31.421875 6.5625 43.261719 10.582031 11.835937 27.164062 16.296875 42.253906 11.363281-7.722656-2.519531-14.5-7.316406-19.449219-13.757813zm0 0" fill="#ab2300"/><path d="m200.21875 144.4375c-2.128906.023438-4.175781-.8125-5.679688-2.316406-1.503906-1.507813-2.339843-3.554688-2.320312-5.683594.011719-1.042969.230469-2.078125.640625-3.039062.40625-.96875.972656-1.863282 1.679687-2.640626 3.207032-2.960937 8.152344-2.960937 11.359376 0 .707031.777344 1.273437 1.671876 1.679687 2.640626.410156.960937.628906 1.996093.640625 3.039062.023438 2.128906-.8125 4.175781-2.320312 5.683594-1.503907 1.503906-3.550782 2.339844-5.679688 2.316406zm0 0" fill="#f1f2f2"/><path d="m287.988281 56.4375c-12.121093-8.953125-28.242187-10.335938-41.710937-3.578125-13.464844 6.757813-21.992188 20.511719-22.058594 35.578125.011719 12.589844 5.9375 24.4375 16 32 14.222656 10.667969 33.777344 10.667969 48 0 10.109375-7.546875 16.042969-19.441406 15.996094-32.058594-.042969-12.617187-6.066406-24.464844-16.226563-31.941406zm0 0" fill="#cd2a00"/><path d="m264.21875 120.4375c-10.109375-7.546875-16.042969-19.441406-15.996094-32.058594.046875-12.617187 6.066406-24.464844 16.230469-31.941406 3.5625-2.644531 7.539063-4.6875 11.765625-6.046875-3.871094-1.28125-7.921875-1.9375-12-1.953125-22.011719.191406-39.808594 17.988281-40 40 .011719 12.589844 5.9375 24.4375 16 32 10.296875 7.761719 23.71875 10.042969 36 6.113281-4.324219-1.328125-8.382812-3.394531-12-6.113281zm0 0" fill="#ab2300"/><path d="m248.21875 88.4375c-2.117188-.027344-4.144531-.855469-5.679688-2.320312-.34375-.378907-.664062-.78125-.960937-1.199219-.300781-.445313-.542969-.929688-.71875-1.441407-.230469-.453124-.394531-.9375-.480469-1.4375-.09375-.527343-.144531-1.0625-.160156-1.601562 0-4.417969 3.582031-8 8-8s8 3.582031 8 8c-.011719.539062-.066406 1.074219-.167969 1.601562-.078125.5-.238281.988282-.472656 1.4375-.175781.511719-.417969.992188-.71875 1.441407l-.960937 1.199219c-1.53125 1.460937-3.5625 2.289062-5.679688 2.320312zm0 0" fill="#f1f2f2"/></svg>