<svg height="480pt" viewBox="-8 0 480 480" width="480pt" xmlns="http://www.w3.org/2000/svg"><path d="m352 464h-112v-200c0-4.417969-3.582031-8-8-8s-8 3.582031-8 8v200h-112c-4.417969 0-8 3.582031-8 8s3.582031 8 8 8h240c4.417969 0 8-3.582031 8-8s-3.582031-8-8-8zm0 0" fill="#acabb1"/><path d="m460.320312 152h-456.648437c19.351563 63.65625 114.175781 112 228.328125 112s208.976562-48.34375 228.328125-112zm0 0" fill="#ffde55"/><path d="m35.671875 152h-32c19.351563 63.65625 114.175781 112 228.328125 112 5.390625 0 10.695312-.207031 16-.425781-106.894531-4.277344-193.894531-50.925781-212.328125-111.574219zm0 0" fill="#ebbf00"/><path d="m460.320312 152c4.871094-15.625 4.898438-32.359375.070313-48h-456.789063c-4.824218 15.640625-4.800781 32.375.070313 48zm0 0" fill="#e6e7e8"/><path d="m35.601562 104h-32c-4.824218 15.640625-4.800781 32.375.070313 48h32c-4.871094-15.625-4.894531-32.359375-.070313-48zm0 0" fill="#bcbec0"/><g fill="#fcedbd"><path d="m112 192c-2.121094-.015625-4.15625-.847656-5.679688-2.320312-1.503906-1.503907-2.339843-3.550782-2.320312-5.679688.03125-2.117188.859375-4.148438 2.320312-5.679688.765626-.722656 1.660157-1.292968 2.640626-1.679687 2.976562-1.253906 6.417968-.589844 8.71875 1.679687l.960937 1.191407c.300781.449219.542969.9375.71875 1.449219.230469.453124.394531.9375.480469 1.4375.089844.53125.144531 1.066406.160156 1.601562.019531 2.128906-.816406 4.175781-2.320312 5.679688-.777344.707031-1.671876 1.273437-2.640626 1.679687-.960937.410156-1.992187.628906-3.039062.640625zm0 0"/><path d="m152 224c-1.046875-.011719-2.078125-.230469-3.039062-.640625-.96875-.40625-1.863282-.972656-2.640626-1.679687-1.503906-1.503907-2.339843-3.550782-2.320312-5.679688.03125-2.117188.859375-4.148438 2.320312-5.679688.75-.742187 1.652344-1.3125 2.640626-1.679687 2.976562-1.253906 6.417968-.589844 8.71875 1.679687 1.460937 1.53125 2.292968 3.5625 2.320312 5.679688.019531 2.128906-.816406 4.175781-2.320312 5.679688-.777344.707031-1.671876 1.273437-2.640626 1.679687-.960937.410156-1.992187.628906-3.039062.640625zm0 0"/><path d="m232 200c-1.046875-.011719-2.078125-.230469-3.039062-.640625-.96875-.40625-1.863282-.972656-2.640626-1.679687-.703124-.777344-1.273437-1.671876-1.679687-2.640626-.855469-1.9375-.855469-4.140624 0-6.078124.40625-.96875.972656-1.863282 1.679687-2.640626 3.207032-2.960937 8.152344-2.960937 11.359376 0 .722656.765626 1.292968 1.660157 1.679687 2.640626.449219.949218.667969 1.988281.640625 3.039062.023438 2.128906-.8125 4.175781-2.320312 5.679688-1.503907 1.507812-3.550782 2.34375-5.679688 2.320312zm0 0"/><path d="m264 240c-2.128906.019531-4.171875-.816406-5.679688-2.320312-.703124-.777344-1.273437-1.671876-1.679687-2.640626-.449219-.949218-.667969-1.988281-.640625-3.039062.03125-2.117188.859375-4.148438 2.320312-5.679688.777344-.707031 1.671876-1.273437 2.640626-1.679687 1.457031-.644531 3.082031-.8125 4.640624-.480469.5.085938.984376.25 1.4375.480469.980469.386719 1.875.957031 2.640626 1.679687 1.460937 1.53125 2.292968 3.5625 2.320312 5.679688.007812 2.125-.828125 4.167969-2.320312 5.679688-1.507813 1.503906-3.550782 2.339843-5.679688 2.320312zm0 0"/><path d="m336 200c-2.675781.027344-5.183594-1.300781-6.671875-3.527344-1.484375-2.226562-1.742187-5.050781-.6875-7.511718.386719-.980469.957031-1.875 1.679687-2.640626 1.921876-1.875 4.644532-2.683593 7.28125-2.160156.5.085938.984376.25 1.4375.480469.511719.175781.996094.417969 1.441407.71875.417969.296875.820312.617187 1.199219.960937.722656.765626 1.292968 1.660157 1.679687 2.640626 1.277344 2.976562.609375 6.429687-1.679687 8.71875-.777344.707031-1.671876 1.273437-2.640626 1.679687-.960937.410156-1.992187.628906-3.039062.640625zm0 0"/></g><path d="m320 80c-2.128906.019531-4.171875-.816406-5.679688-2.320312-.703124-.777344-1.273437-1.671876-1.679687-2.640626-.449219-.949218-.667969-1.988281-.640625-3.039062.03125-2.117188.859375-4.148438 2.320312-5.679688.390626-.363281.820313-.6875 1.28125-.960937.40625-.316406.867188-.558594 1.359376-.71875.476562-.246094.988281-.40625 1.519531-.480469 2.609375-.523437 5.308593.285156 7.199219 2.160156l.960937 1.191407c.300781.449219.542969.9375.71875 1.449219.230469.453124.394531.9375.480469 1.4375.09375.53125.148437 1.066406.160156 1.601562.027344 1.050781-.191406 2.089844-.640625 3.039062-.40625.96875-.976563 1.863282-1.679687 2.640626-.777344.707031-1.671876 1.273437-2.640626 1.679687-.960937.410156-1.992187.628906-3.039062.640625zm0 0" fill="#ffb655"/><path d="m240 40c-2.128906.019531-4.171875-.816406-5.679688-2.320312-.703124-.777344-1.273437-1.671876-1.679687-2.640626-.851563-1.9375-.851563-4.140624 0-6.078124.386719-.980469.957031-1.875 1.679687-2.640626 2.300782-2.269531 5.742188-2.933593 8.71875-1.679687 2.011719.726563 3.59375 2.308594 4.320313 4.320313.855469 1.9375.855469 4.140624 0 6.078124-.40625.96875-.976563 1.863282-1.679687 2.640626-.777344.707031-1.671876 1.273437-2.640626 1.679687-.960937.410156-1.992187.628906-3.039062.640625zm0 0" fill="#ffb655"/><path d="m64 48c-1.046875-.011719-2.078125-.230469-3.039062-.640625-.96875-.40625-1.863282-.972656-2.640626-1.679687-2.289062-2.289063-2.957031-5.742188-1.679687-8.71875.386719-.980469.957031-1.875 1.679687-2.640626.390626-.363281.820313-.6875 1.28125-.960937.40625-.316406.867188-.558594 1.359376-.71875.476562-.246094.988281-.40625 1.519531-.480469 2.609375-.523437 5.308593.285156 7.199219 2.160156.722656.765626 1.292968 1.660157 1.679687 2.640626 1.277344 2.976562.609375 6.429687-1.679687 8.71875-.777344.707031-1.671876 1.273437-2.640626 1.679687-.960937.410156-1.992187.628906-3.039062.640625zm0 0" fill="#ffb655"/><path d="m168 48h-8v-8c0-4.417969-3.582031-8-8-8s-8 3.582031-8 8v8h-8c-4.417969 0-8 3.582031-8 8s3.582031 8 8 8h8v8c0 4.417969 3.582031 8 8 8s8-3.582031 8-8v-8h8c4.417969 0 8-3.582031 8-8s-3.582031-8-8-8zm0 0" fill="#ff9811"/><path d="m408 16h-8v-8c0-4.417969-3.582031-8-8-8s-8 3.582031-8 8v8h-8c-4.417969 0-8 3.582031-8 8s3.582031 8 8 8h8v8c0 4.417969 3.582031 8 8 8s8-3.582031 8-8v-8h8c4.417969 0 8-3.582031 8-8s-3.582031-8-8-8zm0 0" fill="#ff9811"/></svg>