<svg height="461pt" viewBox="-94 0 461 461.28001" width="461pt" xmlns="http://www.w3.org/2000/svg"><path d="m22.21875 413.28125h227.839844l18.121094-256h-264.039063zm201.921875-24h-64v-64h64zm-32.578125-175.425781 32 55.425781-55.421875 32-32-55.425781zm-111.421875 175.425781-32-55.425781 55.421875-32 32 55.425781zm-40-192h64v64h-64zm0 0" fill="#ffe477"/><path d="m48.140625 333.855469.4375-.253907-5.117187-72.320312h-3.320313v-46.953125l-4.039063-57.046875h-32l18.117188 256h32l-5.558594-78.519531zm0 0" fill="#ffd422"/><path d="m245.339844 101.28125c-11.734375 20.554688-32.007813 34.824219-55.320313 38.9375-23.308593 4.113281-47.242187-2.359375-65.304687-17.660156l11.585937-13.796875 6.238281-7.480469h-142.398437l3.960937 56h264.078126l3.960937-56zm0 0" fill="#e6e7e8"/><path d="m.140625 101.28125 3.960937 56h32l-3.960937-56zm0 0" fill="#bcbec0"/><path d="m23.660156 453.761719c.253906 4.226562 3.761719 7.527343 8 7.519531h208.960938c4.238281.007812 7.746094-3.292969 8-7.519531l1.4375-40.480469h-227.839844zm0 0" fill="#d1d3d4"/><path d="m55.660156 453.761719-1.441406-40.480469h-32l1.441406 40.480469c.253906 4.226562 3.761719 7.527343 8 7.519531h32c-4.238281.007812-7.746094-3.292969-8-7.519531zm0 0" fill="#a7a9ac"/><path d="m160.140625 325.28125h64v64h-64zm0 0" fill="#e6e7e8"/><path d="m160.140625 325.28125h24v64h-24zm0 0" fill="#bcbec0"/><path d="m40.140625 197.28125h64v64h-64zm0 0" fill="#e6e7e8"/><path d="m40.140625 197.28125h24v64h-24zm0 0" fill="#bcbec0"/><path d="m136.136719 245.855469 55.425781-32 32 55.425781-55.425781 32zm0 0" fill="#e6e7e8"/><path d="m167.066406 241.855469 30.496094-17.597657-6-10.402343-55.421875 32 32 55.425781 18-10.402344-22-38.09375c-2.210937-3.828125-.898437-8.71875 2.925781-10.929687zm0 0" fill="#bcbec0"/><path d="m48.144531 333.859375 55.425781-32 32 55.425781-55.425781 32zm0 0" fill="#e6e7e8"/><path d="m79.066406 329.855469 30.496094-17.597657-6-10.402343-55.421875 32 32 55.425781 18-10.402344-22-38.09375c-2.210937-3.828125-.898437-8.71875 2.925781-10.929687zm0 0" fill="#bcbec0"/><path d="m227.5625 0-51.421875 61.28125 39.839844-47.480469c16.910156 23.769531 15.648437 55.960938-3.074219 78.335938-2.894531 3.378906-6.132812 6.441406-9.671875 9.144531-19.101563 14.949219-45.003906 17.84375-66.933594 7.480469l-11.585937 13.796875c33.875 28.015625 84.007812 23.449218 112.265625-10.226563 28.253906-33.671875 24.050781-83.832031-9.417969-112.332031zm0 0" fill="#c2fb3b"/><g fill="#7ed63e"><path d="m227.5625 0-51.421875 61.28125 39.839844-47.480469c3.894531 5.5 6.890625 11.582031 8.878906 18.023438l15.367187-18.320313c-3.683593-4.976562-7.933593-9.507812-12.664062-13.503906zm0 0"/><path d="m239.980469 13.800781-15.121094 18.023438c5.519531 17.4375 3.265625 36.40625-6.179687 52.070312-9.445313 15.664063-25.171876 26.503907-43.171876 29.761719 18.222657 3.542969 37.085938-.96875 51.726563-12.375 3.546875-2.699219 6.800781-5.765625 9.707031-9.144531 18.710938-22.382813 19.960938-54.570313 3.039063-78.335938zm0 0"/><path d="m155.652344 114.296875c-6.707032-.796875-13.238282-2.667969-19.351563-5.535156l-11.585937 13.796875c17.597656 14.777344 40.714844 21.242187 63.425781 17.738281-14.527344-2.160156-28.171875-8.296875-39.425781-17.738281zm0 0"/></g><path d="m176.140625 61.28125-33.570313 40h.007813zm0 0" fill="#bddbff"/><path d="m136.300781 108.761719 6.277344-7.480469h-.007813zm0 0" fill="#bddbff"/><path d="m215.980469 13.800781-39.839844 47.480469-33.5625 40-6.277344 7.480469c21.929688 10.363281 47.832031 7.46875 66.933594-7.480469 3.546875-2.699219 6.800781-5.765625 9.707031-9.144531 18.710938-22.382813 19.960938-54.570313 3.039063-78.335938zm0 0" fill="#f9ed32"/><path d="m168.300781 108.761719 39.839844-47.480469 18.449219-21.984375c-1.632813-9.171875-5.253906-17.875-10.609375-25.496094l-39.839844 47.480469-33.5625 40-6.277344 7.480469c13.59375 6.4375 29.027344 7.871093 43.574219 4.039062-3.980469-.96875-7.855469-2.320312-11.574219-4.039062zm0 0" fill="#ebbf00"/></svg>