<svg height="472pt" viewBox="-52 0 472 472.17994" width="472pt" xmlns="http://www.w3.org/2000/svg"><path d="m90.265625 263.617188 16.566406-61.820313 61.820313 16.5625-16.566406 61.820313zm0 0" fill="#fff"/><path d="m344.488281 424.179688c9.203125-59.359376 23.601563-168.945313 23.601563-232 0-32.160157-1.519532-62.078126-3.601563-88h-212.957031c-2.441406 24.28125-17.402344 45.523437-39.441406 56-22.039063-10.476563-37-31.71875-39.441406-56h-68.957032c-2.082031 25.921874-3.6015622 55.839843-3.6015622 88 0 63.054687 14.3984372 172.640624 23.5664062 232zm-152.398437-32-61.816406-16.566407 16.558593-61.816406 61.824219 16.566406zm112 0h-64v-64h64zm-40.574219-175.425782 32 55.425782-55.425781 32-32-55.425782zm-156.683594-14.972656 61.824219 16.566406-16.566406 61.832032-61.816406-16.566407zm0 0" fill="#f072ae"/><path d="m35.691406 104.179688h-32c-2.082031 25.921874-3.6015622 55.839843-3.6015622 88 0 63.054687 14.3984372 172.640624 23.5664062 232h32c-9.167969-59.359376-23.566406-168.945313-23.566406-232 0-32.160157 1.519531-62.078126 3.601562-88zm0 0" fill="#ea348b"/><path d="m144.089844 160.179688c22.039062-10.476563 37-31.71875 39.441406-56h-32c-2.097656 17.5625-10.414062 33.789062-23.441406 45.753906 4.703125 4.3125 10.113281 7.78125 16 10.246094zm0 0" fill="#ea348b"/><path d="m344.488281 424.179688h-320.796875c2.460938 15.953124 4.550782 28.3125 5.871094 35.121093 1.441406 7.496094 8.011719 12.90625 15.648438 12.878907h277.757812c7.648438.042968 14.238281-5.371094 15.679688-12.878907 1.320312-6.808593 3.410156-19.199219 5.875-35.121093zm0 0" fill="#d1d3d4"/><path d="m61.53125 459.300781c-1.320312-6.808593-3.410156-19.199219-5.875-35.121093h-32c2.464844 15.953124 4.554688 28.3125 5.875 35.121093 1.441406 7.507813 8.03125 12.921875 15.679688 12.878907h32c-7.648438.042968-14.238282-5.371094-15.679688-12.878907zm0 0" fill="#a7a9ac"/><path d="m364.488281 104.179688c-4.636719-57.039063-12.078125-94.878907-12.078125-96h-336.640625c0 1.121093-7.441406 38.960937-12.078125 96h68.957032c-.382813-2.648438-.570313-5.324219-.558594-8 .121094-25.257813 16.148437-47.695313 40-56 .144531.054687.265625.136718.40625.191406 23.644531 8.394531 39.480468 30.71875 39.59375 55.808594.011718 2.675781-.175782 5.351562-.558594 8zm0 0" fill="#e6e7e8"/><path d="m15.769531 8.179688c0 1.121093-7.441406 38.960937-12.078125 96h32c4.636719-57.039063 12.078125-94.878907 12.078125-96zm0 0" fill="#bcbec0"/><path d="m144.496094 40.371094c-.140625-.054688-.261719-.136719-.40625-.191406-5.683594 2.296874-11.058594 5.292968-16 8.921874 15.234375 10.808594 24.199218 28.398438 24 47.078126.011718 2.675781-.175782 5.351562-.558594 8h32c.382812-2.648438.570312-5.324219.558594-8-.113282-25.089844-15.949219-47.414063-39.59375-55.808594zm0 0" fill="#bcbec0"/><path d="m112.496094 40.371094c-.140625-.054688-.261719-.136719-.40625-.191406-23.851563 8.304687-39.878906 30.742187-40 56-.011719 2.675781.175781 5.351562.558594 8 2.441406 24.28125 17.402343 45.523437 39.441406 56 22.039062-10.476563 37-31.71875 39.441406-56 .382812-2.648438.570312-5.324219.558594-8-.113282-25.089844-15.949219-47.414063-39.59375-55.808594zm0 0" fill="#91dc5a"/><path d="m96.648438 104.179688c-.382813-2.648438-.570313-5.324219-.558594-8-.125-20.347657 10.527344-39.238282 28-49.664063-3.671875-2.378906-7.546875-4.4375-11.574219-6.144531-.160156-.054688-.28125-.136719-.425781-.191406-23.851563 8.304687-39.878906 30.742187-40 56-.011719 2.675781.175781 5.351562.558594 8 2.441406 24.28125 17.402343 45.523437 39.441406 56 4.285156-1.816407 8.320312-4.175782 12-7.023438-15.304688-12.019531-25.179688-29.648438-27.441406-48.976562zm0 0" fill="#5eac24"/><path d="m130.269531 375.613281 16.5625-61.816406 61.820313 16.5625-16.566406 61.820313zm0 0" fill="#e6e7e8"/><path d="m156.339844 367.890625 12.886718-48.09375-22.402343-6-16.558594 61.816406 61.824219 16.566407 1.601562-6-31.699218-8.496094c-4.261719-1.144532-6.792969-5.527344-5.652344-9.792969zm0 0" fill="#bcbec0"/><path d="m90.265625 263.617188 16.566406-61.820313 61.820313 16.5625-16.566406 61.820313zm0 0" fill="#e6e7e8"/><path d="m116.339844 255.890625 12.886718-48.09375-22.402343-6-16.558594 61.816406 61.824219 16.566407 1.601562-6-31.699218-8.496094c-4.261719-1.144532-6.792969-5.527344-5.652344-9.792969zm0 0" fill="#bcbec0"/><path d="m240.089844 328.179688h64v64h-64zm0 0" fill="#e6e7e8"/><path d="m240.089844 328.179688h24v64h-24zm0 0" fill="#bcbec0"/><path d="m208.089844 248.753906 55.421875-32 32 55.425782-55.421875 32zm0 0" fill="#e6e7e8"/><path d="m239.019531 244.753906 30.496094-17.597656-6-10.402344-55.425781 32 32 55.425782 18-10.398438-22-38.097656c-2.207032-3.824219-.898438-8.71875 2.929687-10.929688zm0 0" fill="#bcbec0"/><path d="m112.089844 128.179688c-3.03125 0-5.804688-1.710938-7.160156-4.425782-5.335938-11.132812-8.34375-23.238281-8.839844-35.574218 0-16.503907 14.574218-75.289063 16.238281-81.9375.640625-2.828126 2.757813-5.09375 5.542969-5.914063 2.785156-.824219 5.792968-.070313 7.867187 1.960937 2.070313 2.03125 2.878907 5.027344 2.113281 7.828126-4.386718 17.542968-15.761718 65.75-15.761718 78.0625.496094 9.855468 2.929687 19.515624 7.160156 28.433593 1.234375 2.476563 1.101562 5.421875-.359375 7.777344-1.457031 2.355469-4.03125 3.789063-6.800781 3.789063zm0 0" fill="#4e901e"/><path d="m128.089844 104.179688c-2.121094 0-4.15625-.84375-5.65625-2.34375l-22.640625-22.640626c-3.03125-3.136718-2.988281-8.128906.097656-11.214843 3.085937-3.085938 8.078125-3.128907 11.214844-.097657l22.640625 22.640626c2.289062 2.289062 2.972656 5.730468 1.734375 8.71875-1.238281 2.988281-4.15625 4.9375-7.390625 4.9375zm0 0" fill="#4e901e"/><path d="m88.089844 112.179688c-3.234375 0-6.152344-1.949219-7.390625-4.9375-1.238281-2.988282-.550781-6.429688 1.734375-8.71875l16-16c3.140625-3.03125 8.128906-2.988282 11.214844.097656 3.085937 3.085937 3.128906 8.074218.097656 11.214844l-16 16c-1.5 1.5-3.535156 2.34375-5.65625 2.34375zm0 0" fill="#4e901e"/><g fill="#f7afd1"><path d="m48.089844 264.179688c-2.675782.027343-5.1875-1.300782-6.671875-3.527344-1.484375-2.226563-1.742188-5.050782-.6875-7.511719.386719-.980469.957031-1.875 1.679687-2.640625 3.207032-2.960938 8.152344-2.960938 11.359375 0 .722657.765625 1.292969 1.660156 1.679688 2.640625 1.054687 2.460937.796875 5.285156-.6875 7.511719-1.484375 2.226562-3.996094 3.554687-6.671875 3.527344zm0 0"/><path d="m80.089844 184.179688c-1.046875-.011719-2.078125-.230469-3.039063-.640626-.96875-.40625-1.863281-.972656-2.640625-1.679687-1.503906-1.503906-2.339844-3.550781-2.320312-5.679687.03125-2.117188.859375-4.148438 2.320312-5.679688.777344-.707031 1.671875-1.273438 2.640625-1.679688 1.457031-.644531 3.082031-.8125 4.640625-.480468.5.085937.984375.25 1.4375.480468.511719.175782.996094.417969 1.441406.71875.417969.296876.820313.617188 1.199219.960938 1.460938 1.53125 2.289063 3.5625 2.320313 5.679688-.011719 1.046874-.230469 2.078124-.640625 3.039062-.40625.96875-.976563 1.863281-1.679688 2.640625-.777343.707031-1.671875 1.273437-2.640625 1.679687-.960937.410157-1.992187.628907-3.039062.640626zm0 0"/><path d="m208.089844 200.179688c-1.046875-.011719-2.078125-.230469-3.039063-.640626-.96875-.40625-1.863281-.972656-2.640625-1.679687-2.289062-2.289063-2.957031-5.742187-1.679687-8.71875.726562-2.011719 2.308593-3.59375 4.320312-4.320313 2.976563-1.253906 6.417969-.589843 8.71875 1.679688.722657.765625 1.292969 1.660156 1.679688 2.640625 1.277343 2.976563.609375 6.429687-1.679688 8.71875-.777343.707031-1.671875 1.273437-2.640625 1.679687-.960937.410157-1.992187.628907-3.039062.640626zm0 0"/><path d="m80.089844 344.179688c-2.128906.023437-4.175782-.8125-5.679688-2.320313-1.507812-1.503906-2.339844-3.550781-2.320312-5.679687 0-4.417969 3.582031-8 8-8 4.417968 0 8 3.582031 8 8 .023437 2.128906-.8125 4.175781-2.320313 5.679687-1.503906 1.507813-3.550781 2.34375-5.679687 2.320313zm0 0"/><path d="m328.089844 240.179688c-1.039063.011718-2.074219-.175782-3.039063-.558594-.957031-.464844-1.84375-1.058594-2.640625-1.761719-1.503906-1.503906-2.339844-3.550781-2.320312-5.679687.03125-2.117188.859375-4.148438 2.320312-5.679688 3.1875-3.011719 8.171875-3.011719 11.359375 0 1.460938 1.53125 2.289063 3.5625 2.320313 5.679688.023437 2.128906-.8125 4.175781-2.320313 5.679687-1.503906 1.507813-3.550781 2.34375-5.679687 2.320313zm0 0"/><path d="m288.089844 160.179688c-2.128906.019531-4.171875-.816407-5.679688-2.320313-.703125-.777344-1.273437-1.671875-1.679687-2.640625-.851563-1.9375-.851563-4.140625 0-6.078125.386719-.980469.957031-1.875 1.679687-2.640625 2.300782-2.269531 5.742188-2.933594 8.71875-1.679688.96875.40625 1.863282.972657 2.640625 1.679688.722657.765625 1.292969 1.660156 1.679688 2.640625.855469 1.9375.855469 4.140625 0 6.078125-.40625.96875-.976563 1.863281-1.679688 2.640625-.796875.703125-1.683593 1.296875-2.640625 1.761719-.964844.382812-2 .570312-3.039062.558594zm0 0"/></g></svg>