<svg height="464pt" viewBox="-96 0 464 464" width="464pt" xmlns="http://www.w3.org/2000/svg"><path d="m0 0h272v64h-272zm0 0" fill="#e6e7e8"/><path d="m0 0h32v64h-32zm0 0" fill="#bcbec0"/><path d="m0 416 24 48h224l24-48v-352h-272zm168-192 82.28125 98.054688c-27.078125 22.722656-67.449219 19.191406-90.167969-7.886719-22.722656-27.078125-19.191406-67.445313 7.886719-90.167969zm-38.976562 185.136719c-22.71875 27.074219-63.082032 30.605469-90.160157 7.886719l82.273438-98.046876c27.074219 22.71875 30.605469 63.082032 7.886719 90.160157zm-15.886719-258.160157c26.625 22.835938 29.90625 62.847657 7.359375 89.71875-22.546875 26.871094-62.519532 30.585938-89.632813 8.328126zm0 0" fill="#ff7956"/><path d="m32 249.886719c-.375-.292969-.800781-.550781-1.136719-.863281l1.136719-1.351563v-183.671875h-32v352l24 48h32l-24-48zm0 0" fill="#ff5023"/><path d="m168 224c-27.078125 22.722656-30.609375 63.089844-7.886719 90.167969 22.71875 27.078125 63.089844 30.609375 90.167969 7.886719zm0 0" fill="#f9ed32"/><path d="m121.136719 318.976562-82.273438 98.046876c27.113281 22.257812 67.085938 18.542968 89.632813-8.328126 22.546875-26.871093 19.265625-66.882812-7.359375-89.71875zm0 0" fill="#f9ed32"/><path d="m121.023438 241.136719c22.71875-27.078125 19.1875-67.441407-7.886719-90.160157l-82.273438 98.046876c27.078125 22.71875 67.441407 19.1875 90.160157-7.886719zm0 0" fill="#f9ed32"/><g fill="#ffcd00"><path d="m172.375 311.878906c-3.363281.011719-6.375-2.085937-7.535156-5.246094-1.15625-3.160156-.214844-6.707031 2.359375-8.871093l18.402343-15.433594c3.394532-2.65625 8.28125-2.140625 11.054688 1.160156 2.769531 3.300781 2.425781 8.203125-.777344 11.085938l-18.398437 15.433593c-1.429688 1.199219-3.238281 1.863282-5.105469 1.871094zm0 0"/><path d="m199.054688 331.246094c-1.101563.007812-2.191407-.21875-3.199219-.660156-4.046875-1.761719-5.902344-6.464844-4.152344-10.515626l7.113281-16.414062c1.765625-4.050781 6.484375-5.902344 10.535156-4.136719 4.050782 1.769531 5.902344 6.484375 4.136719 10.535157l-7.089843 16.34375c-1.257813 2.941406-4.144532 4.847656-7.34375 4.847656zm0 0"/><path d="m157.921875 282.222656c-4.046875-.015625-7.445313-3.050781-7.914063-7.066406-.472656-4.019531 2.132813-7.757812 6.0625-8.707031l17.402344-4.160157c2.804688-.730468 5.78125.113282 7.789063 2.203126 2.003906 2.089843 2.722656 5.101562 1.878906 7.875-.847656 2.769531-3.125 4.867187-5.957031 5.480468l-17.390625 4.160156c-.613281.148438-1.242188.21875-1.871094.214844zm0 0"/><path d="m116.800781 406.847656c-1.878906 0-3.695312-.660156-5.136719-1.863281l-18.398437-15.425781c-3.386719-2.835938-3.832031-7.882813-.992187-11.269532 2.835937-3.386718 7.882812-3.832031 11.269531-.992187l18.402343 15.421875c2.574219 2.164062 3.523438 5.707031 2.375 8.867188-1.152343 3.160156-4.15625 5.261718-7.519531 5.261718zm0 0"/><path d="m131.199219 377.191406c-.628907.003906-1.253907-.070312-1.863281-.214844l-17.382813-4.175781c-4.300781-1.027343-6.953125-5.347656-5.925781-9.644531 1.027344-4.300781 5.34375-6.953125 9.644531-5.925781l17.398437 4.160156c3.9375.953125 6.539063 4.691406 6.066407 8.710937-.472657 4.019532-3.875 7.054688-7.921875 7.066407zm0 0"/><path d="m90.070312 426.222656c-3.183593.007813-6.066406-1.878906-7.34375-4.796875l-7.109374-16.417969c-1.769532-4.054687.085937-8.777343 4.144531-10.542968 4.054687-1.769532 8.773437.085937 10.542969 4.144531l7.109374 16.414063c1.082032 2.476562.839844 5.328124-.640624 7.585937-1.480469 2.261719-4 3.617187-6.703126 3.613281zm0 0"/><path d="m108.800781 238.847656c-1.878906 0-3.695312-.660156-5.136719-1.863281l-18.398437-15.425781c-3.386719-2.835938-3.832031-7.882813-.992187-11.269532 2.835937-3.386718 7.882812-3.832031 11.269531-.992187l18.402343 15.421875c2.574219 2.164062 3.523438 5.707031 2.375 8.867188-1.152343 3.160156-4.15625 5.261718-7.519531 5.261718zm0 0"/><path d="m123.199219 209.191406c-.628907.003906-1.253907-.070312-1.863281-.214844l-17.382813-4.175781c-4.300781-1.027343-6.953125-5.347656-5.925781-9.644531 1.027344-4.300781 5.34375-6.953125 9.644531-5.925781l17.398437 4.160156c3.9375.953125 6.539063 4.691406 6.066407 8.710937-.472657 4.019532-3.875 7.054688-7.921875 7.066407zm0 0"/><path d="m82.070312 258.222656c-3.183593.007813-6.066406-1.878906-7.34375-4.796875l-7.109374-16.417969c-1.769532-4.054687.085937-8.777343 4.144531-10.542968 4.054687-1.769532 8.773437.085937 10.542969 4.144531l7.109374 16.414063c1.082032 2.476562.839844 5.328124-.640624 7.585937-1.480469 2.261719-4 3.617187-6.703126 3.613281zm0 0"/></g><path d="m216 128c-1.046875-.011719-2.078125-.230469-3.039062-.640625-.96875-.40625-1.863282-.972656-2.640626-1.679687-.703124-.777344-1.273437-1.671876-1.679687-2.640626-.449219-.949218-.667969-1.988281-.640625-3.039062.011719-1.046875.230469-2.078125.640625-3.039062.386719-.980469.957031-1.875 1.679687-2.640626 3.207032-2.960937 8.152344-2.960937 11.359376 0 .707031.777344 1.273437 1.671876 1.679687 2.640626.855469 1.9375.855469 4.140624 0 6.078124-.726563 2.011719-2.308594 3.59375-4.320313 4.320313-.960937.410156-1.992187.628906-3.039062.640625zm0 0" fill="#ffbcab"/><path d="m224 216c-1.046875-.011719-2.078125-.230469-3.039062-.640625-.96875-.40625-1.863282-.972656-2.640626-1.679687-2.289062-2.289063-2.957031-5.742188-1.679687-8.71875.40625-.96875.972656-1.863282 1.679687-2.640626 3.207032-2.960937 8.152344-2.960937 11.359376 0 .707031.777344 1.273437 1.671876 1.679687 2.640626 1.277344 2.976562.609375 6.429687-1.679687 8.71875-.777344.703124-1.671876 1.273437-2.640626 1.679687-.960937.410156-1.992187.628906-3.039062.640625zm0 0" fill="#ffbcab"/><path d="m168 152c-2.128906.019531-4.175781-.816406-5.679688-2.320312-.703124-.777344-1.273437-1.671876-1.679687-2.640626-.851563-1.9375-.851563-4.140624 0-6.078124.40625-.96875.972656-1.863282 1.679687-2.640626 3.207032-2.960937 8.152344-2.960937 11.359376 0 .707031.777344 1.273437 1.671876 1.679687 2.640626.855469 1.9375.855469 4.140624 0 6.078124-.40625.96875-.976563 1.863282-1.679687 2.640626-1.507813 1.503906-3.550782 2.339843-5.679688 2.320312zm0 0" fill="#ffbcab"/><path d="m88 112c-2.128906.023438-4.175781-.8125-5.679688-2.320312-1.507812-1.503907-2.34375-3.550782-2.320312-5.679688-.027344-1.050781.191406-2.089844.640625-3.039062.386719-.980469.957031-1.875 1.679687-2.640626 3.207032-2.960937 8.152344-2.960937 11.359376 0 .722656.765626 1.292968 1.660157 1.679687 2.640626 1.277344 2.976562.609375 6.429687-1.679687 8.71875-.777344.703124-1.671876 1.273437-2.640626 1.679687-.960937.410156-1.992187.628906-3.039062.640625zm0 0" fill="#ffbcab"/><path d="m48 160c-2.128906.023438-4.175781-.8125-5.679688-2.320312-1.507812-1.503907-2.34375-3.550782-2.320312-5.679688-.027344-1.050781.191406-2.089844.640625-3.039062.40625-.96875.972656-1.863282 1.679687-2.640626.378907-.34375.777344-.664062 1.191407-.960937.449219-.300781.9375-.542969 1.449219-.71875.453124-.230469.9375-.394531 1.4375-.480469 1.023437-.238281 2.089843-.238281 3.113281 0 .53125.074219 1.050781.238282 1.527343.480469.511719.175781.996094.417969 1.441407.71875.417969.296875.816406.617187 1.199219.960937.707031.777344 1.273437 1.671876 1.679687 2.640626 1.054687 2.460937.796875 5.285156-.6875 7.511718-1.484375 2.226563-3.996094 3.554688-6.671875 3.527344zm0 0" fill="#ffbcab"/><path d="m48 320c-2.128906.023438-4.175781-.8125-5.679688-2.320312-1.507812-1.503907-2.34375-3.550782-2.320312-5.679688-.027344-1.050781.191406-2.089844.640625-3.039062.40625-.96875.972656-1.863282 1.679687-2.640626.378907-.34375.777344-.664062 1.191407-.960937.449219-.300781.9375-.542969 1.449219-.71875.453124-.230469.9375-.394531 1.4375-.480469 1.023437-.238281 2.089843-.238281 3.113281 0 .53125.074219 1.050781.238282 1.527343.480469.511719.175781.996094.417969 1.441407.71875.417969.296875.816406.617187 1.199219.960937.707031.777344 1.273437 1.671876 1.679687 2.640626 1.054687 2.460937.796875 5.285156-.6875 7.511718-1.484375 2.226563-3.996094 3.554688-6.671875 3.527344zm0 0" fill="#ffbcab"/><path d="m176 432c-2.128906.023438-4.175781-.8125-5.679688-2.320312-1.507812-1.503907-2.34375-3.550782-2.320312-5.679688-.027344-1.050781.191406-2.089844.640625-3.039062.386719-.980469.957031-1.875 1.679687-2.640626 3.207032-2.960937 8.152344-2.960937 11.359376 0 .707031.777344 1.273437 1.671876 1.679687 2.640626.855469 1.9375.855469 4.140624 0 6.078124-.40625.96875-.976563 1.863282-1.679687 2.640626-1.507813 1.503906-3.550782 2.339843-5.679688 2.320312zm0 0" fill="#ffbcab"/><path d="m216 392c-1.046875-.011719-2.078125-.230469-3.039062-.640625-.96875-.40625-1.863282-.972656-2.640626-1.679687-1.503906-1.503907-2.339843-3.550782-2.320312-5.679688.007812-2.121094.839844-4.160156 2.320312-5.679688 3.207032-2.960937 8.152344-2.960937 11.359376 0l.960937 1.191407c.296875.453125.539063.9375.71875 1.449219.234375.449218.390625.9375.472656 1.4375.097657.53125.152344 1.066406.167969 1.601562.019531 2.128906-.816406 4.171875-2.320312 5.679688-.777344.703124-1.671876 1.273437-2.640626 1.679687-.960937.410156-1.992187.628906-3.039062.640625zm0 0" fill="#ffbcab"/></svg>