<svg height="472pt" viewBox="-8 0 472 472" width="472pt" xmlns="http://www.w3.org/2000/svg"><path d="m384 112c-4.417969 0-8-3.582031-8-8v-56c0-4.417969 3.582031-8 8-8s8 3.582031 8 8v56c0 4.417969-3.582031 8-8 8zm0 0" fill="#898890"/><path d="m320 456h-112v-128c0-4.417969-3.582031-8-8-8s-8 3.582031-8 8v128h-112c-4.417969 0-8 3.582031-8 8s3.582031 8 8 8h240c4.417969 0 8-3.582031 8-8s-3.582031-8-8-8zm0 0" fill="#acabb1"/><path d="m400 192c.011719-8.136719-1.203125-16.226562-3.601562-24h-392.796876c-2.398437 7.773438-3.6093745 15.863281-3.601562 24 .0429688 8.074219.949219 16.121094 2.703125 24h394.722656c1.707031-7.886719 2.570313-15.929688 2.574219-24zm0 0" fill="#e6e7e8"/><path d="m35.601562 168h-32c-2.398437 7.773438-3.6093745 15.863281-3.601562 24 .0429688 8.074219.949219 16.121094 2.703125 24h32c-1.753906-7.878906-2.660156-15.925781-2.703125-24-.007812-8.136719 1.203125-16.226562 3.601562-24zm0 0" fill="#bcbec0"/><path d="m2.703125 216c13.816406 63.648438 83.136719 112 197.296875 112 94.078125 0 157.839844-32.800781 185.039062-80 5.789063-9.949219 9.96875-20.746094 12.386719-32zm0 0" fill="#ff6243"/><path d="m34.703125 216h-32c13.816406 63.648438 83.136719 112 197.296875 112 5.9375 0 11.746094-.128906 17.433594-.390625-105.433594-3.96875-169.511719-50.738281-182.730469-111.609375zm0 0" fill="#cd2a00"/><path d="m384 104c-36.664062-.007812-67.472656 27.558594-71.519531 64h83.917969c2.398437 7.773438 3.613281 15.863281 3.601562 24-.003906 8.070312-.867188 16.113281-2.574219 24-2.417969 11.253906-6.597656 22.050781-12.386719 32 39.765626-.289062 71.769532-32.753906 71.480469-72.519531-.285156-39.765625-32.753906-71.769531-72.519531-71.480469zm0 0" fill="#f9ed32"/><path d="m400 105.855469c-19.988281-4.628907-41-.480469-57.730469 11.398437-16.726562 11.878906-27.570312 30.347656-29.789062 50.746094h32c3.394531-30.417969 25.671875-55.355469 55.519531-62.144531zm0 0" fill="#ffcd00"/><path d="m385.039062 248c13.367188-.195312 26.410157-4.128906 37.65625-11.351562 2.917969-6.644532 5.171876-13.5625 6.730469-20.648438 1.707031-7.886719 2.570313-15.929688 2.574219-24 .003906-5.878906-.625-11.742188-1.878906-17.488281-.769532-3.757813-4.054688-6.46875-7.890625-6.511719h-25.832031c2.398437 7.773438 3.613281 15.863281 3.601562 24-.003906 8.070312-.867188 16.113281-2.574219 24-2.417969 11.253906-6.597656 22.050781-12.386719 32zm0 0" fill="#ffcd00"/><path d="m384 0-64 48h128zm0 0" fill="#64c37d"/><path d="m384 0-64 48h32l48-36zm0 0" fill="#00665a"/><g fill="#ffbcab"><path d="m88 264c-1.046875-.011719-2.078125-.230469-3.039062-.640625-.96875-.40625-1.863282-.972656-2.640626-1.679687-1.503906-1.503907-2.339843-3.550782-2.320312-5.679688 0-4.417969 3.582031-8 8-8s8 3.582031 8 8c.023438 2.128906-.8125 4.175781-2.320312 5.679688-1.503907 1.507812-3.550782 2.34375-5.679688 2.320312zm0 0"/><path d="m144 296c-2.128906.023438-4.175781-.8125-5.679688-2.320312-1.507812-1.503907-2.34375-3.550782-2.320312-5.679688.03125-2.117188.859375-4.148438 2.320312-5.679688.390626-.363281.820313-.6875 1.28125-.960937.40625-.316406.867188-.558594 1.359376-.71875.453124-.230469.9375-.394531 1.4375-.480469 2.636718-.523437 5.359374.285156 7.28125 2.160156 1.460937 1.53125 2.289062 3.5625 2.320312 5.679688.019531 2.128906-.816406 4.175781-2.320312 5.679688-.773438.730468-1.667969 1.324218-2.640626 1.761718-.964843.382813-2 .570313-3.039062.558594zm0 0"/><path d="m200 256c-2.675781.027344-5.1875-1.300781-6.671875-3.527344-1.484375-2.226562-1.742187-5.050781-.6875-7.511718.386719-.980469.957031-1.875 1.679687-2.640626 2.289063-2.308593 5.746094-3 8.746094-1.753906 3.003906 1.246094 4.953125 4.183594 4.933594 7.433594.019531 2.128906-.816406 4.175781-2.320312 5.679688-.773438.730468-1.667969 1.324218-2.640626 1.761718-.964843.382813-2 .570313-3.039062.558594zm0 0"/><path d="m216 304c-2.128906.019531-4.171875-.816406-5.679688-2.320312-.703124-.777344-1.273437-1.671876-1.679687-2.640626-.851563-1.9375-.851563-4.140624 0-6.078124.726563-2.011719 2.308594-3.59375 4.320313-4.320313 1.945312-.808594 4.132812-.808594 6.078124 0 .96875.40625 1.863282.972656 2.640626 1.679687.722656.765626 1.292968 1.660157 1.679687 2.640626.855469 1.9375.855469 4.140624 0 6.078124-.40625.96875-.976563 1.863282-1.679687 2.640626-1.507813 1.503906-3.550782 2.339843-5.679688 2.320312zm0 0"/><path d="m280 256c-2.128906.023438-4.175781-.8125-5.679688-2.320312-1.507812-1.503907-2.34375-3.550782-2.320312-5.679688 0-4.417969 3.582031-8 8-8s8 3.582031 8 8c.023438 2.128906-.8125 4.175781-2.320312 5.679688-1.503907 1.507812-3.550782 2.34375-5.679688 2.320312zm0 0"/><path d="m312 280c-2.128906.023438-4.175781-.8125-5.679688-2.320312-1.507812-1.503907-2.34375-3.550782-2.320312-5.679688.03125-2.117188.859375-4.148438 2.320312-5.679688 2.300782-2.269531 5.742188-2.933593 8.71875-1.679687.96875.40625 1.863282.972656 2.640626 1.679687 1.460937 1.53125 2.289062 3.5625 2.320312 5.679688.023438 2.128906-.8125 4.175781-2.320312 5.679688-1.503907 1.507812-3.550782 2.34375-5.679688 2.320312zm0 0"/></g><path d="m264 144c-2.128906.023438-4.175781-.8125-5.679688-2.320312-1.507812-1.503907-2.34375-3.550782-2.320312-5.679688.03125-2.117188.859375-4.148438 2.320312-5.679688.75-.742187 1.652344-1.3125 2.640626-1.679687 1.945312-.808594 4.132812-.808594 6.078124 0 .980469.386719 1.875.957031 2.640626 1.679687 1.460937 1.53125 2.289062 3.5625 2.320312 5.679688.023438 2.128906-.8125 4.175781-2.320312 5.679688-1.503907 1.507812-3.550782 2.34375-5.679688 2.320312zm0 0" fill="#ffb655"/><path d="m200 88c-4.390625-.0625-7.933594-3.609375-8-8 .03125-2.117188.859375-4.148438 2.320312-5.679688 3.1875-3.011718 8.171876-3.011718 11.359376 0 1.460937 1.53125 2.289062 3.5625 2.320312 5.679688.035156 2.109375-.804688 4.136719-2.320312 5.601562-1.476563 1.554688-3.535157 2.421876-5.679688 2.398438zm0 0" fill="#ffb655"/><path d="m48 56c-2.144531.023438-4.203125-.84375-5.679688-2.398438-1.449218-1.507812-2.28125-3.507812-2.320312-5.601562.03125-2.117188.859375-4.148438 2.320312-5.679688.378907-.34375.78125-.664062 1.199219-.960937.445313-.300781.929688-.542969 1.441407-.71875.453124-.230469.9375-.394531 1.4375-.480469 2.636718-.523437 5.359374.285156 7.28125 2.160156 1.460937 1.53125 2.289062 3.5625 2.320312 5.679688.027344 1.050781-.191406 2.089844-.640625 3.039062-.390625.953126-.960937 1.824219-1.679687 2.5625-1.476563 1.554688-3.535157 2.421876-5.679688 2.398438zm0 0" fill="#ffb655"/><path d="m128 104h-8v-8c0-4.417969-3.582031-8-8-8s-8 3.582031-8 8v8h-8c-4.417969 0-8 3.582031-8 8s3.582031 8 8 8h8v8c0 4.417969 3.582031 8 8 8s8-3.582031 8-8v-8h8c4.417969 0 8-3.582031 8-8s-3.582031-8-8-8zm0 0" fill="#ff9811"/><path d="m304 72h-8v-8c0-4.417969-3.582031-8-8-8s-8 3.582031-8 8v8h-8c-4.417969 0-8 3.582031-8 8s3.582031 8 8 8h8v8c0 4.417969 3.582031 8 8 8s8-3.582031 8-8v-8h8c4.417969 0 8-3.582031 8-8s-3.582031-8-8-8zm0 0" fill="#ff9811"/></svg>