<svg height="472pt" viewBox="-40 0 472 472" width="472pt" xmlns="http://www.w3.org/2000/svg"><path d="m256 456h-56v-120c0-4.417969-3.582031-8-8-8s-8 3.582031-8 8v120h-56c-4.417969 0-8 3.582031-8 8s3.582031 8 8 8h128c4.417969 0 8-3.582031 8-8s-3.582031-8-8-8zm0 0" fill="#acabb1"/><path d="m108 48h168l12-48h-192zm0 0" fill="#e6e7e8"/><path d="m96 0 12 48h32l-12-48zm0 0" fill="#bcbec0"/><path d="m199.761719 352.953125 76.238281-304.953125h-168l76.242188 304.953125c.890624 3.558594 4.089843 6.054687 7.757812 6.054687s6.867188-2.496093 7.761719-6.054687zm0 0" fill="#44ffe8"/><path d="m140 48h-32l76.242188 304.953125c.890624 3.558594 4.089843 6.054687 7.757812 6.054687s6.867188-2.496093 7.761719-6.054687l8.238281-32.953125zm0 0" fill="#00ddc2"/><path d="m152 96c-2.125.003906-4.164062-.832031-5.679688-2.320312-1.503906-1.503907-2.339843-3.550782-2.320312-5.679688.03125-2.117188.859375-4.148438 2.320312-5.679688.777344-.707031 1.671876-1.273437 2.640626-1.679687 2.980468-1.253906 6.417968-.589844 8.71875 1.679687.722656.765626 1.292968 1.660157 1.679687 2.640626.855469 1.9375.855469 4.140624 0 6.078124-.40625.96875-.972656 1.863282-1.679687 2.640626-.777344.707031-1.671876 1.273437-2.640626 1.679687-.960937.410156-1.992187.628906-3.039062.640625zm0 0" fill="#bdfdff"/><g fill="#ffb655"><path d="m72 176c-2.128906.023438-4.175781-.8125-5.679688-2.320312-1.503906-1.503907-2.339843-3.550782-2.320312-5.679688 0-4.417969 3.582031-8 8-8s8 3.582031 8 8c.023438 2.128906-.8125 4.175781-2.320312 5.679688-1.503907 1.507812-3.550782 2.34375-5.679688 2.320312zm0 0"/><path d="m8 248c-2.675781.027344-5.183594-1.300781-6.667969-3.527344-1.488281-2.226562-1.746093-5.050781-.691406-7.511718.40625-.96875.972656-1.863282 1.679687-2.640626.765626-.722656 1.660157-1.292968 2.640626-1.679687 2.980468-1.253906 6.417968-.589844 8.71875 1.679687 1.460937 1.53125 2.292968 3.5625 2.320312 5.679688.027344 1.050781-.191406 2.089844-.640625 3.039062-.40625.96875-.972656 1.863282-1.679687 2.640626-.777344.707031-1.671876 1.273437-2.640626 1.679687-.960937.410156-1.992187.628906-3.039062.640625zm0 0"/><path d="m272 296c-2.675781.027344-5.183594-1.300781-6.667969-3.527344-1.488281-2.226562-1.746093-5.050781-.691406-7.511718.367187-.988282.941406-1.890626 1.679687-2.640626.777344-.707031 1.671876-1.273437 2.640626-1.679687 2.980468-1.253906 6.417968-.589844 8.71875 1.679687 1.460937 1.53125 2.292968 3.5625 2.320312 5.679688.023438 2.128906-.8125 4.175781-2.320312 5.679688-1.503907 1.507812-3.550782 2.34375-5.679688 2.320312zm0 0"/><path d="m384 152c-2.675781.027344-5.183594-1.300781-6.667969-3.527344-1.488281-2.226562-1.746093-5.050781-.691406-7.511718.386719-.980469.957031-1.875 1.679687-2.640626 3.207032-2.960937 8.152344-2.960937 11.359376 0 .707031.777344 1.273437 1.671876 1.679687 2.640626 1.277344 2.976562.613281 6.429687-1.679687 8.71875-1.515626 1.488281-3.554688 2.324218-5.679688 2.320312zm0 0"/><path d="m312 88c-2.128906-.042969-4.164062-.902344-5.679688-2.398438-1.515624-1.464843-2.355468-3.492187-2.320312-5.601562.011719-1.046875.230469-2.078125.640625-3.039062.726563-2.011719 2.308594-3.59375 4.320313-4.320313 1.945312-.808594 4.132812-.808594 6.078124 0 .980469.386719 1.875.957031 2.640626 1.679687 1.460937 1.53125 2.292968 3.5625 2.320312 5.679688-.0625 4.390625-3.609375 7.9375-8 8zm0 0"/></g><path d="m176 128c-1.042969-.011719-2.078125-.230469-3.039062-.640625-.96875-.40625-1.863282-.972656-2.640626-1.679687-2.289062-2.289063-2.957031-5.742188-1.679687-8.71875.386719-.980469.957031-1.875 1.679687-2.640626 3.207032-2.960937 8.152344-2.960937 11.359376 0 .722656.765626 1.292968 1.660157 1.679687 2.640626 1.054687 2.460937.796875 5.285156-.6875 7.511718-1.484375 2.226563-3.996094 3.554688-6.671875 3.527344zm0 0" fill="#bdfdff"/><path d="m184 232c-1.042969-.011719-2.078125-.230469-3.039062-.640625-.96875-.40625-1.863282-.972656-2.640626-1.679687-2.289062-2.289063-2.957031-5.742188-1.679687-8.71875.386719-.980469.957031-1.875 1.679687-2.640626 3.207032-2.960937 8.152344-2.960937 11.359376 0 .707031.777344 1.273437 1.671876 1.679687 2.640626.855469 1.9375.855469 4.140624 0 6.078124-.40625.96875-.972656 1.863282-1.679687 2.640626-1.503907 1.503906-3.550782 2.339843-5.679688 2.320312zm0 0" fill="#bdfdff"/><path d="m208 168c-2.128906.023438-4.175781-.8125-5.679688-2.320312-1.503906-1.503907-2.339843-3.550782-2.320312-5.679688-.019531-3.25 1.929688-6.1875 4.933594-7.433594 3-1.246094 6.457031-.554687 8.746094 1.753906 1.476562 1.523438 2.308593 3.558594 2.320312 5.679688.023438 2.128906-.8125 4.175781-2.320312 5.679688-1.503907 1.507812-3.550782 2.34375-5.679688 2.320312zm0 0" fill="#bdfdff"/><path d="m232 88c-4.390625-.0625-7.933594-3.609375-8-8-.019531-3.25 1.929688-6.1875 4.933594-7.433594 3-1.246094 6.457031-.554687 8.746094 1.753906.722656.765626 1.292968 1.660157 1.679687 2.640626.410156.960937.628906 1.992187.640625 3.039062.035156 2.109375-.804688 4.136719-2.320312 5.601562-1.515626 1.496094-3.546876 2.355469-5.679688 2.398438zm0 0" fill="#bdfdff"/><path d="m40 64h-8v-8c0-4.417969-3.582031-8-8-8s-8 3.582031-8 8v8h-8c-4.417969 0-8 3.582031-8 8s3.582031 8 8 8h8v8c0 4.417969 3.582031 8 8 8s8-3.582031 8-8v-8h8c4.417969 0 8-3.582031 8-8s-3.582031-8-8-8zm0 0" fill="#ff9811"/><path d="m360 224h-8v-8c0-4.417969-3.582031-8-8-8s-8 3.582031-8 8v8h-8c-4.417969 0-8 3.582031-8 8s3.582031 8 8 8h8v8c0 4.417969 3.582031 8 8 8s8-3.582031 8-8v-8h8c4.417969 0 8-3.582031 8-8s-3.582031-8-8-8zm0 0" fill="#ff9811"/></svg>