<svg height="472pt" viewBox="-140 0 472 472" width="472pt" xmlns="http://www.w3.org/2000/svg"><path d="m160.003906 456h-56v-96c0-4.417969-3.582031-8-8-8-4.417968 0-8 3.582031-8 8v96h-56c-4.417968 0-8 3.582031-8 8s3.582032 8 8 8h128c4.417969 0 8-3.582031 8-8s-3.582031-8-8-8zm0 0" fill="#acabb1"/><path d="m166.5625 0h-141.117188c-12.601562 24.980469-20.339843 52.128906-22.800781 80h186.71875c-2.460937-27.871094-10.199219-55.019531-22.800781-80zm0 0" fill="#e6e7e8"/><path d="m25.445312 0c-12.601562 24.980469-20.339843 52.128906-22.800781 80h32c2.460938-27.871094 10.199219-55.019531 22.800781-80zm0 0" fill="#bcbec0"/><path d="m102.683594 373.984375c27.210937-42.078125 49.730468-87.003906 67.160156-133.984375h-147.679688c17.441407 46.980469 39.976563 91.910156 67.199219 133.984375 1.464844 2.253906 3.972657 3.613281 6.660157 3.613281s5.195312-1.359375 6.660156-3.613281zm0 0" fill="#00e7f0"/><path d="m54.164062 240h-32c17.425782 46.976562 39.941407 91.902344 67.152344 133.976562 1.460938 2.277344 3.984375 3.65625 6.691406 3.65625 2.707032 0 5.230469-1.378906 6.691407-3.65625 2.542969-3.921874 5.703125-8.914062 9.304687-14.816406-23.140625-37.726562-42.515625-77.640625-57.839844-119.160156zm0 0" fill="#00b6bd"/><path d="m2.644531 80c-1.828125 15.933594-2.7109372 31.960938-2.64062475 48 .00781255 10.703125.73046875 21.394531 2.16015575 32h187.679688c1.429688-10.605469 2.152344-21.296875 2.160156-32 .070313-16.039062-.8125-32.066406-2.640625-48zm0 0" fill="#ff7956"/><path d="m34.644531 80h-32c-1.828125 15.933594-2.7109372 31.960938-2.64062475 48 .00781255 10.703125.73046875 21.394531 2.16015575 32h32c-1.429687-10.605469-2.152343-21.296875-2.160156-32-.070312-16.039062.8125-32.066406 2.640625-48zm0 0" fill="#ff5023"/><path d="m22.164062 240h147.679688c9.519531-25.871094 16.222656-52.691406 20-80h-187.679688c3.777344 27.308594 10.480469 54.128906 20 80zm0 0" fill="#ffde55"/><path d="m2.164062 160c3.777344 27.308594 10.480469 54.128906 20 80h32c-9.519531-25.871094-16.222656-52.691406-20-80zm0 0" fill="#ebbf00"/></svg>