<svg height="472pt" viewBox="-107 0 472 472" width="472pt" xmlns="http://www.w3.org/2000/svg"><path d="m41.203125 464c0 4.417969 3.582031 8 8 8h160c4.417969 0 8-3.582031 8-8v-24h-176zm0 0" fill="#d1d3d4"/><path d="m73.203125 464v-24h-32v24c0 4.417969 3.582031 8 8 8h32c-4.417969 0-8-3.582031-8-8zm0 0" fill="#a7a9ac"/><path d="m233.203125 72h-208s-5.183594 27.527344-10.847656 64h229.695312c-5.664062-36.472656-10.847656-64-10.847656-64zm0 0" fill="#e6e7e8"/><path d="m25.203125 72s-5.183594 27.527344-10.847656 64h32c5.664062-36.472656 10.847656-64 10.847656-64zm0 0" fill="#bcbec0"/><path d="m244.050781 136h-229.695312c-8.351563 53.695312-17.730469 126.777344-13.152344 160 2.933594 21.335938 26.625 59.144531 32 80 4 15.617188 8 64 8 64h176s4-48.382812 8-64c5.375-20.855469 29.0625-58.664062 32-80 4.574219-33.222656-4.800781-106.304688-13.152344-160zm0 0" fill="#44ffe8"/><path d="m33.203125 296c-4.578125-33.222656 4.800781-106.304688 13.152344-160h-32c-8.351563 53.695312-17.730469 126.777344-13.152344 160 2.933594 21.335938 26.625 59.144531 32 80 4 15.617188 8 64 8 64h32s-4-48.382812-8-64c-5.375-20.855469-29.066406-58.664062-32-80zm0 0" fill="#00ddc2"/><path d="m177.203125 8c0-4.417969-3.582031-8-8-8s-8 3.582031-8 8v64h16zm0 0" fill="#ff5023"/><path d="m161.203125 72h16v64h-16zm0 0" fill="#ff6243"/><path d="m161.203125 136v272c0 4.417969 3.582031 8 8 8s8-3.582031 8-8v-272zm0 0" fill="#ff7956"/><path d="m201.203125 43.3125 29.390625-29.390625c3.03125-3.140625 2.988281-8.128906-.097656-11.214844-3.085938-3.085937-8.074219-3.128906-11.214844-.097656l-31.734375 31.734375c-1.5 1.5-2.34375 3.535156-2.34375 5.65625v32h16zm0 0" fill="#ff5023"/><path d="m185.203125 72h16v64h-16zm0 0" fill="#ff6243"/><path d="m185.203125 136v272c0 4.417969 3.582031 8 8 8s8-3.582031 8-8v-272zm0 0" fill="#ff7956"/><g fill="#ddfffb"><path d="m225.203125 192c-2.128906.023438-4.175781-.8125-5.679687-2.320312-1.507813-1.503907-2.34375-3.550782-2.320313-5.679688.023437-2.117188.855469-4.148438 2.320313-5.679688 2.300781-2.269531 5.738281-2.933593 8.71875-1.679687.96875.40625 1.859374.976563 2.640624 1.679687 1.460938 1.53125 2.289063 3.5625 2.320313 5.679688.019531 2.128906-.816406 4.175781-2.320313 5.679688-1.503906 1.507812-3.550781 2.34375-5.679687 2.320312zm0 0"/><path d="m233.203125 264c-2.128906.023438-4.175781-.8125-5.679687-2.320312-1.507813-1.503907-2.34375-3.550782-2.320313-5.679688-.019531-3.25 1.929687-6.1875 4.929687-7.433594 3.003907-1.246094 6.460938-.554687 8.75 1.753906.722657.765626 1.292969 1.660157 1.679688 2.640626 1.054688 2.460937.796875 5.285156-.691406 7.511718-1.484375 2.226563-3.992188 3.554688-6.667969 3.527344zm0 0"/><path d="m217.203125 312c-2.128906.019531-4.175781-.816406-5.679687-2.320312-.707032-.777344-1.273438-1.671876-1.679688-2.640626-.855469-1.9375-.855469-4.140624 0-6.078124.40625-.96875.972656-1.863282 1.679688-2.640626 3.175781-2.960937 8.101562-2.960937 11.277343 0 .773438.738282 1.375 1.640626 1.761719 2.640626.855469 1.9375.855469 4.140624 0 6.078124-.40625.988282-1.003906 1.886719-1.761719 2.640626-1.507812 1.449218-3.507812 2.28125-5.597656 2.320312zm0 0"/><path d="m137.203125 312c-1.046875-.011719-2.078125-.230469-3.039063-.640625-.972656-.40625-1.863281-.972656-2.640624-1.679687-.707032-.777344-1.273438-1.671876-1.679688-2.640626-.449219-.949218-.667969-1.988281-.640625-3.039062.011719-1.046875.230469-2.078125.640625-3.039062.386719-.980469.957031-1.875 1.679688-2.640626 3.207031-2.960937 8.152343-2.960937 11.359374 0 .707032.777344 1.273438 1.671876 1.679688 2.640626.855469 1.9375.855469 4.140624 0 6.078124-.40625.96875-.976562 1.863282-1.679688 2.640626-1.507812 1.503906-3.554687 2.339843-5.679687 2.320312zm0 0"/><path d="m121.203125 232c-2.675781.027344-5.1875-1.300781-6.671875-3.527344-1.484375-2.226562-1.742188-5.050781-.6875-7.511718.386719-.980469.957031-1.875 1.679688-2.640626 3.207031-2.960937 8.152343-2.960937 11.359374 0 .722657.765626 1.292969 1.660157 1.679688 2.640626 1.273438 2.976562.609375 6.429687-1.679688 8.71875-.78125.703124-1.671874 1.273437-2.640624 1.679687-.960938.410156-1.996094.628906-3.039063.640625zm0 0"/><path d="m65.203125 272c-1.046875-.011719-2.078125-.230469-3.039063-.640625-.972656-.40625-1.863281-.972656-2.640624-1.679687-1.507813-1.503907-2.34375-3.550782-2.320313-5.679688.023437-2.117188.855469-4.148438 2.320313-5.679688 1.902343-1.855468 4.589843-2.660156 7.199218-2.160156.53125.074219 1.046875.238282 1.527344.480469.492188.160156.953125.402344 1.359375.71875.457031.277344.886719.597656 1.28125.960937 1.457031 1.535157 2.285156 3.5625 2.3125 5.679688.019531 2.128906-.816406 4.175781-2.320313 5.679688-1.503906 1.507812-3.550781 2.34375-5.679687 2.320312zm0 0"/><path d="m97.203125 352c-2.128906.019531-4.175781-.816406-5.679687-2.320312-.703126-.796876-1.296876-1.6875-1.769532-2.640626-.378906-.96875-.566406-2-.550781-3.039062-.027344-1.050781.191406-2.089844.640625-3.039062.40625-.96875.972656-1.863282 1.679688-2.640626 3.207031-2.960937 8.152343-2.960937 11.359374 0 .707032.777344 1.273438 1.671876 1.679688 2.640626.855469 1.9375.855469 4.140624 0 6.078124-.726562 2.011719-2.308594 3.59375-4.320312 4.320313-.960938.410156-1.996094.628906-3.039063.640625zm0 0"/><path d="m81.203125 408c-2.128906.019531-4.175781-.816406-5.679687-2.320312-.707032-.777344-1.273438-1.671876-1.679688-2.640626-.449219-.949218-.667969-1.988281-.640625-3.039062.011719-1.046875.230469-2.078125.640625-3.039062.386719-.980469.957031-1.875 1.679688-2.640626 3.207031-2.960937 8.152343-2.960937 11.359374 0 .707032.777344 1.273438 1.671876 1.679688 2.640626 1.054688 2.460937.796875 5.285156-.691406 7.511718-1.484375 2.226563-3.992188 3.554688-6.667969 3.527344zm0 0"/><path d="m49.203125 184c-2.128906.023438-4.175781-.8125-5.679687-2.320312-1.507813-1.503907-2.34375-3.550782-2.320313-5.679688-.074219-3.257812 1.914063-6.207031 4.960937-7.359375 1.425782-.640625 3.019532-.808594 4.550782-.480469.53125.074219 1.046875.238282 1.527344.480469.507812.175781.992187.417969 1.441406.71875.417968.296875.816406.617187 1.199218.960937 1.460938 1.53125 2.289063 3.5625 2.320313 5.679688.019531 2.128906-.816406 4.175781-2.320313 5.679688-1.503906 1.507812-3.550781 2.34375-5.679687 2.320312zm0 0"/></g></svg>