<svg height="472pt" viewBox="-108 0 472 472" width="472pt" xmlns="http://www.w3.org/2000/svg"><path d="m232 456h-96v-168c0-4.417969-3.582031-8-8-8s-8 3.582031-8 8v168h-96c-4.417969 0-8 3.582031-8 8s3.582031 8 8 8h208c4.417969 0 8-3.582031 8-8s-3.582031-8-8-8zm0 0" fill="#acabb1"/><path d="m248 96 8-96h-256l8 96zm0 0" fill="#e6e7e8"/><path d="m0 0 8 96h32l-8-96zm0 0" fill="#bcbec0"/><path d="m248 96h-240l14.777344 177.328125c.6875 8.292969 7.621094 14.671875 15.941406 14.671875h178.5625c8.320312 0 15.253906-6.378906 15.941406-14.671875zm0 0" fill="#8034ad"/><path d="m54.777344 273.328125-14.777344-177.328125h-32l14.777344 177.328125c.6875 8.292969 7.621094 14.671875 15.941406 14.671875h32c-8.320312 0-15.253906-6.378906-15.941406-14.671875zm0 0" fill="#5a2479"/><g fill="#d5b4eb"><path d="m88 264c-2.128906.023438-4.175781-.8125-5.679688-2.320312-1.507812-1.503907-2.34375-3.550782-2.320312-5.679688 0-4.417969 3.582031-8 8-8s8 3.582031 8 8c-.011719 1.046875-.230469 2.078125-.640625 3.039062-.40625.96875-.976563 1.863282-1.679687 2.640626-1.507813 1.503906-3.550782 2.339843-5.679688 2.320312zm0 0"/><path d="m168 240c-2.128906.023438-4.175781-.8125-5.679688-2.320312-1.507812-1.503907-2.34375-3.550782-2.320312-5.679688.027344-2.117188.855469-4.148438 2.320312-5.679688 2.300782-2.269531 5.742188-2.933593 8.71875-1.679687.980469.386719 1.875.957031 2.640626 1.679687.722656.765626 1.292968 1.660157 1.679687 2.640626 1.054687 2.460937.796875 5.285156-.6875 7.511718-1.484375 2.226563-3.996094 3.554688-6.671875 3.527344zm0 0"/><path d="m192 192c-2.128906.019531-4.175781-.816406-5.679688-2.320312-.703124-.777344-1.273437-1.671876-1.679687-2.640626-.855469-1.9375-.855469-4.140624 0-6.078124.386719-.980469.957031-1.875 1.679687-2.640626 1.890626-1.875 4.589844-2.683593 7.199219-2.160156.53125.074219 1.050781.238282 1.527344.480469.511719.175781.996094.417969 1.441406.71875.417969.296875.816407.617187 1.199219.960937.722656.765626 1.292969 1.660157 1.679688 2.640626.855468 1.9375.855468 4.140624 0 6.078124-.40625.96875-.976563 1.863282-1.679688 2.640626-1.507812 1.503906-3.558594 2.339843-5.6875 2.320312zm0 0"/><path d="m112 208c-2.128906.019531-4.175781-.816406-5.679688-2.320312-.703124-.777344-1.273437-1.671876-1.679687-2.640626-.855469-1.9375-.855469-4.140624 0-6.078124.40625-.96875.972656-1.863282 1.679687-2.640626 3.207032-2.960937 8.152344-2.960937 11.359376 0 .707031.777344 1.273437 1.671876 1.679687 2.640626.851563 1.9375.851563 4.140624 0 6.078124-.40625.96875-.976563 1.863282-1.679687 2.640626-1.507813 1.503906-3.550782 2.339843-5.679688 2.320312zm0 0"/><path d="m56 176c-2.128906.023438-4.175781-.8125-5.679688-2.320312-1.507812-1.503907-2.34375-3.550782-2.320312-5.679688.027344-2.117188.855469-4.148438 2.320312-5.679688 2.316407-2.238281 5.738282-2.894531 8.71875-1.679687.96875.40625 1.863282.976563 2.640626 1.679687 1.476562 1.523438 2.308593 3.558594 2.320312 5.679688.023438 2.128906-.8125 4.175781-2.320312 5.679688-1.503907 1.507812-3.550782 2.34375-5.679688 2.320312zm0 0"/><path d="m160 144c-2.675781.027344-5.1875-1.300781-6.671875-3.527344-1.484375-2.226562-1.742187-5.050781-.6875-7.511718.40625-.96875.972656-1.863282 1.679687-2.640626.765626-.722656 1.660157-1.292968 2.640626-1.679687 1.945312-.808594 4.132812-.808594 6.078124 0 .980469.386719 1.875.957031 2.640626 1.679687.707031.777344 1.273437 1.671876 1.679687 2.640626 1.054687 2.460937.796875 5.285156-.6875 7.511718-1.484375 2.226563-3.996094 3.554688-6.671875 3.527344zm0 0"/><path d="m88 136c-1.039062.011719-2.074219-.175781-3.039062-.558594-.957032-.464844-1.84375-1.058594-2.640626-1.761718-1.503906-1.503907-2.339843-3.550782-2.320312-5.679688-.027344-1.050781.191406-2.089844.640625-3.039062.40625-.96875.972656-1.863282 1.679687-2.640626.378907-.34375.777344-.664062 1.191407-.960937.449219-.300781.9375-.542969 1.449219-.71875.453124-.230469.9375-.394531 1.4375-.480469 1.023437-.238281 2.089843-.238281 3.113281 0 .53125.074219 1.050781.238282 1.527343.480469.511719.175781.996094.417969 1.441407.71875.417969.296875.816406.617187 1.199219.960937.707031.777344 1.273437 1.671876 1.679687 2.640626 1.054687 2.460937.796875 5.285156-.6875 7.511718-1.484375 2.226563-3.996094 3.554688-6.671875 3.527344zm0 0"/></g></svg>