<svg height="456pt" viewBox="-12 0 456 456.00003" width="456pt" xmlns="http://www.w3.org/2000/svg"><path d="m40 136v256h320v-256zm160 216-61.816406-16.566406 16.558594-61.816406 61.824218 16.566406zm0-143.425781 55.425781-32 32 55.425781-55.425781 32zm112 159.425781h-64v-64h64zm0 0" fill="#ffb655"/><path d="m40 136h24v256h-24zm0 0" fill="#ee8700"/><path d="m264 96c-17.136719 0-32.96875-9.152344-41.527344-24h-174.472656c-4.417969 0-8 3.582031-8 8v56h320v-56c0-4.417969-3.582031-8-8-8h-46.472656c-8.558594 14.847656-24.390625 24-41.527344 24zm0 0" fill="#e6e7e8"/><path d="m72 72h-24c-4.417969 0-8 3.582031-8 8v56h24v-56c0-4.417969 3.582031-8 8-8zm0 0" fill="#bcbec0"/><path d="m40 440c0 8.835938 7.164062 16 16 16h288c8.835938 0 16-7.164062 16-16v-48h-320zm0 0" fill="#d1d3d4"/><path d="m64 440v-48h-24v48c0 8.835938 7.164062 16 16 16h24c-8.835938 0-16-7.164062-16-16zm0 0" fill="#a7a9ac"/><path d="m138.179688 335.429688 16.566406-61.820313 61.820312 16.566406-16.566406 61.820313zm0 0" fill="#e6e7e8"/><path d="m164.246094 327.710938 12.890625-48.09375-22.402344-6-16.558594 61.816406 61.824219 16.566406 1.601562-6-31.699218-8.496094c-4.261719-1.144531-6.792969-5.527344-5.65625-9.792968zm0 0" fill="#bcbec0"/><path d="m248 304h64v64h-64zm0 0" fill="#e6e7e8"/><path d="m248 304h24v64h-24zm0 0" fill="#bcbec0"/><path d="m199.996094 208.574219 55.425781-32 32 55.425781-55.425781 32zm0 0" fill="#e6e7e8"/><path d="m230.929688 204.574219 30.496093-17.597657-6-10.402343-55.425781 32 32 55.425781 18-10.398438-22-38.097656c-2.210938-3.824218-.898438-8.71875 2.929688-10.929687zm0 0" fill="#bcbec0"/><path d="m424 56h-112c-4.417969 0-8-3.582031-8-8s3.582031-8 8-8h112c4.417969 0 8 3.582031 8 8s-3.582031 8-8 8zm0 0" fill="#898890"/><path d="m216 56h-208c-4.417969 0-8-3.582031-8-8s3.582031-8 8-8h208c4.417969 0 8 3.582031 8 8s-3.582031 8-8 8zm0 0" fill="#898890"/><g fill="#ffdaaa"><path d="m112 264h-8v-8c0-4.417969-3.582031-8-8-8s-8 3.582031-8 8v8h-8c-4.417969 0-8 3.582031-8 8s3.582031 8 8 8h8v8c0 4.417969 3.582031 8 8 8s8-3.582031 8-8v-8h8c4.417969 0 8-3.582031 8-8s-3.582031-8-8-8zm0 0"/><path d="m144 256c-2.117188-.03125-4.148438-.859375-5.679688-2.320312-1.476562-1.523438-2.308593-3.558594-2.320312-5.679688.027344-2.117188.855469-4.148438 2.320312-5.679688 1.890626-1.875 4.589844-2.683593 7.199219-2.160156.53125.074219 1.050781.238282 1.527344.480469.511719.175781.996094.417969 1.441406.71875l1.199219.960937c1.457031 1.535157 2.285156 3.5625 2.3125 5.679688-.011719.535156-.070312 1.070312-.167969 1.601562-.082031.5-.238281.988282-.472656 1.4375-.179687.507813-.417969.992188-.71875 1.441407l-.960937 1.199219c-.382813.34375-.78125.664062-1.199219.960937-.445313.300781-.929688.542969-1.441407.71875-.476562.242187-.996093.40625-1.527343.480469-.5.09375-1.003907.148437-1.511719.160156zm0 0"/><path d="m104 216c-2.117188-.03125-4.148438-.859375-5.679688-2.320312-.34375-.378907-.664062-.78125-.960937-1.199219-.300781-.445313-.542969-.929688-.71875-1.441407-.230469-.453124-.394531-.9375-.480469-1.4375-.09375-.53125-.148437-1.066406-.160156-1.601562.027344-2.117188.855469-4.148438 2.320312-5.679688l1.191407-.960937c.449219-.300781.9375-.542969 1.449219-.71875.453124-.230469.9375-.394531 1.4375-.480469 1.023437-.238281 2.089843-.238281 3.113281 0 .53125.074219 1.050781.238282 1.527343.480469.511719.175781.996094.417969 1.441407.71875l1.199219.960937c1.460937 1.535157 2.289062 3.5625 2.320312 5.679688-.011719.535156-.070312 1.070312-.167969 1.601562-.082031.5-.238281.988282-.472656 1.4375-.179687.507813-.417969.992188-.71875 1.441407l-.960937 1.199219c-.382813.34375-.78125.664062-1.199219.960937-.445313.300781-.929688.542969-1.441407.71875-.476562.242187-.996093.40625-1.527343.480469-.5.09375-1.003907.148437-1.511719.160156zm0 0"/><path d="m160 192c-2.117188-.03125-4.148438-.859375-5.679688-2.320312-.722656-.765626-1.292968-1.660157-1.679687-2.640626-.855469-1.9375-.855469-4.140624 0-6.078124 1.359375-3.578126 5.132813-5.621094 8.871094-4.800782.53125.074219 1.050781.238282 1.527343.480469.511719.175781.996094.417969 1.441407.71875l1.199219.960937c.722656.765626 1.292968 1.660157 1.679687 2.640626.851563 1.9375.851563 4.140624 0 6.078124-.386719.980469-.957031 1.875-1.679687 2.640626l-1.199219.960937c-.445313.300781-.929688.542969-1.441407.71875-.476562.242187-.996093.40625-1.527343.480469-.5.09375-1.003907.148437-1.511719.160156zm0 0"/><path d="m320 176c-.535156-.011719-1.070312-.066406-1.601562-.160156-.5-.085938-.984376-.25-1.4375-.480469-.511719-.175781-1-.417969-1.449219-.71875-.414063-.296875-.8125-.617187-1.191407-.960937-1.464843-1.53125-2.292968-3.5625-2.320312-5.679688-.027344-1.050781.191406-2.089844.640625-3.039062.386719-.980469.957031-1.875 1.679687-2.640626.378907-.34375.777344-.664062 1.191407-.960937.449219-.300781.9375-.542969 1.449219-.71875.453124-.230469.9375-.394531 1.4375-.480469 1.023437-.238281 2.089843-.238281 3.113281 0 .53125.074219 1.050781.238282 1.527343.480469.492188.160156.953126.402344 1.359376.71875.460937.277344.886718.597656 1.28125.960937.722656.765626 1.292968 1.660157 1.679687 2.640626.410156.960937.628906 1.992187.640625 3.039062-.03125 2.117188-.859375 4.144531-2.320312 5.679688-.394532.363281-.820313.683593-1.28125.960937-.40625.316406-.867188.558594-1.359376.71875-.476562.242187-.996093.40625-1.527343.480469-.5.09375-1.003907.148437-1.511719.160156zm0 0"/><path d="m328 256c-.535156-.011719-1.070312-.066406-1.601562-.160156-.5-.085938-.984376-.25-1.4375-.480469-.511719-.175781-1-.417969-1.449219-.71875l-1.191407-.960937c-1.464843-1.53125-2.292968-3.5625-2.320312-5.679688.015625-.535156.070312-1.070312.160156-1.601562.085938-.5.25-.984376.480469-1.4375.175781-.511719.417969-.996094.71875-1.441407.296875-.417969.617187-.820312.960937-1.199219l1.191407-.960937c.449219-.300781.9375-.542969 1.449219-.71875.453124-.230469.9375-.394531 1.4375-.480469 1.023437-.238281 2.089843-.238281 3.113281 0 .53125.074219 1.050781.238282 1.527343.480469.511719.175781.996094.417969 1.441407.71875l1.199219.960937.960937 1.199219c.300781.449219.539063.933594.71875 1.441407.234375.449218.390625.9375.472656 1.4375.09375.53125.152344 1.066406.167969 1.601562-.03125 2.117188-.859375 4.144531-2.320312 5.679688l-1.199219.960937c-.445313.300781-.929688.542969-1.441407.71875-.476562.242187-.996093.40625-1.527343.480469-.5.09375-1.003907.148437-1.511719.160156zm0 0"/></g><path d="m264 96c17.136719 0 32.96875-9.152344 41.527344-24h-83.054688c8.558594 14.847656 24.390625 24 41.527344 24zm0 0" fill="#ff5023"/><path d="m264 0c-17.15625-.0195312-33.015625 9.128906-41.585938 23.988281-8.574218 14.863281-8.550781 33.171875.058594 48.011719h83.054688c8.609375-14.839844 8.632812-33.148438.058594-48.011719-8.570313-14.859375-24.429688-24.0078122-41.585938-23.988281zm0 0" fill="#cd2a00"/><path d="m240 48c.035156-21.859375 14.835938-40.933594 36-46.398438-18.707031-4.867187-38.511719 1.980469-50.210938 17.371094-11.699218 15.386719-13.007812 36.300782-3.316406 53.027344h24c-4.238281-7.289062-6.472656-15.570312-6.472656-24zm0 0" fill="#ab2300"/><path d="m246.472656 72h-24c10.726563 18.707031 32.671875 27.890625 53.527344 22.398438-12.441406-3.21875-23.074219-11.285157-29.527344-22.398438zm0 0" fill="#cd2a00"/></svg>