<svg height="472pt" viewBox="-116 0 472 472.00001" width="472pt" xmlns="http://www.w3.org/2000/svg"><path d="m31.421875 456.664062c.359375 8.574219 7.417969 15.34375 16 15.335938h145.296875c8.585938.007812 15.644531-6.761719 16-15.335938l.679688-16.664062h-178.671876zm0 0" fill="#d1d3d4"/><path d="m55.421875 456.664062-.695313-16.664062h-24l.695313 16.664062c.359375 8.574219 7.417969 15.34375 16 15.335938h24c-8.582031.007812-15.640625-6.761719-16-15.335938zm0 0" fill="#a7a9ac"/><path d="m233.183594 216h-226.265625l.855469 12c.207031 2.667969.742187 5.304688 1.601562 7.839844l13.304688 39.894531c.941406 2.84375 1.480468 5.808594 1.597656 8.800781l6.449218 155.464844h178.671876l6.480468-155.496094c.117188-2.992187.65625-5.957031 1.601563-8.800781l13.304687-39.894531c.855469-2.535156 1.394532-5.171875 1.597656-7.839844l.855469-12zm-121.121094 200-47.535156-6.679688 6.679687-47.535156 47.535157 6.679688zm72 0h-48v-48h48zm-40-80-24-41.601562 41.601562-24 24 41.601562zm0 0" fill="#f490c0"/><path d="m46.640625 275.71875-13.304687-39.894531c-.859376-2.535157-1.398438-5.171875-1.601563-7.839844l-.816406-11.984375h-24l.855469 12c.207031 2.667969.742187 5.304688 1.601562 7.839844l13.304688 39.894531c.941406 2.84375 1.480468 5.808594 1.597656 8.800781l6.449218 155.464844h24l-6.480468-155.496094c-.121094-2.988281-.664063-5.945312-1.605469-8.785156zm0 0" fill="#ed539d"/><path d="m231.472656 120h-222.816406c-2.226562-.003906-4.351562.914062-5.867188 2.539062-1.519531 1.625-2.292968 3.8125-2.132812 6.027344l6.261719 87.433594h226.289062l6.238281-87.433594c.160157-2.210937-.609374-4.394531-2.121093-6.015625-1.515625-1.625-3.632813-2.550781-5.851563-2.550781zm0 0" fill="#e6e7e8"/><path d="m32.65625 120h-24c-2.226562-.003906-4.351562.914062-5.867188 2.539062-1.519531 1.625-2.292968 3.8125-2.132812 6.027344l6.261719 87.433594h24l-6.238281-87.433594c-.15625-2.210937.613281-4.394531 2.125-6.015625 1.511718-1.625 3.628906-2.550781 5.851562-2.550781zm0 0" fill="#bcbec0"/><path d="m136.0625 368h48v48h-48zm0 0" fill="#e6e7e8"/><path d="m136.0625 368h24v48h-24zm0 0" fill="#bcbec0"/><path d="m120.0625 294.433594 41.566406-24 24 41.566406-41.566406 24zm0 0" fill="#e6e7e8"/><path d="m150.992188 290.398438 16.640624-9.597657-6-10.402343-41.601562 24 24.03125 41.601562 18-10.398438-14-24.242187c-1.070312-1.839844-1.363281-4.03125-.8125-6.089844.546875-2.054687 1.894531-3.808593 3.742188-4.871093zm0 0" fill="#bcbec0"/><path d="m64.535156 409.320312 6.683594-47.535156 47.53125 6.683594-6.679688 47.53125zm0 0" fill="#e6e7e8"/><path d="m89.664062 401.398438 5.09375-36.300782-23.535156-3.3125-6.679687 47.535156 47.519531 6.679688.464844-3.304688-16.070313-2.296874c-4.355469-.621094-7.386719-4.640626-6.792969-9zm0 0" fill="#bcbec0"/><path d="m232.0625 104c15.457031-26.777344 6.289062-61.011719-20.480469-76.480469l-53.4375 92.480469h60.078125c5.609375-4.386719 10.308594-9.820312 13.839844-16zm0 0" fill="#f9ed32"/><path d="m211.582031 27.519531-53.4375 92.480469h24l45.421875-78.609375c-4.390625-5.605469-9.816406-10.3125-15.984375-13.871094zm0 0" fill="#ffda44"/><path d="m15.894531 30.398438c-.472656-2.894532-2.492187-5.296876-5.261719-6.261719-2.769531-.964844-5.847656-.335938-8.015624 1.636719-2.171876 1.972656-3.085938 4.976562-2.386719 7.828124l17.722656 86.398438h16.324219zm0 0" fill="#ff5023"/><path d="m34.277344 120h-16.324219l19.6875 96h16.335937zm0 0" fill="#ff6243"/><path d="m53.976562 216h-16.3125l26.589844 129.601562c.757813 3.710938 4.019532 6.382813 7.808594 6.398438.539062 0 1.074219-.054688 1.601562-.167969 4.324219-.890625 7.109376-5.113281 6.222657-9.441406zm0 0" fill="#ff7956"/><path d="m64.0625 8c0-4.417969-3.582031-8-8-8s-8 3.582031-8 8v112h16zm0 0" fill="#ff5023"/><path d="m48.0625 216v128c0 4.417969 3.582031 8 8 8s8-3.582031 8-8v-128zm0 0" fill="#ff7956"/><path d="m48.054688 120h16v96h-16zm0 0" fill="#ff6243"/><path d="m136.0625 168h-8v-8c0-4.417969-3.582031-8-8-8s-8 3.582031-8 8v8h-8c-4.417969 0-8 3.582031-8 8s3.582031 8 8 8h8v8c0 4.417969 3.582031 8 8 8s8-3.582031 8-8v-8h8c4.417969 0 8-3.582031 8-8s-3.582031-8-8-8zm0 0" fill="#fff"/><path d="m160.0625 160c-3.769531-.039062-6.992188-2.730469-7.699219-6.433594s1.292969-7.390625 4.785157-8.816406c3.488281-1.425781 7.503906-.195312 9.589843 2.945312 2.085938 3.140626 1.671875 7.316407-.996093 9.984376-1.53125 1.460937-3.5625 2.289062-5.679688 2.320312zm0 0" fill="#fff"/><g fill="#f7afd1"><path d="m200.0625 248c-3.769531-.039062-6.992188-2.730469-7.699219-6.433594s1.292969-7.390625 4.785157-8.816406c3.488281-1.425781 7.503906-.195312 9.589843 2.945312 2.085938 3.140626 1.671875 7.316407-.996093 9.984376-1.53125 1.460937-3.5625 2.289062-5.679688 2.320312zm0 0"/><path d="m96.0625 336c-2.117188-.03125-4.144531-.859375-5.679688-2.320312l-.960937-1.199219c-.300781-.445313-.542969-.929688-.71875-1.441407-.230469-.453124-.394531-.9375-.480469-1.4375-.09375-.53125-.144531-1.066406-.160156-1.601562.023438-3.609375 2.460938-6.761719 5.949219-7.6875 3.492187-.925781 7.167969.601562 8.976562 3.726562 1.808594 3.128907 1.296875 7.078126-1.246093 9.640626-.378907.34375-.78125.664062-1.199219.960937-.445313.300781-.929688.542969-1.441407.71875-.453124.230469-.9375.394531-1.4375.480469-.53125.09375-1.0625.148437-1.601562.160156zm0 0"/><path d="m112.0625 264c-2.117188-.03125-4.144531-.859375-5.679688-2.320312-1.472656-1.523438-2.304687-3.558594-2.320312-5.679688 0-4.417969 3.582031-8 8-8s8 3.582031 8 8c-.015625 2.121094-.847656 4.15625-2.320312 5.679688-.398438.320312-.800782.640624-1.277344.960937-.410156.316406-.871094.558594-1.363282.71875-.453124.230469-.9375.394531-1.4375.480469-.53125.09375-1.0625.148437-1.601562.160156zm0 0"/></g></svg>