<svg height="448pt" viewBox="0 -12 448.568 448" width="448pt" xmlns="http://www.w3.org/2000/svg"><path d="m296 408.28125h-72c-8.835938 0-16-7.160156-16-16v-136c0-4.417969-3.582031-8-8-8s-8 3.582031-8 8v136c0 8.839844-7.164062 16-16 16h-72c-4.417969 0-8 3.582031-8 8 0 4.421875 3.582031 8 8 8h192c4.417969 0 8-3.578125 8-8 0-4.417969-3.582031-8-8-8zm0 0" fill="#acabb1"/><path d="m395.007812 128.28125c3.265626-13.082031 4.941407-26.511719 4.992188-40 0-4.417969-3.582031-8-8-8l-48 48zm0 0" fill="#e6e7e8"/><path d="m328.105469 128.28125c-10.441407-13.824219-16.09375-30.671875-16.105469-48h-304c-4.417969 0-8 3.582031-8 8 .0507812 13.488281 1.726562 26.917969 4.992188 40zm0 0" fill="#e6e7e8"/><path d="m40 80.28125h-32c-4.417969 0-8 3.582031-8 8 .0507812 13.488281 1.726562 26.917969 4.992188 40h32c-3.265626-13.082031-4.941407-26.511719-4.992188-40 0-4.417969 3.582031-8 8-8zm0 0" fill="#bcbec0"/><path d="m392.640625 128.28125h-48.640625l-8.566406 8.570312c-2.640625-2.683593-5.089844-5.546874-7.328125-8.570312h-323.113281c18.382812 75.109375 85.679687 127.957031 163.007812 128h64c77.328125-.042969 144.625-52.890625 163.007812-128zm0 0" fill="#ed539d"/><path d="m36.992188 128.28125h-32c18.382812 75.109375 85.679687 127.957031 163.007812 128h32c-77.328125-.042969-144.625-52.890625-163.007812-128zm0 0" fill="#e4187a"/><path d="m335.433594 23.714844c-15.027344 14.988281-23.460938 35.34375-23.433594 56.566406h24c0-22.648438 13.640625-43.070312 34.570312-51.738281 20.925782-8.667969 45.015626-3.878907 61.03125 12.140625l16.964844-16.96875c-31.238281-31.242188-81.894531-31.242188-113.132812 0zm0 0" fill="#8dc63f"/><path d="m359.433594 23.714844c12.066406-12.050782 27.691406-19.90625 44.566406-22.398438-23.035156-3.535156-46.460938 3.164063-64.144531 18.34375-17.683594 15.175782-27.855469 37.320313-27.855469 60.621094h24c0-1.789062.085938-3.578125.257812-5.367188 1.242188-19.316406 9.480469-37.519531 23.175782-51.199218zm0 0" fill="#5eac24"/><path d="m344 128.28125h-15.894531c2.238281 3.023438 4.6875 5.886719 7.328125 8.570312zm0 0" fill="#ed539d"/><path d="m352.398438 119.882812c-10.515626-10.492187-16.417969-24.742187-16.398438-39.601562h-24c.011719 17.328125 5.664062 34.175781 16.105469 48h15.894531l48-48zm0 0" fill="#8dc63f"/><path d="m361.207031 111.074219 30.792969-30.792969zm0 0" fill="#5eac24"/><path d="m328 80.28125h-16c.011719 17.328125 5.664062 34.175781 16.105469 48h15.894531l.0625-.0625c-10.410156-13.8125-16.046875-30.636719-16.0625-47.9375zm0 0" fill="#5eac24"/><path d="m431.601562 40.683594-39.601562 39.597656zm0 0" fill="#bddbff"/><path d="m352.398438 40.683594c-10.515626 10.492187-16.417969 24.742187-16.398438 39.597656h56l39.601562-39.597656c-21.871093-21.871094-57.332031-21.871094-79.203124 0zm0 0" fill="#f9ed32"/><path d="m404 25.625c-16.5625-3.652344-33.886719.402344-47.105469 11.027344s-20.902343 26.671875-20.894531 43.628906h24c-.023438-26.300781 18.296875-49.0625 44-54.65625zm0 0" fill="#ebbf00"/><path d="m392 80.28125h-56c-.019531 14.859375 5.882812 29.109375 16.398438 39.601562zm0 0" fill="#f9ed32"/><path d="m360 80.28125h-24c-.019531 14.859375 5.882812 29.109375 16.398438 39.601562l13.867187-13.863281c-4.117187-7.953125-6.265625-16.78125-6.265625-25.738281zm0 0" fill="#ebbf00"/><g fill="#f7afd1"><path d="m80 176.28125c-2.121094-.011719-4.15625-.84375-5.679688-2.316406-.707031-.78125-1.273437-1.671875-1.679687-2.640625-.410156-.964844-.628906-1.996094-.640625-3.042969.027344-2.117188.855469-4.148438 2.320312-5.679688.378907-.339843.777344-.660156 1.191407-.957031.449219-.304687.9375-.546875 1.449219-.722656.453124-.230469.9375-.390625 1.4375-.480469 3.765624-.855468 7.589843 1.191406 8.960937 4.800782.855469 1.9375.855469 4.144531 0 6.082031-.386719.976562-.957031 1.875-1.679687 2.640625-1.535157 1.457031-3.5625 2.285156-5.679688 2.316406zm0 0"/><path d="m160 216.28125c-2.128906.023438-4.175781-.8125-5.679688-2.316406-1.507812-1.507813-2.34375-3.554688-2.320312-5.683594.011719-1.042969.230469-2.078125.640625-3.039062.40625-.96875.972656-1.859376 1.679687-2.640626 3.207032-2.957031 8.152344-2.957031 11.359376 0 .722656.765626 1.292968 1.664063 1.679687 2.640626.855469 1.9375.855469 4.144531 0 6.082031-.386719.976562-.957031 1.875-1.679687 2.640625-1.535157 1.457031-3.5625 2.285156-5.679688 2.316406zm0 0"/><path d="m224 176.28125c-2.117188-.027344-4.148438-.855469-5.679688-2.316406-.722656-.765625-1.292968-1.664063-1.679687-2.640625-.855469-1.9375-.855469-4.144531 0-6.082031.40625-.96875.972656-1.859376 1.679687-2.640626 3.1875-3.011718 8.171876-3.011718 11.359376 0 2.308593 2.289063 3 5.746094 1.753906 8.75-1.246094 3-4.183594 4.949219-7.433594 4.929688zm0 0"/><path d="m224 208.28125c-2.117188-.027344-4.148438-.855469-5.679688-2.316406-.742187-.753906-1.3125-1.652344-1.679687-2.640625-.410156-.964844-.628906-1.996094-.640625-3.042969.011719-2.121094.84375-4.15625 2.320312-5.679688 3.207032-2.957031 8.152344-2.957031 11.359376 0l.960937 1.203126c.300781.445312.539063.929687.71875 1.4375.246094.476562.40625.992187.472656 1.519531.097657.503906.15625 1.011719.167969 1.519531.023438 2.128906-.8125 4.175781-2.320312 5.683594-1.503907 1.503906-3.550782 2.339844-5.679688 2.316406zm0 0"/><path d="m304 184.28125c-2.128906.023438-4.175781-.8125-5.679688-2.316406-1.507812-1.507813-2.34375-3.554688-2.320312-5.683594.011719-1.042969.230469-2.078125.640625-3.039062.726563-2.007813 2.308594-3.59375 4.320313-4.320313 2.976562-1.25 6.417968-.589844 8.71875 1.679687.722656.765626 1.292968 1.664063 1.679687 2.640626.410156.960937.628906 1.996093.640625 3.039062.023438 2.128906-.8125 4.175781-2.320312 5.683594-1.503907 1.503906-3.550782 2.339844-5.679688 2.316406zm0 0"/><path d="m152 168.28125c-2.117188-.027344-4.148438-.855469-5.679688-2.316406-.34375-.382813-.664062-.78125-.960937-1.203125-.300781-.445313-.542969-.929688-.71875-1.4375-.230469-.453125-.394531-.941407-.480469-1.441407-.089844-.527343-.144531-1.0625-.160156-1.601562.011719-1.042969.230469-2.078125.640625-3.039062.40625-.96875.972656-1.859376 1.679687-2.640626 3.207032-2.957031 8.152344-2.957031 11.359376 0 .707031.78125 1.273437 1.671876 1.679687 2.640626.410156.960937.628906 1.996093.640625 3.039062.023438 2.128906-.8125 4.175781-2.320312 5.683594-1.503907 1.503906-3.550782 2.339844-5.679688 2.316406zm0 0"/></g></svg>