<svg height="472pt" viewBox="-44 0 472 472" width="472pt" xmlns="http://www.w3.org/2000/svg"><path d="m296.117188 456h-88v-184c0-4.417969-3.582032-8-8-8-4.417969 0-8 3.582031-8 8v184h-88c-4.417969 0-8 3.582031-8 8s3.582031 8 8 8h192c4.417968 0 8-3.582031 8-8s-3.582032-8-8-8zm0 0" fill="#acabb1"/><path d="m310.882812 128 33.234376-48h-29.265626l-35.121093 48zm0 0" fill="#e6e7e8"/><path d="m106.347656 128h173.382813l35.121093-48h-186.734374c.003906 18.390625-7.933594 35.886719-21.769532 48zm0 0" fill="#e6e7e8"/><path d="m89.316406 128-33.199218-48h72c.003906-28.84375-19.285157-54.125-47.105469-61.738281-27.820313-7.613281-57.292969 4.320312-71.980469 29.144531-14.683594 24.824219-10.949219 56.402344 9.117188 77.117188 20.070312 20.714843 51.515624 25.449218 76.792968 11.554687l-5.601562-8.078125zm0 0" fill="#f9ed32"/><path d="m32.117188 80c.027343-29.160156 19.765624-54.613281 48-61.902344-25.945313-6.753906-53.351563 3.382813-68.660157 25.390625-15.304687 22.011719-15.273437 51.230469.082031 73.203125 15.355469 21.976563 42.78125 32.050782 68.710938 25.246094-28.296875-7.242188-48.105469-32.726562-48.132812-61.9375zm0 0" fill="#ebbf00"/><path d="m89.347656 128h17c13.835938-12.113281 21.773438-29.609375 21.769532-48h-72zm0 0" fill="#e6e7e8"/><path d="m88.117188 80h-32l33.230468 48h17c3.164063-2.792969 6.042969-5.890625 8.601563-9.246094zm0 0" fill="#e6e7e8"/><path d="m310.835938 128h-221.488282l5.601563 8.078125 98.597656 142.402344c1.496094 2.15625 3.953125 3.445312 6.578125 3.445312 2.621094 0 5.082031-1.289062 6.574219-3.445312l104.183593-150.480469zm0 0" fill="#44ffe8"/><path d="m126.941406 136.078125-5.601562-8.078125h-32l5.601562 8.078125 98.597656 142.402344c1.496094 2.15625 3.953126 3.445312 6.578126 3.445312 2.621093 0 5.078124-1.289062 6.574218-3.445312l9.425782-13.59375zm0 0" fill="#00ccb3"/><path d="m350.570312 44.71875c1.777344-2.300781 2.164063-5.382812 1.011719-8.054688-1.152343-2.667968-3.660156-4.5-6.554687-4.789062-2.890625-.289062-5.710938 1.015625-7.367188 3.40625l-32.746094 44.71875h19.839844zm0 0" fill="#acabb1"/><path d="m324.753906 80h-19.839844l-31.65625 43.28125c-.964843 1.378906-1.460937 3.035156-1.40625 4.71875h17.769532zm0 0" fill="#c6c5ca"/><path d="m271.875 128c-.058594 2.53125 1.105469 4.933594 3.128906 6.457031 1.714844 1.257813 3.859375 1.78125 5.960938 1.457031 2.101562-.328124 3.984375-1.476562 5.238281-3.195312l3.457031-4.71875zm0 0" fill="#d8d7da"/><g fill="#ddfffb"><path d="m208.117188 232c-1.046876-.011719-2.078126-.230469-3.042969-.640625-.976563-.386719-1.875-.957031-2.636719-1.679687-.707031-.777344-1.277344-1.671876-1.683594-2.640626-.410156-.960937-.625-1.992187-.636718-3.039062.027343-2.117188.855468-4.148438 2.320312-5.679688.777344-.707031 1.667969-1.273437 2.636719-1.679687 2.980469-1.253906 6.421875-.589844 8.722656 1.679687 1.460937 1.535157 2.289063 3.5625 2.320313 5.679688-.015626 1.046875-.230469 2.078125-.640626 3.039062-.40625.96875-.976562 1.863282-1.679687 2.640626-1.535156 1.460937-3.5625 2.289062-5.679687 2.320312zm0 0"/><path d="m168.117188 192c-2.125-.011719-4.15625-.84375-5.679688-2.320312-3.105469-3.128907-3.09375-8.183594.027344-11.296876 3.125-3.113281 8.175781-3.113281 11.300781 0 3.121094 3.113282 3.136719 8.167969.03125 11.296876-1.527344 1.472656-3.558594 2.304687-5.679687 2.320312zm0 0"/><path d="m200.117188 168c-.539063-.011719-1.074219-.066406-1.601563-.160156-.5-.085938-.988281-.25-1.441406-.480469-.511719-.175781-.996094-.417969-1.445313-.71875-.417968-.296875-.8125-.617187-1.191406-.960937-.742188-.75-1.316406-1.652344-1.683594-2.640626-.410156-.960937-.625-1.992187-.636718-3.039062.011718-2.121094.839843-4.15625 2.320312-5.679688l1.191406-.960937c.449219-.300781.933594-.542969 1.445313-.71875.453125-.230469.941406-.394531 1.441406-.480469 1.558594-.328125 3.179687-.160156 4.640625.480469.96875.40625 1.859375.976563 2.640625 1.679687 2.304687 2.289063 3 5.746094 1.753906 8.746094-1.246093 3.003906-4.183593 4.953125-7.433593 4.933594zm0 0"/><path d="m232.117188 200c-3.773438-.039062-6.992188-2.730469-7.703126-6.433594-.707031-3.703125 1.292969-7.390625 4.785157-8.816406 3.492187-1.425781 7.503906-.195312 9.589843 2.945312 2.089844 3.140626 1.671876 7.316407-.992187 9.984376-.402344.320312-.800781.640624-1.28125.960937-.410156.316406-.867187.558594-1.359375.71875-.480469.242187-.996094.40625-1.527344.480469-.5.09375-1.007812.148437-1.511718.160156zm0 0"/><path d="m256.117188 160c-4.417969 0-8-3.582031-8-8s3.582031-8 8-8c4.417968 0 8 3.582031 8 8-.015626.535156-.070313 1.070312-.167969 1.601562-.082031.5-.242188.988282-.472657 1.4375-.179687.507813-.421874.992188-.722656 1.441407l-.957031 1.199219c-1.535156 1.460937-3.5625 2.289062-5.679687 2.320312zm0 0"/></g><path d="m384.117188 0h-80l80 80zm0 0" fill="#ff7956"/><path d="m376.117188 40-40-40h-32l80 80v-32zm0 0" fill="#ff5023"/></svg>