<svg height="464pt" viewBox="-56 0 464 464" width="464pt" xmlns="http://www.w3.org/2000/svg"><path d="m0 96v320h352v-320zm120 128h64v64h-64zm72 168-61.816406-16.566406 16.558594-61.816406 61.824218 16.566406zm79.425781-175.425781 32 55.425781-55.425781 32-32-55.425781zm32.574219 175.425781h-64v-64h64zm0 0" fill="#ffde55"/><path d="m0 96h32v320h-32zm0 0" fill="#ebbf00"/><path d="m0 8v88h352v-88c0-4.417969-3.582031-8-8-8h-336c-4.417969 0-8 3.582031-8 8zm0 0" fill="#e6e7e8"/><path d="m40 0h-32c-4.417969 0-8 3.582031-8 8v88h32v-88c0-4.417969 3.582031-8 8-8zm0 0" fill="#bcbec0"/><path d="m130.183594 375.433594 16.566406-61.820313 61.816406 16.566407-16.5625 61.820312zm0 0" fill="#e6e7e8"/><path d="m156.246094 367.710938 12.890625-48.09375-22.402344-6-16.558594 61.816406 61.824219 16.566406 1.601562-6-31.699218-8.496094c-4.261719-1.144531-6.792969-5.527344-5.65625-9.792968zm0 0" fill="#bcbec0"/><path d="m240 328h64v64h-64zm0 0" fill="#e6e7e8"/><path d="m240 328h24v64h-24zm0 0" fill="#bcbec0"/><path d="m216 248.574219 55.425781-32 32 55.425781-55.425781 32zm0 0" fill="#e6e7e8"/><path d="m246.929688 244.574219 30.496093-17.597657-6-10.402343-55.425781 32 32 55.425781 18-10.398438-22-38.097656c-2.210938-3.824218-.898438-8.71875 2.929688-10.929687zm0 0" fill="#bcbec0"/><path d="m0 432 6.488281 25.9375c.886719 3.5625 4.089844 6.0625 7.757813 6.0625h323.507812c3.667969 0 6.871094-2.5 7.757813-6.0625l6.488281-25.9375v-16h-352zm0 0" fill="#d1d3d4"/><path d="m38.488281 457.9375-6.488281-25.9375v-16h-32v16l6.488281 25.9375c.886719 3.5625 4.089844 6.0625 7.757813 6.0625h32c-3.667969 0-6.871094-2.5-7.757813-6.0625zm0 0" fill="#a7a9ac"/><path d="m120 224h64v64h-64zm0 0" fill="#e6e7e8"/><path d="m120 224h24v64h-24zm0 0" fill="#bcbec0"/><g fill="#fcedbd"><path d="m88 288h-8v-8c0-4.417969-3.582031-8-8-8s-8 3.582031-8 8v8h-8c-4.417969 0-8 3.582031-8 8s3.582031 8 8 8h8v8c0 4.417969 3.582031 8 8 8s8-3.582031 8-8v-8h8c4.417969 0 8-3.582031 8-8s-3.582031-8-8-8zm0 0"/><path d="m224 160h-8v-8c0-4.417969-3.582031-8-8-8s-8 3.582031-8 8v8h-8c-4.417969 0-8 3.582031-8 8s3.582031 8 8 8h8v8c0 4.417969 3.582031 8 8 8s8-3.582031 8-8v-8h8c4.417969 0 8-3.582031 8-8s-3.582031-8-8-8zm0 0"/><path d="m56 232c-1.050781.023438-2.089844-.195312-3.039062-.640625-.96875-.40625-1.863282-.972656-2.640626-1.679687-.703124-.777344-1.273437-1.671876-1.679687-2.640626-.410156-.960937-.628906-1.992187-.640625-3.039062.03125-2.117188.859375-4.148438 2.320312-5.679688.777344-.707031 1.671876-1.273437 2.640626-1.679687 1.457031-.644531 3.082031-.8125 4.640624-.480469.5.085938.984376.25 1.4375.480469.511719.175781.996094.417969 1.441407.71875.417969.296875.820312.617187 1.199219.960937 1.460937 1.53125 2.289062 3.5625 2.320312 5.679688.027344 1.050781-.191406 2.089844-.640625 3.039062-.40625.96875-.976563 1.863282-1.679687 2.640626-1.507813 1.503906-3.550782 2.339843-5.679688 2.320312zm0 0"/><path d="m80 184c-1.046875-.011719-2.078125-.230469-3.039062-.640625-.96875-.40625-1.863282-.972656-2.640626-1.679687-.703124-.777344-1.273437-1.671876-1.679687-2.640626-.851563-1.9375-.851563-4.140624 0-6.078124.40625-.96875.972656-1.863282 1.679687-2.640626 3.207032-2.960937 8.152344-2.960937 11.359376 0 .707031.777344 1.273437 1.671876 1.679687 2.640626.855469 1.9375.855469 4.140624 0 6.078124-.40625.96875-.976563 1.863282-1.679687 2.640626-.777344.707031-1.671876 1.273437-2.640626 1.679687-.960937.410156-1.992187.628906-3.039062.640625zm0 0"/><path d="m120 144c-1.046875-.011719-2.078125-.230469-3.039062-.640625-.96875-.40625-1.863282-.972656-2.640626-1.679687-.703124-.777344-1.273437-1.671876-1.679687-2.640626-.851563-1.9375-.851563-4.140624 0-6.078124.40625-.96875.972656-1.863282 1.679687-2.640626 3.207032-2.960937 8.152344-2.960937 11.359376 0 .707031.777344 1.273437 1.671876 1.679687 2.640626.855469 1.9375.855469 4.140624 0 6.078124-.375.984376-.949219 1.882813-1.679687 2.640626-.777344.707031-1.671876 1.273437-2.640626 1.679687-.960937.410156-1.992187.628906-3.039062.640625zm0 0"/></g><path d="m136 72c-2.128906.019531-4.171875-.816406-5.679688-2.320312-.703124-.777344-1.273437-1.671876-1.679687-2.640626-.410156-.960937-.628906-1.992187-.640625-3.039062 0-4.417969 3.582031-8 8-8s8 3.582031 8 8c-.011719 1.046875-.230469 2.078125-.640625 3.039062-.40625.96875-.976563 1.863282-1.679687 2.640626-.777344.707031-1.671876 1.273437-2.640626 1.679687-.960937.410156-1.992187.628906-3.039062.640625zm0 0" fill="#fff"/><path d="m224 48c-2.128906.019531-4.171875-.816406-5.679688-2.320312-.703124-.777344-1.273437-1.671876-1.679687-2.640626-.449219-.949218-.667969-1.988281-.640625-3.039062-.019531-3.25 1.929688-6.1875 4.933594-7.433594 3-1.246094 6.457031-.554687 8.746094 1.753906 1.476562 1.523438 2.308593 3.558594 2.320312 5.679688-.011719 1.046875-.230469 2.078125-.640625 3.039062-.40625.96875-.976563 1.863282-1.679687 2.640626-1.507813 1.503906-3.550782 2.339843-5.679688 2.320312zm0 0" fill="#fff"/><path d="m136 200c-1.046875-.011719-2.078125-.230469-3.039062-.640625-.96875-.40625-1.863282-.972656-2.640626-1.679687-2.289062-2.289063-2.957031-5.742188-1.679687-8.71875.386719-.980469.957031-1.875 1.679687-2.640626.777344-.707031 1.671876-1.273437 2.640626-1.679687 2.976562-1.253906 6.417968-.589844 8.71875 1.679687.707031.777344 1.273437 1.671876 1.679687 2.640626.449219.949218.667969 1.988281.640625 3.039062.019531 2.128906-.816406 4.175781-2.320312 5.679688-.777344.707031-1.671876 1.273437-2.640626 1.679687-.960937.410156-1.992187.628906-3.039062.640625zm0 0" fill="#fcedbd"/><path d="m80 368c-2.128906.023438-4.175781-.8125-5.679688-2.320312-1.507812-1.503907-2.34375-3.550782-2.320312-5.679688 0-4.417969 3.582031-8 8-8s8 3.582031 8 8c.023438 2.128906-.8125 4.175781-2.320312 5.679688-1.503907 1.507812-3.550782 2.34375-5.679688 2.320312zm0 0" fill="#fcedbd"/><path d="m296 136c-1.046875-.011719-2.078125-.230469-3.039062-.640625-.96875-.40625-1.863282-.972656-2.640626-1.679687-.703124-.777344-1.273437-1.671876-1.679687-2.640626-.410156-.960937-.628906-1.992187-.640625-3.039062.011719-2.121094.84375-4.15625 2.320312-5.679688 3.207032-2.960937 8.152344-2.960937 11.359376 0l.960937 1.191407c.300781.449219.542969.9375.71875 1.449219.230469.453124.394531.9375.480469 1.4375.09375.53125.148437 1.066406.160156 1.601562-.011719 1.046875-.230469 2.078125-.640625 3.039062-.40625.96875-.976563 1.863282-1.679687 2.640626-.777344.707031-1.671876 1.273437-2.640626 1.679687-.960937.410156-1.992187.628906-3.039062.640625zm0 0" fill="#fcedbd"/><path d="m312 224c-2.128906.019531-4.171875-.816406-5.679688-2.320312-.703124-.777344-1.273437-1.671876-1.679687-2.640626-.410156-.960937-.628906-1.992187-.640625-3.039062.03125-2.117188.859375-4.148438 2.320312-5.679688.777344-.707031 1.671876-1.273437 2.640626-1.679687 1.457031-.644531 3.082031-.8125 4.640624-.480469.5.085938.984376.25 1.4375.480469.511719.175781.996094.417969 1.441407.71875.417969.296875.820312.617187 1.199219.960937 1.460937 1.53125 2.289062 3.5625 2.320312 5.679688.027344 1.050781-.191406 2.089844-.640625 3.039062-.40625.96875-.976563 1.863282-1.679687 2.640626-1.507813 1.503906-3.550782 2.339843-5.679688 2.320312zm0 0" fill="#fcedbd"/></svg>