<svg height="479pt" viewBox="-48 0 479 479.90011" width="479pt" xmlns="http://www.w3.org/2000/svg"><path d="m224.449219 463.898438h-40v-144c0-4.417969-3.582031-8-8-8s-8 3.582031-8 8v144h-40c-4.417969 0-8 3.582031-8 8 0 4.421874 3.582031 8 8 8h96c4.417969 0 8-3.578126 8-8 0-4.417969-3.582031-8-8-8zm0 0" fill="#acabb1"/><path d="m232.449219 271.898438v-144h-112v144c0 30.929687 25.074219 56 56 56 30.929687 0 56-25.070313 56-56zm0 0" fill="#ffb655"/><path d="m152.449219 271.898438v-144h-32v144c-.015625 17.691406 8.335937 34.347656 22.523437 44.914062 14.183594 10.570312 32.53125 13.808594 49.476563 8.734375-23.726563-7.074219-39.992188-28.886719-40-53.648437zm0 0" fill="#ff9811"/><path d="m232.449219 103.898438c-26.507813 0-48-21.488282-48-48h-64v72h112zm0 0" fill="#e6e7e8"/><path d="m120.449219 55.898438h32v72h-32zm0 0" fill="#bcbec0"/><path d="m232.449219 103.898438c26.511719 0 48-21.488282 48-48 0-26.507813-21.488281-48-48-48-26.507813 0-48 21.492187-48 48h48zm0 0" fill="#f9ed32"/><path d="m248.449219 55.898438h-16v48c8.433593 0 16.710937-2.234376 24-6.46875v-33.53125c0-4.417969-3.582031-8-8-8zm0 0" fill="#ffcd00"/><path d="m244.449219 9.5c-14.367188-3.78125-29.679688-.671875-41.429688 8.417969-11.753906 9.089843-18.617187 23.125-18.570312 37.980469h24c.035156-21.859376 14.835937-40.933594 36-46.398438zm0 0" fill="#ffcd00"/><path d="m232.449219 103.898438v-48h-48c0 26.511718 21.492187 48 48 48zm0 0" fill="#e6e7e8"/><path d="m288.449219 175.898438c-1.042969-.011719-2.078125-.226563-3.039063-.636719-.96875-.40625-1.863281-.976563-2.640625-1.679688-.703125-.78125-1.273437-1.671875-1.679687-2.640625-.851563-1.9375-.851563-4.144531 0-6.082031.40625-.96875.972656-1.859375 1.679687-2.640625 2.300781-2.269531 5.742188-2.929688 8.71875-1.679688 2.011719.726563 3.59375 2.3125 4.320313 4.320313.855468 1.9375.855468 4.144531 0 6.082031-.40625.96875-.972656 1.859375-1.679688 2.640625-.777344.703125-1.667968 1.273438-2.640625 1.679688-.960937.410156-1.992187.625-3.039062.636719zm0 0" fill="#ffb655"/><path d="m200.449219 167.898438c-1.046875.023437-2.089844-.195313-3.039063-.636719-.96875-.40625-1.863281-.976563-2.640625-1.679688-.703125-.78125-1.273437-1.671875-1.679687-2.640625-.410156-.964844-.628906-1.996094-.640625-3.042968.019531-.535157.070312-1.070313.160156-1.597657.089844-.503906.25-.988281.480469-1.441406.175781-.511719.417968-.996094.71875-1.445313l.960937-1.195312c.777344-.703125 1.671875-1.273438 2.640625-1.679688 1.929688-.878906 4.148438-.878906 6.078125 0 .972657.40625 1.863281.976563 2.640625 1.679688 1.464844 1.535156 2.292969 3.5625 2.320313 5.679688-.011719 1.046874-.230469 2.078124-.640625 3.042968-.40625.96875-.972656 1.859375-1.679688 2.640625-.777344.703125-1.667968 1.273438-2.640625 1.679688-.949219.441406-1.988281.660156-3.039062.636719zm0 0" fill="#ffdaaa"/><path d="m160.449219 279.898438c-1.042969-.011719-2.078125-.226563-3.039063-.636719-.96875-.40625-1.863281-.976563-2.640625-1.679688-2.289062-2.292969-2.953125-5.746093-1.679687-8.722656.386718-.976563.957031-1.875 1.679687-2.640625 2.324219-2.226562 5.738281-2.886719 8.71875-1.679688 2.011719.726563 3.59375 2.3125 4.320313 4.320313.855468 1.9375.855468 4.144531 0 6.082031-.40625.96875-.972656 1.859375-1.679688 2.640625-1.503906 1.5-3.550781 2.335938-5.679687 2.316407zm0 0" fill="#ffdaaa"/><path d="m192.449219 239.898438c-2.128907.023437-4.175781-.8125-5.679688-2.316407-1.503906-1.507812-2.339843-3.554687-2.320312-5.683593.03125-2.117188.859375-4.144532 2.320312-5.679688.378907-.34375.78125-.664062 1.199219-.957031.445312-.304688.929688-.546875 1.441406-.722657.453125-.230468.9375-.390624 1.441406-.480468 1.558594-.328125 3.179688-.160156 4.636719.480468.972657.40625 1.863281.976563 2.640625 1.679688 1.464844 1.535156 2.292969 3.5625 2.320313 5.679688-.011719 1.046874-.230469 2.078124-.640625 3.042968-.40625.96875-.972656 1.859375-1.679688 2.640625-.777344.703125-1.667968 1.273438-2.640625 1.679688-.949219.441406-1.988281.660156-3.039062.636719zm0 0" fill="#ffdaaa"/><path d="m152.449219 191.898438c-1.042969-.011719-2.078125-.226563-3.039063-.636719-.96875-.40625-1.863281-.976563-2.640625-1.679688-.703125-.78125-1.273437-1.671875-1.679687-2.640625-.851563-1.9375-.851563-4.144531 0-6.082031.40625-.96875.972656-1.859375 1.679687-2.640625 2.300781-2.269531 5.742188-2.929688 8.71875-1.679688 2.011719.726563 3.59375 2.3125 4.320313 4.320313 1.054687 2.460937.796875 5.289063-.6875 7.515625s-3.996094 3.550781-6.671875 3.523438zm0 0" fill="#ffdaaa"/><g fill="#ffb655"><path d="m352.449219 135.898438c-2.125.019531-4.171875-.816407-5.679688-2.316407-.703125-.78125-1.273437-1.671875-1.679687-2.640625-.410156-.964844-.628906-1.996094-.640625-3.042968.03125-2.117188.859375-4.144532 2.320312-5.679688.777344-.703125 1.671875-1.273438 2.640625-1.679688 1.929688-.878906 4.148438-.878906 6.078125 0 .972657.40625 1.863281.976563 2.640625 1.679688 1.464844 1.535156 2.292969 3.5625 2.320313 5.679688.023437 2.128906-.8125 4.175781-2.316407 5.683593-1.507812 1.503907-3.554687 2.339844-5.683593 2.316407zm0 0"/><path d="m72.449219 119.898438c-1.042969-.011719-2.078125-.226563-3.039063-.636719-.96875-.40625-1.863281-.976563-2.640625-1.679688-2.289062-2.292969-2.953125-5.746093-1.679687-8.722656.386718-.976563.957031-1.875 1.679687-2.640625 3.207031-2.957031 8.152344-2.957031 11.359375 0 .722656.765625 1.292969 1.664062 1.679688 2.640625.855468 1.9375.855468 4.144531 0 6.082031-.40625.96875-.972656 1.859375-1.679688 2.640625-.777344.703125-1.667968 1.273438-2.640625 1.679688-.960937.410156-1.992187.625-3.039062.636719zm0 0"/><path d="m88.449219 39.898438c-1.042969-.011719-2.078125-.226563-3.039063-.636719-.96875-.40625-1.863281-.976563-2.640625-1.679688-.703125-.78125-1.273437-1.671875-1.679687-2.640625-.410156-.964844-.628906-1.996094-.640625-3.042968 0-4.417969 3.582031-8 8-8s8 3.582031 8 8c-.011719 1.046874-.230469 2.078124-.640625 3.042968-.40625.96875-.972656 1.859375-1.679688 2.640625-1.503906 1.5-3.550781 2.335938-5.679687 2.316407zm0 0"/><path d="m8.449219 71.898438c-1.042969-.011719-2.078125-.226563-3.039063-.636719-.96875-.40625-1.863281-.976563-2.640625-1.679688-2.289062-2.292969-2.953125-5.746093-1.679687-8.722656.386718-.976563.957031-1.875 1.679687-2.640625 3.207031-2.957031 8.152344-2.957031 11.359375 0 .707032.78125 1.277344 1.671875 1.679688 2.640625 1.054687 2.460937.796875 5.289063-.6875 7.515625s-3.996094 3.550781-6.671875 3.523438zm0 0"/><path d="m16.449219 271.898438c-2.125.019531-4.171875-.816407-5.679688-2.316407-.703125-.78125-1.273437-1.671875-1.679687-2.640625-.851563-1.9375-.851563-4.144531 0-6.082031.40625-.96875.972656-1.859375 1.679687-2.640625 3.207031-2.957031 8.152344-2.957031 11.359375 0 .707032.78125 1.277344 1.671875 1.679688 2.640625.855468 1.9375.855468 4.144531 0 6.082031-.40625.96875-.972656 1.859375-1.679688 2.640625-1.503906 1.5-3.550781 2.335938-5.679687 2.316407zm0 0"/><path d="m64.449219 231.898438c-1.039063.015624-2.070313-.175782-3.039063-.558594-.957031-.464844-1.84375-1.054688-2.640625-1.757813-1.503906-1.507812-2.339843-3.554687-2.320312-5.683593.03125-2.117188.859375-4.144532 2.320312-5.679688.378907-.34375.78125-.664062 1.199219-.957031.445312-.304688.929688-.546875 1.441406-.722657.453125-.230468.9375-.390624 1.441406-.480468 1.558594-.328125 3.179688-.160156 4.636719.480468.972657.40625 1.863281.976563 2.640625 1.679688 1.464844 1.535156 2.292969 3.5625 2.320313 5.679688.023437 2.128906-.8125 4.175781-2.316407 5.683593-1.507812 1.503907-3.554687 2.339844-5.683593 2.316407zm0 0"/><path d="m328.449219 15.898438c-2.125.019531-4.171875-.816407-5.679688-2.316407-.703125-.78125-1.273437-1.671875-1.679687-2.640625-.851563-1.9375-.851563-4.144531 0-6.082031.40625-.96875.972656-1.859375 1.679687-2.640625 3.207031-2.957031 8.152344-2.957031 11.359375 0 .722656.765625 1.292969 1.664062 1.679688 2.640625.449218.949219.667968 1.992187.640625 3.039063.027343 1.050781-.191407 2.09375-.640625 3.042968-.40625.96875-.972656 1.859375-1.679688 2.640625-1.503906 1.5-3.550781 2.335938-5.679687 2.316407zm0 0"/></g><path d="m376.449219 55.898438h-8v-8c0-4.417969-3.582031-8-8-8s-8 3.582031-8 8v8h-8c-4.417969 0-8 3.582031-8 8 0 4.421874 3.582031 8 8 8h8v8c0 4.421874 3.582031 8 8 8s8-3.578126 8-8v-8h8c4.417969 0 8-3.578126 8-8 0-4.417969-3.582031-8-8-8zm0 0" fill="#ff9811"/><path d="m48.449219 151.898438h-8v-8c0-4.417969-3.582031-8-8-8s-8 3.582031-8 8v8h-8c-4.417969 0-8 3.582031-8 8 0 4.421874 3.582031 8 8 8h8v8c0 4.421874 3.582031 8 8 8s8-3.578126 8-8v-8h8c4.417969 0 8-3.578126 8-8 0-4.417969-3.582031-8-8-8zm0 0" fill="#ff9811"/><path d="m328.449219 247.898438h-8v-8c0-4.417969-3.582031-8-8-8s-8 3.582031-8 8v8h-8c-4.417969 0-8 3.582031-8 8 0 4.421874 3.582031 8 8 8h8v8c0 4.421874 3.582031 8 8 8s8-3.578126 8-8v-8h8c4.417969 0 8-3.578126 8-8 0-4.417969-3.582031-8-8-8zm0 0" fill="#ff9811"/></svg>