<svg height="464pt" viewBox="-32 0 464 464" width="464pt" xmlns="http://www.w3.org/2000/svg"><path d="m314.398438 160h-308.796876l22.949219 264h262.960938l21.601562-248.71875zm-50.398438 224h-64v-64h64zm-56.574219-175.425781 32 55.425781-55.425781 32-32-55.425781zm-100.683593 89.027343 61.824218 16.566407-16.566406 61.832031-61.816406-16.566406zm0 0" fill="#ffc477"/><path d="m302.40625 160-44.8125-64h-257.59375l5.566406 64zm0 0" fill="#e6e7e8"/><path d="m0 96 5.566406 64h32l-5.566406-64zm0 0" fill="#bcbec0"/><path d="m32 464h256l3.480469-40h-262.960938zm0 0" fill="#d1d3d4"/><path d="m28.519531 424 3.480469 40h32l-3.480469-40zm0 0" fill="#a7a9ac"/><path d="m37.566406 160h-32l22.953125 264h32zm0 0" fill="#ffa733"/><path d="m378.296875 59.199219c-38.003906-54.277344-112.808594-67.480469-167.097656-29.496094l13.738281 19.65625c43.429688-30.410156 103.292969-19.855469 133.703125 23.578125 30.410156 43.429688 19.855469 103.292969-23.578125 133.703125l-21.957031-31.359375 35.695312 51.015625c54.277344-38.003906 67.480469-112.808594 29.496094-167.097656zm0 0" fill="#8dc63f"/><path d="m302.40625 160-22.40625-32zm0 0" fill="#bddbff"/><path d="m302.40625 160 10.699219 15.28125zm0 0" fill="#bddbff"/><path d="m224.9375 49.359375 32.65625 46.640625zm0 0" fill="#bddbff"/><path d="m257.59375 96 22.40625 32zm0 0" fill="#bddbff"/><path d="m320 96-6.894531 79.28125 21.957031 31.359375c43.433594-30.410156 53.988281-90.273437 23.578125-133.703125-30.410156-43.433594-90.273437-53.988281-133.703125-23.578125l32.664062 46.640625zm0 0" fill="#f9ed32"/><path d="m291.710938 32.800781c-23.542969-2.964843-47.34375 2.941407-66.773438 16.558594l32.664062 46.640625h24l-27.839843-39.742188c-1.296875-1.871093-1.742188-4.195312-1.234375-6.410156.507812-2.214844 1.925781-4.113281 3.90625-5.230468 10.871094-6.214844 22.855468-10.230469 35.277344-11.816407zm0 0" fill="#ffcd00"/><path d="m337.359375 172.382812 5.886719-67.6875c.199218-2.238281-.558594-4.457031-2.082032-6.113281-1.519531-1.652343-3.667968-2.589843-5.917968-2.582031h-15.246094l-6.894531 79.28125 21.957031 31.359375c5.414062-3.789063 10.417969-8.128906 14.9375-12.945313l-11.199219-16c-1.097656-1.542968-1.609375-3.425781-1.441406-5.3125zm0 0" fill="#ffcd00"/><path d="m320 96h-62.40625l44.8125 64h12.027344l1.328125-15.207031zm0 0" fill="#e6e7e8"/><path d="m200 320h64v64h-64zm0 0" fill="#e6e7e8"/><path d="m200 320h24v64h-24zm0 0" fill="#bcbec0"/><path d="m151.996094 240.574219 55.425781-32 32 55.425781-55.425781 32zm0 0" fill="#e6e7e8"/><path d="m182.929688 236.574219 30.496093-17.597657-6-10.402343-55.425781 32 32 55.425781 18-10.398438-22-38.097656c-2.210938-3.824218-.898438-8.71875 2.929688-10.929687zm0 0" fill="#bcbec0"/><path d="m90.179688 359.433594 16.5625-61.820313 61.820312 16.566407-16.566406 61.816406zm0 0" fill="#e6e7e8"/><path d="m116.246094 351.710938 12.890625-48.09375-22.402344-6-16.558594 61.816406 61.824219 16.566406 1.601562-6-31.699218-8.496094c-4.261719-1.144531-6.792969-5.527344-5.65625-9.792968zm0 0" fill="#bcbec0"/><g fill="#ffdaaa"><path d="m56 216c-2.132812-.042969-4.164062-.902344-5.679688-2.398438-1.515624-1.464843-2.355468-3.492187-2.320312-5.601562.011719-1.046875.230469-2.078125.640625-3.039062.386719-.980469.957031-1.875 1.679687-2.640626 3.207032-2.960937 8.152344-2.960937 11.359376 0 .722656.765626 1.292968 1.660157 1.679687 2.640626.410156.960937.628906 1.992187.640625 3.039062-.03125 4.40625-3.59375 7.96875-8 8zm0 0"/><path d="m112 248c-1.046875-.011719-2.078125-.230469-3.039062-.640625-.980469-.386719-1.875-.957031-2.640626-1.679687-2.289062-2.289063-2.957031-5.742188-1.679687-8.71875.386719-.980469.957031-1.875 1.679687-2.640626 3.207032-2.960937 8.152344-2.960937 11.359376 0 .722656.765626 1.292968 1.660157 1.679687 2.640626 1.054687 2.460937.796875 5.285156-.6875 7.511718-1.484375 2.226563-3.996094 3.554688-6.671875 3.527344zm0 0"/><path d="m64 296c-1.046875-.011719-2.078125-.230469-3.039062-.640625-.96875-.40625-1.863282-.972656-2.640626-1.679687-.703124-.796876-1.296874-1.6875-1.769531-2.640626-.378906-.96875-.566406-2-.550781-3.039062-.027344-1.050781.191406-2.089844.640625-3.039062.726563-2.011719 2.308594-3.59375 4.320313-4.320313 2.980468-1.214844 6.402343-.558594 8.71875 1.679687.722656.765626 1.292968 1.660157 1.679687 2.640626.855469 1.9375.855469 4.140624 0 6.078124-.726563 2.011719-2.308594 3.59375-4.320313 4.320313-.960937.410156-1.992187.628906-3.039062.640625zm0 0"/><path d="m144 200c-2.128906.023438-4.175781-.8125-5.679688-2.320312-1.507812-1.503907-2.34375-3.550782-2.320312-5.679688 0-4.417969 3.582031-8 8-8s8 3.582031 8 8c.003906 2.125-.832031 4.164062-2.320312 5.679688-1.507813 1.503906-3.550782 2.339843-5.679688 2.320312zm0 0"/><path d="m264 232c-2.128906.023438-4.175781-.8125-5.679688-2.320312-1.507812-1.503907-2.34375-3.550782-2.320312-5.679688.027344-2.117188.855469-4.148438 2.320312-5.679688.765626-.722656 1.660157-1.292968 2.640626-1.679687 2.980468-1.214844 6.402343-.558594 8.71875 1.679687 1.460937 1.53125 2.289062 3.5625 2.320312 5.679688.023438 2.128906-.8125 4.175781-2.320312 5.679688-1.503907 1.507812-3.550782 2.34375-5.679688 2.320312zm0 0"/></g><path d="m216 136c-2.128906.023438-4.175781-.8125-5.679688-2.320312-1.507812-1.503907-2.34375-3.550782-2.320312-5.679688-.027344-1.050781.191406-2.089844.640625-3.039062.386719-.980469.957031-1.875 1.679687-2.640626.378907-.34375.777344-.664062 1.191407-.960937.449219-.300781.9375-.542969 1.449219-.71875.476562-.246094.988281-.40625 1.519531-.480469.996093-.238281 2.035156-.238281 3.03125 0 .53125.074219 1.050781.238282 1.527343.480469.492188.160156.953126.402344 1.359376.71875.449218.257813.851562.582031 1.203124.960937.773438.738282 1.371094 1.640626 1.757813 2.640626.410156.960937.628906 1.992187.640625 3.039062.023438 2.144531-.84375 4.203125-2.398438 5.679688-1.507812 1.449218-3.507812 2.28125-5.601562 2.320312zm0 0" fill="#fff"/><path d="m72 72c-1.046875-.011719-2.078125-.230469-3.039062-.640625-.96875-.40625-1.863282-.972656-2.640626-1.679687-.703124-.777344-1.273437-1.671876-1.679687-2.640626-.449219-.949218-.667969-1.988281-.640625-3.039062.011719-1.046875.230469-2.078125.640625-3.039062.386719-.980469.957031-1.875 1.679687-2.640626 3.207032-2.960937 8.152344-2.960937 11.359376 0 .722656.765626 1.292968 1.660157 1.679687 2.640626.851563 1.9375.851563 4.140624 0 6.078124-.40625.96875-.976563 1.863282-1.679687 2.640626-1.507813 1.503906-3.550782 2.339843-5.679688 2.320312zm0 0" fill="#ffb655"/><path d="m96 16c-2.144531.027344-4.203125-.839844-5.679688-2.398438-1.515624-1.464843-2.355468-3.492187-2.320312-5.601562-.027344-1.050781.191406-2.089844.640625-3.039062.386719-.980469.957031-1.875 1.679687-2.640626.765626-.722656 1.660157-1.292968 2.640626-1.679687 2.976562-1.253906 6.417968-.5898438 8.71875 1.679687 1.460937 1.53125 2.289062 3.5625 2.320312 5.679688.03125 2.105469-.808594 4.132812-2.320312 5.601562-.753907.753907-1.652344 1.351563-2.640626 1.757813-.960937.410156-1.992187.628906-3.039062.640625zm0 0" fill="#ffb655"/><path d="m24 32c-2.128906.023438-4.175781-.8125-5.679688-2.320312-1.507812-1.503907-2.34375-3.550782-2.320312-5.679688-.027344-1.050781.191406-2.089844.640625-3.039062.40625-.96875.972656-1.863282 1.679687-2.640626.378907-.34375.777344-.664062 1.191407-.960937.449219-.300781.9375-.542969 1.449219-.71875.453124-.230469.9375-.394531 1.4375-.480469 1.023437-.238281 2.089843-.238281 3.113281 0 .53125.074219 1.050781.238282 1.527343.480469.511719.175781.996094.417969 1.441407.71875.417969.296875.816406.617187 1.199219.960937.707031.777344 1.273437 1.671876 1.679687 2.640626.851563 1.9375.851563 4.140624 0 6.078124-.40625.96875-.976563 1.863282-1.679687 2.640626-1.507813 1.503906-3.550782 2.339843-5.679688 2.320312zm0 0" fill="#ffb655"/><path d="m160 16h-8v-8c0-4.417969-3.582031-8-8-8s-8 3.582031-8 8v8h-8c-4.417969 0-8 3.582031-8 8s3.582031 8 8 8h8v8c0 4.417969 3.582031 8 8 8s8-3.582031 8-8v-8h8c4.417969 0 8-3.582031 8-8s-3.582031-8-8-8zm0 0" fill="#ff9811"/></svg>