<svg height="480pt" viewBox="-140 0 480 480.09831" width="480pt" xmlns="http://www.w3.org/2000/svg"><path d="m184.015625 464.097656h-72v-72c0-4.417968-3.582031-8-8-8s-8 3.582032-8 8v72h-72c-4.417969 0-8 3.582032-8 8 0 4.417969 3.582031 8 8 8h160c4.417969 0 8-3.582031 8-8 0-4.417968-3.582031-8-8-8zm0 0" fill="#acabb1"/><path d="m152.015625 56.097656c-2.324219.003906-4.53125-1.003906-6.050781-2.757812-1.523438-1.75-2.207032-4.078125-1.878906-6.378906.449218-3.125 4.761718-31.03125 18.265624-44.519532 2.007813-2.078125 4.980469-2.914062 7.78125-2.179687 2.796876.730469 4.980469 2.914062 5.710938 5.710937.734375 2.796875-.101562 5.773438-2.179688 7.78125-8.289062 8.296875-12.722656 28.425782-13.730468 35.480469-.5625 3.9375-3.9375 6.863281-7.917969 6.863281zm0 0" fill="#898890"/><path d="m152.015625 96.097656h-144c5.957031 15.5625 10.507813 31.625 13.597656 48h164.800781c3.089844-16.375 7.644532-32.4375 13.601563-48zm0 0" fill="#e6e7e8"/><path d="m34.015625 96.097656h-26c5.957031 15.5625 10.507813 31.625 13.597656 48h32c-3.089843-16.375-7.640625-32.4375-13.597656-48zm0 0" fill="#bcbec0"/><path d="m184.015625 168.097656c.105469-8.054687.90625-16.082031 2.398437-24h-164.800781c1.492188 7.917969 2.296875 15.945313 2.402344 24 0 24-16 80-16 128-.507813 25.613282 9.441406 50.328125 27.558594 68.441406 18.113281 18.117188 42.828125 28.066407 68.441406 27.558594 25.613281.507813 50.328125-9.441406 68.441406-27.558594 18.113281-18.113281 28.066407-42.828124 27.558594-68.441406 0-48-16-104-16-128zm0 0" fill="#ff7956"/><path d="m176.015625 72.097656c0 13.253906-10.746094 24-24 24s-24-10.746094-24-24 10.746094-24 24-24 24 10.746094 24 24zm0 0" fill="#cd2a00"/><path d="m152.015625 72.097656c.019531-8.539062 4.59375-16.421875 12-20.671875-3.632813-2.15625-7.777344-3.304687-12-3.328125-13.253906 0-24 10.746094-24 24s10.746094 24 24 24c4.222656-.019531 8.367187-1.171875 12-3.328125-7.40625-4.25-11.980469-12.132812-12-20.671875zm0 0" fill="#ab2300"/><path d="m15.6875 5.835938c-1.300781-4.175782-5.710938-6.53125-9.902344-5.292969-4.191406 1.234375-6.617187 5.609375-5.441406 9.820312l25.328125 85.734375h16.6875zm0 0" fill="#ff5023"/><path d="m119.6875 357.835938-63.152344-213.738282h-16.679687l64.488281 218.265625c.773438 2.78125 2.988281 4.929688 5.789062 5.617188 2.804688.691406 5.761719-.179688 7.742188-2.28125 1.976562-2.101563 2.671875-5.109375 1.8125-7.863281zm0 0" fill="#ff5023"/><path d="m42.359375 96.097656h-16.6875l14.183594 48h16.679687zm0 0" fill="#ff6243"/><g fill="#ffbcab"><path d="m112.015625 184.097656c-2.128906.019532-4.175781-.816406-5.679687-2.320312-.707032-.777344-1.273438-1.671875-1.679688-2.640625-.855469-1.933594-.855469-4.140625 0-6.078125.386719-.980469.957031-1.875 1.679688-2.640625.777343-.707031 1.667968-1.273438 2.640624-1.679688 2.980469-1.207031 6.394532-.550781 8.71875 1.679688.707032.777343 1.273438 1.671875 1.679688 2.640625 1.054688 2.460937.796875 5.285156-.691406 7.511718-1.484375 2.230469-3.992188 3.554688-6.667969 3.527344zm0 0"/><path d="m152.015625 232.097656c-2.128906.019532-4.175781-.816406-5.679687-2.320312-.703126-.796875-1.296876-1.6875-1.769532-2.640625-.378906-.964844-.566406-2-.550781-3.039063-.027344-1.046875.191406-2.089844.640625-3.039062.40625-.96875.972656-1.863282 1.679688-2.640625.765624-.722657 1.660156-1.292969 2.640624-1.679688 2.980469-1.207031 6.394532-.550781 8.71875 1.679688.707032.777343 1.273438 1.671875 1.679688 2.640625.851562 1.9375.851562 4.144531 0 6.078125-.726562 2.011719-2.308594 3.59375-4.320312 4.320312-.960938.410157-1.996094.628907-3.039063.640625zm0 0"/><path d="m128.015625 296.097656c-2.675781.027344-5.1875-1.296875-6.671875-3.527344-1.484375-2.226562-1.742188-5.050781-.6875-7.511718.386719-.980469.957031-1.875 1.679688-2.640625 3.207031-2.960938 8.152343-2.960938 11.359374 0 .707032.777343 1.273438 1.671875 1.679688 2.640625.855469 1.9375.855469 4.144531 0 6.078125-.40625.96875-.976562 1.863281-1.679688 2.640625-1.507812 1.503906-3.554687 2.339844-5.679687 2.320312zm0 0"/></g><path d="m40.015625 296.097656c0-48 16-104 16-128-.105469-8.054687-.910156-16.082031-2.402344-24h-32c1.492188 7.917969 2.296875 15.945313 2.402344 24 0 24-16 80-16 128-.507813 25.613282 9.441406 50.328125 27.558594 68.441406 18.113281 18.117188 42.828125 28.066407 68.441406 27.558594 5.359375-.03125 10.710937-.480468 16-1.351562-46.726563-6.851563-81.027344-47.433594-80-94.648438zm0 0" fill="#ff5023"/><path d="m48.015625 328.097656c-2.675781.027344-5.1875-1.296875-6.671875-3.527344-1.484375-2.226562-1.742188-5.050781-.6875-7.511718.386719-.980469.957031-1.875 1.679688-2.640625 1.890624-1.871094 4.589843-2.683594 7.199218-2.160157.53125.074219 1.046875.238282 1.527344.480469.507812.175781.992188.417969 1.441406.71875l1.199219.960938c.722656.765625 1.292969 1.660156 1.679687 2.640625 1.054688 2.460937.796876 5.289062-.691406 7.515625-1.488281 2.230469-4 3.554687-6.675781 3.523437zm0 0" fill="#ffbcab"/></svg>