<svg height="480pt" viewBox="-48 0 480 480.09831" width="480pt" xmlns="http://www.w3.org/2000/svg"><path d="m296.050781 472.097656c0 4.417969-3.582031 8-8 8h-192c-4.417969 0-8-3.582031-8-8 0-4.417968 3.582031-8 8-8h88v-240c0-4.417968 3.582031-8 8-8s8 3.582032 8 8v240h88c4.417969 0 8 3.582032 8 8zm0 0" fill="#acabb1"/><path d="m248.050781 136.097656c0 18.8125-13.109375 35.078125-31.488281 39.082032-18.378906 4.007812-37.0625-5.335938-44.886719-22.441407-7.828125-17.105469-2.675781-37.355469 12.375-48.640625h-120l122.34375 122.34375c3.121094 3.125 8.1875 3.125 11.3125 0l122.34375-122.34375h-88c10.0625 7.5625 15.984375 19.414063 16 32zm0 0" fill="#00d7df"/><path d="m96.050781 104.097656h-32l122.34375 122.34375c3.121094 3.125 8.1875 3.125 11.3125 0l10.34375-10.34375zm0 0" fill="#009698"/><path d="m218.546875 40.097656h-218.4960938l63.9999998 64h120c14.21875-10.667968 33.777344-10.667968 48 0h88l64-64zm0 0" fill="#e6e7e8"/><path d="m.0507812 40.097656 63.9999998 64h32l-64-64zm0 0" fill="#bcbec0"/><path d="m208.050781 104.097656c-4.191406.011719-7.679687-3.207031-8-7.382812-.175781-2.28125-3.851562-56.113282 34.320313-94.273438 2.007812-2.078125 4.980468-2.914062 7.777344-2.179687 2.796874.730469 4.980468 2.914062 5.714843 5.710937.730469 2.796875-.101562 5.773438-2.183593 7.78125-32.992188 33.015625-29.695313 81.25-29.628907 81.726563.167969 2.125-.515625 4.226562-1.902343 5.84375-1.386719 1.617187-3.359376 2.617187-5.484376 2.773437-.207031 0-.421874 0-.613281 0zm0 0" fill="#787680"/><path d="m168.050781 136.097656c0 18.8125 13.105469 35.078125 31.484375 39.082032 18.378906 4.007812 37.066406-5.335938 44.890625-22.441407s2.671875-37.355469-12.375-48.640625c-14.222656-10.667968-33.78125-10.667968-48 0-10.0625 7.5625-15.988281 19.414063-16 32zm0 0" fill="#cd2a00"/><path d="m192.050781 136.097656c.011719-12.585937 5.9375-24.4375 16-32 3.613281-2.714844 7.675781-4.785156 12-6.113281-15.042969-4.789063-31.5-.289063-42.003906 11.496094-10.503906 11.789062-13.097656 28.648437-6.613281 43.042969 6.484375 14.394531 20.828125 23.632812 36.617187 23.574218 4.078125-.054687 8.128907-.742187 12-2.039062-16.621093-5.183594-27.957031-20.550782-28-37.960938zm0 0" fill="#ab2300"/></svg>