<svg height="472pt" viewBox="-60 0 472 472.01942" width="472pt" xmlns="http://www.w3.org/2000/svg"><path d="m240.007812 456.019531h-88v-200c0-4.417969-3.578124-8-8-8-4.417968 0-8 3.582031-8 8v200h-88c-4.417968 0-8 3.582031-8 8s3.582032 8 8 8h192c4.421876 0 8-3.582031 8-8s-3.578124-8-8-8zm0 0" fill="#acabb1"/><path d="m150.585938 262.515625 104.136718-150.496094h-221.480468l104.191406 150.496094c1.496094 2.15625 3.953125 3.445313 6.574218 3.445313 2.625 0 5.082032-1.289063 6.578126-3.445313zm0 0" fill="#ff6243"/><path d="m57.242188 112.019531h-24l104.191406 150.496094c1.496094 2.15625 3.953125 3.445313 6.574218 3.445313 2.625 0 5.082032-1.289063 6.578126-3.445313l5.421874-7.832031zm0 0" fill="#cd2a00"/><path d="m256.007812 64.019531h-255.9999995l33.2343755 48h221.480468l16.886719-24.398437 3.28125-4.722656 13.117187-18.878907zm0 0" fill="#e6e7e8"/><path d="m.0078125 64.019531 33.2343755 48h24l-33.234376-48zm0 0" fill="#bcbec0"/><path d="m328.570312 23.460938c-14.992187-15.019532-35.339843-23.460938-56.5625-23.460938-21.21875 0-41.566406 8.441406-56.558593 23.460938l40.558593 40.558593h32l-13.117187 18.878907 53.679687 53.679687c15.019532-14.988281 23.457032-35.339844 23.457032-56.558594s-8.4375-41.570312-23.457032-56.558593zm0 0" fill="#f9ed32"/><path d="m245.457031 29.46875c-1.613281-1.632812-2.457031-3.871094-2.324219-6.160156.136719-2.285156 1.238282-4.410156 3.027344-5.839844 10.949219-8.730469 24.003906-14.414062 37.847656-16.480469-25.128906-3.871093-50.597656 4.476563-68.558593 22.472657l40.558593 40.558593h24zm0 0" fill="#ebbf00"/><path d="m298.890625 82.898438 4.390625-6.3125c1.703125-2.445313 1.902344-5.636719.519531-8.273438-1.378906-2.640625-4.113281-4.296875-7.09375-4.292969h-8.699219l-13.117187 18.878907 53.679687 53.679687c4.035157-4.03125 7.625-8.488281 10.710938-13.285156zm0 0" fill="#ebbf00"/><g fill="#ffcd00"><path d="m300.296875 59.730469c-3.234375 0-6.152344-1.949219-7.386719-4.9375-1.238281-2.988281-.554687-6.429688 1.730469-8.71875l11.3125-11.3125c2.007813-2.078125 4.984375-2.910157 7.78125-2.179688s4.980469 2.917969 5.714844 5.714844c.730469 2.796875-.105469 5.769531-2.183594 7.777344l-11.3125 11.3125c-1.5 1.5-3.535156 2.34375-5.65625 2.34375zm0 0"/><path d="m272.007812 48.019531c-4.417968 0-8-3.582031-8-8v-16c0-4.417969 3.582032-8 8-8 4.421876 0 8 3.582031 8 8v16c0 4.417969-3.578124 8-8 8zm0 0"/><path d="m328.007812 88.019531h-16c-4.417968 0-8-3.582031-8-8s3.582032-8 8-8h16c4.421876 0 8 3.582031 8 8s-3.578124 8-8 8zm0 0"/></g><path d="m136.007812 200.019531c-2.117187-.03125-4.144531-.859375-5.679687-2.320312-.703125-.777344-1.273437-1.671875-1.679687-2.640625-.410157-.960938-.625-1.992188-.640626-3.039063 0-4.417969 3.582032-8 8-8 4.421876 0 8 3.582031 8 8 .03125 1.050781-.191406 2.089844-.636718 3.039063-.40625.96875-.976563 1.863281-1.679688 2.640625-.402344.320312-.800781.640625-1.28125.960937-.410156.316406-.867187.558594-1.359375.71875-.453125.230469-.941406.394532-1.441406.480469-.527344.09375-1.0625.144531-1.601563.160156zm0 0" fill="#ffbcab"/><path d="m168.007812 160.019531c-2.125.023438-4.171874-.8125-5.679687-2.320312-1.503906-1.503907-2.339844-3.550781-2.320313-5.679688.015626-1.046875.230469-2.078125.640626-3.039062.40625-.96875.976562-1.863281 1.679687-2.640625 3.210937-2.960938 8.152344-2.960938 11.363281 0 .703125.777344 1.273438 1.671875 1.679688 2.640625.410156.960937.625 1.992187.636718 3.039062.023438 2.128907-.8125 4.175781-2.316406 5.679688-1.507812 1.507812-3.554687 2.34375-5.683594 2.320312zm0 0" fill="#ffbcab"/><path d="m104.007812 152.019531c-4.417968 0-8-3.582031-8-8s3.582032-8 8-8c4.421876 0 8 3.582031 8 8-.011718.535157-.066406 1.070313-.15625 1.601563-.089843.5-.25.984375-.480468 1.4375-.160156.492187-.402344.953125-.722656 1.359375-.320313.480469-.640626.882812-.957032 1.28125-1.535156 1.460937-3.5625 2.289062-5.683594 2.320312zm0 0" fill="#ffbcab"/></svg>