<svg height="464pt" viewBox="-48 0 464 464.00005" width="464pt" xmlns="http://www.w3.org/2000/svg"><path d="m21.761719 416h-.074219c3.257812 14.535156 6.082031 26.601562 7.71875 35.070312 1.453125 7.523438 8.046875 12.949219 15.707031 12.929688h277.773438c7.660156.019531 14.253906-5.40625 15.707031-12.929688 1.636719-8.46875 4.460938-20.535156 7.71875-35.070312zm0 0" fill="#d1d3d4"/><path d="m61.40625 451.070312c-1.597656-8.46875-4.460938-20.535156-7.71875-35.070312h-32c3.257812 14.535156 6.082031 26.601562 7.71875 35.070312 1.453125 7.523438 8.046875 12.949219 15.707031 12.929688h32c-7.660156.019531-14.253906-5.40625-15.707031-12.929688zm0 0" fill="#a7a9ac"/><path d="m349.28125 80c-5.601562-32.847656-10.777344-59.304688-12.449219-73.023438-.511719-3.976562-3.894531-6.960937-7.902343-6.976562h-289.859376c-4.019531 0-7.417968 2.984375-7.933593 6.976562-1.671875 13.71875-6.816407 40.175782-12.449219 73.023438zm0 0" fill="#e6e7e8"/><path d="m71.070312 0h-32c-4.019531 0-7.417968 2.984375-7.933593 6.976562-1.671875 13.71875-6.816407 40.175782-12.449219 73.023438h32c5.601562-32.847656 10.777344-59.304688 12.449219-73.023438.515625-3.992187 3.914062-6.976562 7.933593-6.976562zm0 0" fill="#bcbec0"/><path d="m349.3125 80h-330.625c-10.933594 58.070312-17.179688 116.925781-18.6875 176 0 58.929688 12.574219 119.359375 21.6875 160h324.625c9.113281-40.640625 21.6875-101.070312 21.6875-160-1.507812-59.074219-7.753906-117.929688-18.6875-176zm-165.3125 304-61.816406-16.566406 16.558594-61.816406 61.824218 16.566406zm8-143.425781 55.425781-32 32 55.425781-55.425781 32zm112 143.425781h-64v-64h64zm0 0" fill="#ff6243"/><path d="m50.6875 80h-32c-10.933594 58.070312-17.179688 116.925781-18.6875 176 0 58.929688 12.574219 119.359375 21.6875 160h32c-9.113281-40.640625-21.6875-101.070312-21.6875-160 1.507812-59.074219 7.753906-117.929688 18.6875-176zm0 0" fill="#cd2a00"/><path d="m240 320h64v64h-64zm0 0" fill="#e6e7e8"/><path d="m240 320h24v64h-24zm0 0" fill="#bcbec0"/><path d="m191.996094 240.574219 55.425781-32 32 55.425781-55.425781 32zm0 0" fill="#e6e7e8"/><path d="m222.929688 236.574219 30.496093-17.597657-6-10.402343-55.425781 32 32 55.425781 18-10.398438-22-38.097656c-2.210938-3.824218-.898438-8.71875 2.929688-10.929687zm0 0" fill="#bcbec0"/><path d="m122.179688 367.433594 16.5625-61.820313 61.820312 16.566407-16.5625 61.820312zm0 0" fill="#e6e7e8"/><path d="m148.246094 359.710938 12.890625-48.09375-22.402344-6-16.558594 61.816406 61.824219 16.566406 1.601562-6-31.699218-8.496094c-4.261719-1.144531-6.792969-5.527344-5.65625-9.792968zm0 0" fill="#bcbec0"/><g fill="#ffbcab"><path d="m104 272h-8v-8c0-4.417969-3.582031-8-8-8s-8 3.582031-8 8v8h-8c-4.417969 0-8 3.582031-8 8s3.582031 8 8 8h8v8c0 4.417969 3.582031 8 8 8s8-3.582031 8-8v-8h8c4.417969 0 8-3.582031 8-8s-3.582031-8-8-8zm0 0"/><path d="m256 128h-8v-8c0-4.417969-3.582031-8-8-8s-8 3.582031-8 8v8h-8c-4.417969 0-8 3.582031-8 8s3.582031 8 8 8h8v8c0 4.417969 3.582031 8 8 8s8-3.582031 8-8v-8h8c4.417969 0 8-3.582031 8-8s-3.582031-8-8-8zm0 0"/><path d="m130.320312 250.320312c-3.105468 3.128907-3.09375 8.183594.03125 11.296876 3.121094 3.113281 8.175782 3.113281 11.296876 0 3.125-3.113282 3.136718-8.167969.03125-11.296876-3.214844-2.941406-8.144532-2.941406-11.359376 0zm0 0"/><path d="m96 224c-1.050781.027344-2.089844-.191406-3.039062-.640625-.96875-.40625-1.863282-.972656-2.640626-1.679687-.320312-.398438-.640624-.800782-.960937-1.28125-.316406-.40625-.558594-.867188-.71875-1.359376-.230469-.453124-.394531-.9375-.480469-1.4375-.09375-.53125-.144531-1.066406-.160156-1.601562.03125-2.117188.859375-4.144531 2.320312-5.679688.777344-.707031 1.671876-1.273437 2.640626-1.679687 2.988281-1.167969 6.378906-.511719 8.71875 1.679687 2.308593 2.289063 3 5.746094 1.753906 8.746094-1.246094 3.003906-4.183594 4.953125-7.433594 4.933594zm0 0"/><path d="m152 200c-3.769531-.039062-6.992188-2.730469-7.699219-6.433594s1.292969-7.390625 4.785157-8.816406c3.488281-1.425781 7.5-.195312 9.589843 2.945312 2.085938 3.140626 1.671875 7.316407-.996093 9.984376-1.535157 1.460937-3.5625 2.289062-5.679688 2.320312zm0 0"/><path d="m96 152c-3.769531-.039062-6.992188-2.730469-7.699219-6.433594s1.292969-7.390625 4.785157-8.816406c3.488281-1.425781 7.5-.195312 9.589843 2.945312 2.085938 3.140626 1.671875 7.316407-.996093 9.984376-1.535157 1.460937-3.5625 2.289062-5.679688 2.320312zm0 0"/><path d="m312 184c-3.769531-.039062-6.992188-2.730469-7.699219-6.433594s1.292969-7.390625 4.785157-8.816406c3.488281-1.425781 7.5-.195312 9.589843 2.945312 2.085938 3.140626 1.671875 7.316407-.996093 9.984376-1.535157 1.460937-3.5625 2.289062-5.679688 2.320312zm0 0"/><path d="m320 264c-4.417969 0-8-3.582031-8-8s3.582031-8 8-8 8 3.582031 8 8c-.011719.535156-.066406 1.070312-.160156 1.601562-.085938.5-.25.984376-.480469 1.4375-.160156.492188-.402344.953126-.71875 1.359376-.320313.480468-.640625.882812-.960937 1.28125-1.523438 1.472656-3.558594 2.304687-5.679688 2.320312zm0 0"/></g></svg>