<svg height="472pt" viewBox="-52 0 472 472.09831" width="472pt" xmlns="http://www.w3.org/2000/svg"><path d="m256.09375 184.097656h-144v272c0 8.835938 7.164062 16 16 16h144c8.839844 0 16-7.164062 16-16v-272zm0 0" fill="#ffde55"/><path d="m280.09375 104.097656h-120c0 26.511719-21.488281 48-48 48v32h176v-72c0-4.417968-3.578125-8-8-8zm0 0" fill="#e6e7e8"/><path d="m112.09375 152.097656v-40c0-4.417968 3.582031-8 8-8h40c0-26.507812-21.488281-48-48-48-26.507812 0-48 21.492188-48 48 0 26.511719 21.492188 48 48 48zm0 0" fill="#f9ed32"/><path d="m112.09375 112.097656v40c26.511719 0 48-21.488281 48-48h-40c-4.417969 0-8 3.582032-8 8zm0 0" fill="#f9ed32"/><path d="m112.09375 184.097656h32v-44.296875c-8.773438 7.921875-20.175781 12.300781-32 12.296875zm0 0" fill="#bcbec0"/><path d="m152.09375 104.097656h-32c-4.417969 0-8 3.582032-8 8v40c11.824219.003906 23.226562-4.375 32-12.296875v-27.703125c0-4.417968 3.582031-8 8-8zm0 0" fill="#ffcd00"/><path d="m144.09375 456.097656v-272h-32v272c0 8.835938 7.164062 16 16 16h32c-8.835938 0-16-7.164062-16-16zm0 0" fill="#ebbf00"/><g fill="#fcedbd"><path d="m144.09375 448.097656c-.535156-.015625-1.070312-.070312-1.597656-.160156-.5-.085938-.988282-.25-1.441406-.480469-.507813-.171875-.992188-.414062-1.4375-.71875l-1.203126-.960937c-1.457031-1.53125-2.289062-3.5625-2.320312-5.679688.015625-1.042968.230469-2.078125.640625-3.039062.386719-.980469.957031-1.875 1.679687-2.640625l1.203126-.960938c.445312-.300781.929687-.542969 1.4375-.71875.453124-.230469.941406-.394531 1.441406-.480469 1.054687-.238281 2.144531-.238281 3.199218 0 .5.085938.988282.25 1.441407.480469.507812.175781.992187.417969 1.4375.71875l1.203125.960938c3.09375 3.15625 3.09375 8.207031 0 11.359375l-1.203125.960937c-.445313.304688-.929688.546875-1.4375.71875-.453125.230469-.941407.394531-1.441407.480469-.527343.089844-1.0625.144531-1.601562.160156zm0 0"/><path d="m152.09375 384.097656c-2.125.023438-4.171875-.8125-5.679688-2.320312-1.503906-1.503906-2.339843-3.550782-2.320312-5.679688.015625-1.042968.230469-2.078125.640625-3.039062.40625-.96875.976563-1.863282 1.679687-2.640625 2.320313-2.238281 5.738282-2.894531 8.722657-1.679688 2.007812.726563 3.589843 2.308594 4.320312 4.320313.410157.960937.625 1.996094.636719 3.039062-.027344 2.117188-.859375 4.148438-2.316406 5.679688-.78125.707031-1.671875 1.273437-2.640625 1.679687-.949219.449219-1.992188.667969-3.042969.640625zm0 0"/><path d="m184.09375 224.097656c-2.125.023438-4.171875-.8125-5.679688-2.320312-1.503906-1.503906-2.339843-3.550782-2.320312-5.679688.015625-1.042968.230469-2.078125.640625-3.039062.386719-.980469.957031-1.875 1.679687-2.640625 3.210938-2.960938 8.152344-2.960938 11.363282 0 .722656.765625 1.292968 1.660156 1.679687 2.640625.445313.949218.667969 1.992187.636719 3.039062.023438 2.128906-.8125 4.175782-2.316406 5.679688-1.507813 1.507812-3.554688 2.34375-5.683594 2.320312zm0 0"/><path d="m144.09375 272.097656c-.535156-.015625-1.070312-.070312-1.597656-.160156-.5-.085938-.988282-.25-1.441406-.480469-.507813-.171875-.992188-.414062-1.4375-.71875-.421876-.296875-.820313-.617187-1.203126-.960937-3.136718-3.136719-3.136718-8.222656 0-11.359375 3.136719-3.136719 8.226563-3.136719 11.363282 0 .34375.378906.664062.78125.957031 1.199219.304687.445312.546875.929687.722656 1.441406.230469.453125.390625.9375.480469 1.441406.210938 1.054688.210938 2.140625 0 3.199219-.089844.5-.25.984375-.480469 1.4375-.175781.511719-.417969.996093-.722656 1.441406-.550781.871094-1.289063 1.609375-2.160156 2.160156-.445313.304688-.929688.546875-1.4375.71875-.453125.230469-.941407.394531-1.441407.480469-.527343.089844-1.0625.144531-1.601562.160156zm0 0"/><path d="m200.09375 272.097656c-1.046875.027344-2.089844-.191406-3.039062-.640625-.976563-.386719-1.875-.957031-2.640626-1.679687-1.457031-1.53125-2.289062-3.5625-2.320312-5.679688.015625-1.042968.230469-2.078125.640625-3.039062.40625-.96875.976563-1.863282 1.679687-2.640625.765626-.722657 1.664063-1.292969 2.640626-1.679688 2.980468-1.253906 6.421874-.589843 8.722656 1.679688.703125.777343 1.273437 1.671875 1.679687 2.640625.445313.949218.667969 1.992187.636719 3.039062.023438 2.128906-.8125 4.175782-2.316406 5.679688-1.507813 1.507812-3.554688 2.34375-5.683594 2.320312zm0 0"/><path d="m192.09375 344.097656c-1.046875.027344-2.089844-.191406-3.039062-.640625-.96875-.40625-1.859376-.972656-2.640626-1.679687-.722656-.765625-1.292968-1.660156-1.679687-2.640625-.410156-.960938-.625-1.992188-.640625-3.039063.03125-2.117187.863281-4.144531 2.320312-5.679687.78125-.707031 1.671876-1.273438 2.640626-1.679688 2.980468-1.253906 6.421874-.589843 8.722656 1.679688 1.457031 1.535156 2.289062 3.5625 2.316406 5.679687.03125 1.050782-.191406 2.089844-.636719 3.039063-.386719.980469-.957031 1.875-1.679687 2.640625-1.535156 1.460937-3.5625 2.289062-5.683594 2.320312zm0 0"/></g><path d="m192.09375 160.097656c-1.042969-.011718-2.078125-.230468-3.039062-.640625-.96875-.40625-1.859376-.972656-2.640626-1.679687-1.457031-1.53125-2.289062-3.5625-2.320312-5.679688.015625-1.042968.230469-2.078125.640625-3.039062.386719-.980469.957031-1.875 1.679687-2.640625.78125-.707031 1.671876-1.273438 2.640626-1.679688 2.980468-1.253906 6.421874-.589843 8.722656 1.679688.722656.765625 1.292968 1.660156 1.679687 2.640625.445313.949218.667969 1.992187.636719 3.039062.023438 2.128906-.8125 4.175782-2.316406 5.679688-1.507813 1.507812-3.554688 2.34375-5.683594 2.320312zm0 0" fill="#fff"/><path d="m48.09375 64.097656c-2.117188-.03125-4.144531-.859375-5.679688-2.320312-.703124-.777344-1.273437-1.671875-1.679687-2.640625-.410156-.960938-.625-1.992188-.640625-3.039063.03125-2.117187.863281-4.144531 2.320312-5.679687l1.203126-.960938c.445312-.300781.929687-.542969 1.4375-.71875.453124-.230469.941406-.394531 1.441406-.480469 1.558594-.328124 3.179687-.160156 4.640625.480469.96875.40625 1.859375.972657 2.640625 1.679688 1.457031 1.535156 2.289062 3.5625 2.316406 5.679687.03125 1.050782-.191406 2.089844-.636719 3.039063-.730469 2.011719-2.3125 3.59375-4.320312 4.320312-.949219.449219-1.992188.667969-3.042969.640625zm0 0" fill="#ffb655"/><path d="m8.09375 104.097656c-3.25.019532-6.1875-1.929687-7.433594-4.929687-1.246094-3.003907-.550781-6.460938 1.753906-8.75 1.917969-1.886719 4.648438-2.699219 7.28125-2.160157.5.085938.988282.25 1.441407.480469.507812.175781.992187.417969 1.4375.71875l1.203125.960938c3.09375 3.15625 3.09375 8.207031 0 11.359375l-1.203125.960937c-.445313.304688-.929688.546875-1.4375.71875-.453125.230469-.941407.394531-1.441407.480469-.527343.09375-1.0625.148438-1.601562.160156zm0 0" fill="#ffb655"/><path d="m24.09375 280.097656c-1.046875.027344-2.089844-.191406-3.039062-.640625-2.007813-.726562-3.589844-2.308593-4.320313-4.320312-.410156-.960938-.625-1.992188-.640625-3.039063.015625-.535156.070312-1.070312.160156-1.597656.089844-.503906.25-.988281.480469-1.441406.175781-.511719.417969-.996094.722656-1.441406.292969-.417969.613281-.820313.957031-1.199219.78125-.707031 1.671876-1.273438 2.640626-1.679688 1.460937-.640625 3.082031-.808593 4.640624-.480469.5.085938.988282.25 1.441407.480469.507812.175781.992187.417969 1.4375.71875l1.203125.960938.957031 1.199219c.304687.445312.546875.929687.722656 1.441406.230469.453125.390625.9375.480469 1.441406.089844.527344.144531 1.0625.15625 1.597656-.011719 1.046875-.226562 2.078125-.636719 3.039063-.40625.96875-.976562 1.863281-1.679687 2.640625-.382813.34375-.78125.664062-1.203125.960937-.445313.304688-.929688.546875-1.4375.71875-.453125.230469-.941407.394531-1.441407.480469-.527343.09375-1.0625.148438-1.601562.160156zm0 0" fill="#ffb655"/><path d="m80.09375 224.097656c-2.117188-.03125-4.144531-.859375-5.679688-2.320312-.703124-.777344-1.273437-1.671875-1.679687-2.640625-.410156-.960938-.625-1.992188-.640625-3.039063.015625-.535156.070312-1.070312.160156-1.597656.089844-.503906.25-.988281.480469-1.441406.175781-.511719.417969-.996094.722656-1.441406l.957031-1.199219c2.300782-2.269531 5.742188-2.933594 8.722657-1.679688.96875.40625 1.859375.972657 2.640625 1.679688l.957031 1.199219c.304687.445312.546875.929687.722656 1.441406.230469.453125.390625.9375.480469 1.441406.089844.527344.144531 1.0625.15625 1.597656-.011719 1.046875-.226562 2.078125-.636719 3.039063-.730469 2.011719-2.3125 3.59375-4.320312 4.320312-.960938.410157-1.996094.628907-3.042969.640625zm0 0" fill="#ffb655"/><path d="m328.09375 288.097656c-3.25.019532-6.1875-1.929687-7.433594-4.929687-1.246094-3.003907-.550781-6.460938 1.753906-8.75 2.320313-2.238281 5.738282-2.894531 8.722657-1.679688.976562.386719 1.875.957031 2.640625 1.679688 1.457031 1.535156 2.289062 3.5625 2.316406 5.679687-.011719 1.046875-.226562 2.078125-.636719 3.039063-.367187.992187-.941406 1.890625-1.679687 2.640625-1.535156 1.460937-3.5625 2.289062-5.683594 2.320312zm0 0" fill="#ffb655"/><path d="m336.09375 144.097656c-1.042969-.011718-2.078125-.230468-3.039062-.640625-.96875-.40625-1.859376-.972656-2.640626-1.679687-3.09375-3.152344-3.09375-8.203125 0-11.359375.78125-.707031 1.671876-1.273438 2.640626-1.679688 2.980468-1.238281 6.414062-.578125 8.722656 1.679688 2.304687 2.289062 3 5.746093 1.753906 8.75-1.246094 3-4.183594 4.949219-7.4375 4.929687zm0 0" fill="#ffb655"/><path d="m192.09375 424.097656c-1.042969-.011718-2.078125-.230468-3.039062-.640625-.96875-.40625-1.859376-.972656-2.640626-1.679687-1.457031-1.53125-2.289062-3.5625-2.320312-5.679688.015625-1.042968.230469-2.078125.640625-3.039062.730469-2.011719 2.3125-3.59375 4.320313-4.320313 2.984374-1.207031 6.398437-.550781 8.722656 1.679688.722656.765625 1.292968 1.660156 1.679687 2.640625.445313.949218.667969 1.992187.636719 3.039062.023438 2.128906-.8125 4.175782-2.316406 5.679688-1.507813 1.507812-3.554688 2.34375-5.683594 2.320312zm0 0" fill="#fcedbd"/><path d="m184.09375 16.097656h-8v-8c0-4.417968-3.578125-7.9999998-8-7.9999998-4.417969 0-8 3.5820318-8 7.9999998v8h-8c-4.417969 0-8 3.582032-8 8 0 4.417969 3.582031 8 8 8h8v8c0 4.417969 3.582031 8 8 8 4.421875 0 8-3.582031 8-8v-8h8c4.421875 0 8-3.582031 8-8 0-4.417968-3.578125-8-8-8zm0 0" fill="#ffa733"/><path d="m360.09375 192.097656h-8v-8c0-4.417968-3.578125-8-8-8-4.417969 0-8 3.582032-8 8v8h-8c-4.417969 0-8 3.582032-8 8 0 4.417969 3.582031 8 8 8h8v8c0 4.417969 3.582031 8 8 8 4.421875 0 8-3.582031 8-8v-8h8c4.421875 0 8-3.582031 8-8 0-4.417968-3.578125-8-8-8zm0 0" fill="#ffa733"/><path d="m328.09375 88.097656v-8h8c4.421875 0 8-3.582031 8-8 0-4.417968-3.578125-8-8-8h-8v-8c0-4.417968-3.578125-8-8-8-4.417969 0-8 3.582032-8 8v8h-8c-4.417969 0-8 3.582032-8 8 0 4.417969 3.582031 8 8 8h8v8c0 4.417969 3.582031 8 8 8 4.421875 0 8-3.582031 8-8zm0 0" fill="#ffa733"/><path d="m64.09375 320.097656h-8v-8c0-4.417968-3.578125-8-8-8-4.417969 0-8 3.582032-8 8v8h-8c-4.417969 0-8 3.582032-8 8 0 4.417969 3.582031 8 8 8h8v8c0 4.417969 3.582031 8 8 8 4.421875 0 8-3.582031 8-8v-8h8c4.421875 0 8-3.582031 8-8 0-4.417968-3.578125-8-8-8zm0 0" fill="#ffa733"/><path d="m24.09375 184.097656c0 4.417969 3.582031 8 8 8 4.421875 0 8-3.582031 8-8v-8h8c4.421875 0 8-3.582031 8-8 0-4.417968-3.578125-8-8-8h-8v-8c0-4.417968-3.578125-8-8-8-4.417969 0-8 3.582032-8 8v8h-8c-4.417969 0-8 3.582032-8 8 0 4.417969 3.582031 8 8 8h8zm0 0" fill="#ffa733"/><path d="m232.09375 8.097656c0-4.417968-3.578125-7.9999998-8-7.9999998-4.417969 0-8 3.5820318-8 7.9999998v96h16zm0 0" fill="#ff5023"/><path d="m216.09375 104.097656h16v80h-16zm0 0" fill="#ff6243"/><path d="m216.09375 184.097656v256c0 4.417969 3.582031 8 8 8 4.421875 0 8-3.582031 8-8v-256zm0 0" fill="#ff7956"/><path d="m264.09375 59.410156 45.65625-45.65625c2.082031-2.007812 2.914062-4.984375 2.183594-7.78125-.734375-2.796875-2.917969-4.980468-5.714844-5.710937-2.796875-.734375-5.769531.101562-7.777344 2.179687l-48 48c-1.503906 1.5-2.34375 3.535156-2.347656 5.65625v48h16zm0 0" fill="#ff5023"/><path d="m248.09375 104.097656h16v80h-16zm0 0" fill="#ff6243"/><path d="m248.09375 184.097656v256c0 4.417969 3.582031 8 8 8 4.421875 0 8-3.582031 8-8v-256zm0 0" fill="#ff7956"/></svg>