<svg height="472pt" viewBox="-56 0 472 472.09831" width="472pt" xmlns="http://www.w3.org/2000/svg"><path d="m272.050781 104.097656h-160c-4.417969 0-8 3.582032-8 8v72h176v-72c0-4.417968-3.582031-8-8-8zm0 0" fill="#e6e7e8"/><path d="m144.050781 104.097656h-32c-4.417969 0-8 3.582032-8 8v72h32v-72c0-4.417968 3.582031-8 8-8zm0 0" fill="#bcbec0"/><path d="m248.050781 184.097656h-144v272c0 8.835938 7.160157 16 16 16h144c8.835938 0 16-7.164062 16-16v-272zm0 0" fill="#ffde55"/><path d="m136.050781 456.097656v-272h-32v272c0 8.835938 7.160157 16 16 16h32c-8.839843 0-16-7.164062-16-16zm0 0" fill="#ebbf00"/><path d="m224.050781 8.097656c0-4.417968-3.582031-7.9999998-8-7.9999998s-8 3.5820318-8 7.9999998v96h16zm0 0" fill="#ff5023"/><path d="m208.050781 104.097656h16v80h-16zm0 0" fill="#ff6243"/><path d="m208.050781 184.097656v256c0 4.417969 3.582031 8 8 8s8-3.582031 8-8v-256zm0 0" fill="#ff7956"/><path d="m256.050781 59.410156 45.65625-45.65625c2.078125-2.007812 2.910157-4.984375 2.179688-7.78125s-2.917969-4.980468-5.714844-5.710937c-2.796875-.734375-5.769531.101562-7.777344 2.179687l-48 48c-1.5 1.5-2.34375 3.535156-2.34375 5.65625v48h16zm0 0" fill="#ff5023"/><path d="m240.050781 104.097656h16v80h-16zm0 0" fill="#ff6243"/><path d="m240.050781 184.097656v256c0 4.417969 3.582031 8 8 8s8-3.582031 8-8v-256zm0 0" fill="#ff7956"/><path d="m160.050781 232.097656h-8v-8c0-4.417968-3.582031-8-8-8s-8 3.582032-8 8v8h-8c-4.417969 0-8 3.582032-8 8 0 4.417969 3.582031 8 8 8h8v8c0 4.417969 3.582031 8 8 8s8-3.582031 8-8v-8h8c4.417969 0 8-3.582031 8-8 0-4.417968-3.582031-8-8-8zm0 0" fill="#fcedbd"/><path d="m136.050781 448.097656c-2.121093-.03125-4.148437-.859375-5.679687-2.320312-.726563-.765625-1.296875-1.660156-1.683594-2.640625-.410156-.960938-.625-1.992188-.636719-3.039063.03125-2.117187.859375-4.144531 2.320313-5.679687.777344-.707031 1.667968-1.273438 2.636718-1.679688 1.949219-.800781 4.132813-.800781 6.082032 0 .96875.40625 1.859375.972657 2.640625 1.679688 1.460937 1.535156 2.289062 3.5625 2.320312 5.679687-.015625 1.046875-.230469 2.078125-.640625 3.039063-.386718.980469-.957031 1.875-1.679687 2.640625-1.535157 1.460937-3.5625 2.289062-5.679688 2.320312zm0 0" fill="#fcedbd"/><path d="m192.050781 272.097656c-1.046875-.011718-2.078125-.230468-3.042969-.640625-.96875-.40625-1.859374-.972656-2.636718-1.679687-1.460938-1.53125-2.289063-3.5625-2.320313-5.679688.011719-1.042968.226563-2.078125.636719-3.039062.730469-2.011719 2.3125-3.59375 4.320312-4.320313 2.980469-1.253906 6.421876-.589843 8.722657 1.679688.703125.777343 1.273437 1.671875 1.679687 2.640625.410156.960937.625 1.996094.640625 3.039062.019531 2.128906-.816406 4.175782-2.320312 5.679688-1.503907 1.507812-3.554688 2.34375-5.679688 2.320312zm0 0" fill="#fcedbd"/><path d="m184.050781 344.097656c-1.050781.027344-2.09375-.191406-3.042969-.640625-.96875-.40625-1.859374-.972656-2.636718-1.679687l-.960938-1.199219c-.304687-.445313-.546875-.929687-.722656-1.441406-.230469-.453125-.390625-.9375-.476562-1.4375-.09375-.53125-.148438-1.0625-.160157-1.601563.011719-1.042968.226563-2.078125.636719-3.039062.40625-.96875.976562-1.863282 1.683594-2.640625.761718-.722657 1.660156-1.292969 2.636718-1.679688 2.984376-1.214843 6.402344-.558593 8.722657 1.679688 1.460937 1.535156 2.289062 3.5625 2.320312 5.679687-.015625.539063-.070312 1.070313-.160156 1.601563-.089844.5-.25.984375-.480469 1.4375-.175781.511719-.417968.996093-.722656 1.441406l-.957031 1.199219-1.203125.960937c-.445313.304688-.929688.546875-1.4375.71875-.453125.230469-.9375.394531-1.441406.480469-.527344.09375-1.0625.148438-1.597657.160156zm0 0" fill="#fcedbd"/><path d="m144.050781 352.097656c-1.050781.027344-2.09375-.191406-3.042969-.640625-.96875-.40625-1.859374-.972656-2.636718-1.679687-1.476563-1.523438-2.304688-3.558594-2.320313-5.679688.011719-1.042968.226563-2.078125.636719-3.039062.386719-.980469.957031-1.875 1.683594-2.640625.777344-.707031 1.667968-1.273438 2.636718-1.679688 2.980469-1.253906 6.421876-.589843 8.722657 1.679688.722656.765625 1.292969 1.660156 1.679687 2.640625.410156.960937.625 1.996094.640625 3.039062-.015625.539063-.070312 1.070313-.160156 1.601563-.089844.5-.25.984375-.480469 1.4375-.175781.511719-.417968.996093-.722656 1.441406l-.957031 1.199219c-1.535157 1.460937-3.5625 2.289062-5.679688 2.320312zm0 0" fill="#fcedbd"/><path d="m184.050781 160.097656c-3.773437-.035156-6.992187-2.726562-7.703125-6.433594-.707031-3.703124 1.292969-7.390624 4.785156-8.816406 3.492188-1.425781 7.503907-.195312 9.589844 2.945313 2.089844 3.140625 1.671875 7.320312-.992187 9.984375-1.535157 1.460937-3.5625 2.289062-5.679688 2.320312zm0 0" fill="#fff"/><path d="m144.050781 144.097656c-2.128906.023438-4.175781-.8125-5.683593-2.320312-1.503907-1.503906-2.339844-3.550782-2.316407-5.679688.011719-1.042968.226563-2.078125.636719-3.039062.40625-.96875.976562-1.863282 1.683594-2.640625 1.921875-1.875 4.644531-2.683594 7.277344-2.160157.503906.085938.988281.25 1.441406.480469.492187.160157.953125.402344 1.359375.71875.480469.320313.878906.640625 1.28125.960938.703125.777343 1.273437 1.671875 1.679687 2.640625.449219.949218.667969 1.992187.640625 3.039062.019531 2.128906-.816406 4.175782-2.320312 5.679688-1.503907 1.507812-3.554688 2.34375-5.679688 2.320312zm0 0" fill="#fff"/><g fill="#ffb655"><path d="m40.050781 64.097656c-2.121093-.03125-4.148437-.859375-5.679687-2.320312-1.476563-1.523438-2.304688-3.558594-2.320313-5.679688 0-4.417968 3.582031-8 8-8s8 3.582032 8 8c0 4.417969-3.582031 8-8 8zm0 0"/><path d="m72.050781 128.097656c-3.773437-.035156-6.992187-2.726562-7.703125-6.433594-.707031-3.703124 1.292969-7.390624 4.785156-8.816406 3.492188-1.425781 7.503907-.195312 9.589844 2.945313 2.089844 3.140625 1.671875 7.320312-.992187 9.984375-1.535157 1.460937-3.5625 2.289062-5.679688 2.320312zm0 0"/><path d="m16.050781 280.097656c-1.046875-.011718-2.078125-.230468-3.042969-.640625-2.007812-.726562-3.589843-2.308593-4.320312-4.320312-.851562-1.933594-.851562-4.140625 0-6.078125.730469-2.011719 2.3125-3.59375 4.320312-4.320313 1.949219-.800781 4.132813-.800781 6.082032 0 .976562.386719 1.875.957031 2.640625 1.679688.703125.777343 1.273437 1.671875 1.679687 2.640625.851563 1.9375.851563 4.144531 0 6.078125-.40625.96875-.976562 1.863281-1.679687 2.640625-.765625.722656-1.664063 1.292968-2.640625 1.679687-.960938.410157-1.996094.628907-3.039063.640625zm0 0"/><path d="m72.050781 224.097656c-3.25.019532-6.191406-1.929687-7.4375-4.929687-1.246093-3.003907-.550781-6.460938 1.757813-8.75 1.921875-1.875 4.644531-2.683594 7.277344-2.160157.503906.085938.988281.25 1.441406.480469.507812.175781.992187.417969 1.4375.71875.421875.296875.820312.617188 1.203125.960938 3.09375 3.15625 3.09375 8.207031 0 11.359375l-1.203125.960937c-.445313.304688-.929688.546875-1.4375.71875-.453125.230469-.9375.394531-1.441406.480469-.527344.09375-1.0625.148438-1.597657.160156zm0 0"/><path d="m320.050781 288.097656c-2.121093-.03125-4.148437-.859375-5.679687-2.320312-.347656-.378906-.667969-.78125-.960938-1.199219-.304687-.445313-.546875-.929687-.722656-1.441406-.230469-.453125-.390625-.9375-.476562-1.4375-.089844-.53125-.144532-1.066407-.160157-1.601563.03125-2.117187.859375-4.144531 2.320313-5.679687.378906-.34375.777344-.664063 1.199218-.960938.445313-.300781.929688-.542969 1.4375-.71875.453126-.230469.941407-.394531 1.441407-.480469 1.054687-.238281 2.148437-.238281 3.199219 0 .503906.085938.988281.25 1.441406.480469.492187.160157.953125.402344 1.359375.71875.460937.277344.886719.597657 1.28125.960938 1.460937 1.535156 2.289062 3.5625 2.320312 5.679687-.019531.535156-.074219 1.070313-.160156 1.601563-.089844.5-.25.984375-.480469 1.4375-.175781.511719-.417968.996093-.722656 1.441406l-.957031 1.199219c-.402344.320312-.800781.640625-1.28125.960937-.40625.316407-.867188.5625-1.359375.71875-.453125.230469-.9375.394531-1.441406.480469-.527344.089844-1.0625.144531-1.597657.160156zm0 0"/><path d="m328.050781 144.097656c-2.121093-.03125-4.148437-.859375-5.679687-2.320312-.347656-.378906-.667969-.78125-.960938-1.199219-.304687-.445313-.546875-.929687-.722656-1.441406-.230469-.453125-.390625-.9375-.476562-1.4375-.089844-.53125-.144532-1.066407-.160157-1.601563.03125-2.117187.859375-4.144531 2.320313-5.679687.761718-.722657 1.660156-1.292969 2.636718-1.679688 2.984376-1.207031 6.398438-.550781 8.722657 1.679688 1.460937 1.535156 2.289062 3.5625 2.320312 5.679687-.019531.535156-.074219 1.070313-.160156 1.601563-.089844.5-.25.984375-.480469 1.4375-.175781.511719-.417968.996093-.722656 1.441406l-.957031 1.199219c-1.535157 1.460937-3.5625 2.289062-5.679688 2.320312zm0 0"/></g><path d="m184.050781 424.097656c-.539062-.015625-1.074219-.070312-1.601562-.160156-.5-.085938-.988281-.25-1.441407-.480469-.507812-.171875-.992187-.414062-1.4375-.71875l-1.199218-.960937-.960938-1.199219c-.304687-.445313-.546875-.929687-.722656-1.441406-.230469-.453125-.390625-.9375-.476562-1.4375-.089844-.53125-.144532-1.066407-.160157-1.601563.011719-1.042968.226563-2.078125.636719-3.039062.40625-.96875.976562-1.863282 1.683594-2.640625l1.199218-.960938c.445313-.300781.929688-.542969 1.4375-.71875.453126-.230469.941407-.394531 1.441407-.480469 2.355469-.503906 4.816406.09375 6.679687 1.617188 1.867188 1.523438 2.941406 3.8125 2.921875 6.222656-.019531.535156-.074219 1.070313-.160156 1.601563-.089844.5-.25.984375-.480469 1.4375-.175781.511719-.417968.996093-.722656 1.441406l-.957031 1.199219c-1.535157 1.460937-3.5625 2.289062-5.679688 2.320312zm0 0" fill="#fcedbd"/><path d="m136.050781 32.097656h-8v-8c0-4.417968-3.582031-8-8-8s-8 3.582032-8 8v8h-8c-4.417969 0-8 3.582032-8 8 0 4.417969 3.582031 8 8 8h8v8c0 4.417969 3.582031 8 8 8s8-3.582031 8-8v-8h8c4.417969 0 8-3.582031 8-8 0-4.417968-3.582031-8-8-8zm0 0" fill="#ffa733"/><path d="m352.050781 192.097656h-8v-8c0-4.417968-3.582031-8-8-8s-8 3.582032-8 8v8h-8c-4.417969 0-8 3.582032-8 8 0 4.417969 3.582031 8 8 8h8v8c0 4.417969 3.582031 8 8 8s8-3.582031 8-8v-8h8c4.417969 0 8-3.582031 8-8 0-4.417968-3.582031-8-8-8zm0 0" fill="#ffa733"/><path d="m320.050781 88.097656v-8h8c4.417969 0 8-3.582031 8-8 0-4.417968-3.582031-8-8-8h-8v-8c0-4.417968-3.582031-8-8-8s-8 3.582032-8 8v8h-8c-4.417969 0-8 3.582032-8 8 0 4.417969 3.582031 8 8 8h8v8c0 4.417969 3.582031 8 8 8s8-3.582031 8-8zm0 0" fill="#ffa733"/><path d="m40.050781 160.097656h-8v-8c0-4.417968-3.582031-8-8-8s-8 3.582032-8 8v8h-8c-4.417969 0-7.9999998 3.582032-7.9999998 8 0 4.417969 3.5820308 8 7.9999998 8h8v8c0 4.417969 3.582031 8 8 8s8-3.582031 8-8v-8h8c4.417969 0 8-3.582031 8-8 0-4.417968-3.582031-8-8-8zm0 0" fill="#ffa733"/></svg>