<svg height="456pt" viewBox="0 -28 456 456" width="456pt" xmlns="http://www.w3.org/2000/svg"><path d="m296 384h-96v-152c0-4.417969-3.582031-8-8-8s-8 3.582031-8 8v152h-96c-4.417969 0-8 3.582031-8 8s3.582031 8 8 8h208c4.417969 0 8-3.582031 8-8s-3.582031-8-8-8zm0 0" fill="#acabb1"/><path d="m377.230469 120c4.453125-10.082031 6.757812-20.980469 6.769531-32v-8c0-4.417969-3.582031-8-8-8h-368c-4.417969 0-8 3.582031-8 8v8c.0078125 11.019531 2.304688 21.917969 6.742188 32zm0 0" fill="#e6e7e8"/><path d="m24 80c0-4.417969 3.582031-8 8-8h-24c-4.417969 0-8 3.582031-8 8v8c.0078125 11.019531 2.304688 21.917969 6.742188 32h24c-4.4375-10.082031-6.734376-20.980469-6.742188-32zm0 0" fill="#bcbec0"/><path d="m377.199219 120h-370.457031c10.871093 24.882812 33.601562 42.5625 60.394531 46.96875 6.816406.816406 12.382812 5.835938 13.894531 12.535156 5.558594 30.410156 32.054688 52.5 62.96875 52.496094h96c30.914062.003906 57.410156-22.085938 62.96875-52.496094 1.253906-6.449218 6.4375-11.410156 12.933594-12.382812 27.191406-4.105469 50.359375-21.90625 61.328125-47.121094zm0 0" fill="#46f8ff"/><path d="m105.03125 179.503906c-1.511719-6.699218-7.078125-11.71875-13.894531-12.535156-26.792969-4.40625-49.523438-22.085938-60.394531-46.96875h-24c10.871093 24.882812 33.601562 42.5625 60.394531 46.96875 6.816406.816406 12.382812 5.835938 13.894531 12.535156 5.558594 30.410156 32.054688 52.5 62.96875 52.496094h24c-30.914062.003906-57.410156-22.085938-62.96875-52.496094zm0 0" fill="#00d7df"/><path d="m384 0c-39.765625 0-72 32.234375-72 72h64c4.417969 0 8 3.582031 8 8v8c.019531 19.59375-7.1875 38.507812-20.238281 53.121094 6.578125 1.894531 13.390625 2.863281 20.238281 2.878906 39.765625 0 72-32.234375 72-72s-32.234375-72-72-72zm0 0" fill="#f9ed32"/><path d="m396 1.082031c-20.90625-3.675781-42.367188 2.117188-58.589844 15.8125-16.21875 13.691407-25.527344 33.878907-25.410156 55.105469h24c.035156-35.105469 25.382812-65.070312 60-70.917969zm0 0" fill="#ffda44"/><path d="m387.761719 141.121094c13.050781-14.613282 20.257812-33.527344 20.238281-53.121094v-8c0-4.417969-3.582031-8-8-8h-24c4.417969 0 8 3.582031 8 8v8c.019531 19.59375-7.1875 38.507812-20.238281 53.121094 6.578125 1.894531 13.390625 2.863281 20.238281 2.878906 4.050781-.023438 8.089844-.386719 12.078125-1.085938-2.800781-.449218-5.578125-1.046874-8.316406-1.792968zm0 0" fill="#ffda44"/><g fill="#bdfdff"><path d="m248 184c-3.25.019531-6.1875-1.929688-7.433594-4.929688-1.246094-3.003906-.554687-6.460937 1.753906-8.75 1.933594-1.851562 4.648438-2.65625 7.28125-2.160156.5.089844.984376.25 1.4375.480469.511719.175781.996094.417969 1.441407.71875l1.199219.960937c3.09375 3.15625 3.09375 8.207032 0 11.359376l-1.199219.960937c-.445313.300781-.929688.542969-1.441407.71875-.453124.230469-.9375.394531-1.4375.480469-.53125.09375-1.066406.148437-1.601562.160156zm0 0"/><path d="m168 200c-2.117188-.027344-4.148438-.859375-5.679688-2.320312-1.476562-1.523438-2.308593-3.558594-2.320312-5.679688.027344-2.117188.855469-4.148438 2.320312-5.679688 1.890626-1.871093 4.589844-2.683593 7.199219-2.160156.53125.074219 1.050781.238282 1.527344.480469.511719.175781.996094.417969 1.441406.71875l1.199219.960937c1.457031 1.535157 2.285156 3.5625 2.3125 5.679688-.015625 2.121094-.847656 4.15625-2.320312 5.679688-.382813.34375-.78125.664062-1.199219.960937-.445313.300781-.929688.542969-1.441407.71875-.476562.246094-.996093.40625-1.527343.480469-.5.09375-1.003907.148437-1.511719.160156zm0 0"/><path d="m200 160c-3.769531-.035156-6.992188-2.726562-7.699219-6.433594-.707031-3.703125 1.292969-7.390625 4.785157-8.816406 3.488281-1.425781 7.5-.195312 9.589843 2.945312 2.085938 3.140626 1.671875 7.320313-.996093 9.984376-1.53125 1.460937-3.5625 2.292968-5.679688 2.320312zm0 0"/><path d="m120 160c-.535156-.015625-1.070312-.070312-1.601562-.160156-.5-.085938-.984376-.25-1.4375-.480469-.511719-.175781-1-.417969-1.449219-.71875-.414063-.296875-.8125-.617187-1.191407-.960937-3.09375-3.152344-3.09375-8.203126 0-11.359376l1.191407-.960937c.449219-.300781.9375-.542969 1.449219-.71875.453124-.230469.9375-.394531 1.4375-.480469 1.023437-.238281 2.089843-.238281 3.113281 0 .53125.074219 1.050781.238282 1.527343.480469.511719.175781.996094.417969 1.441407.71875l1.199219.960937c3.09375 3.15625 3.09375 8.207032 0 11.359376-.382813.34375-.78125.664062-1.199219.960937-.445313.300781-.929688.542969-1.441407.71875-.476562.246094-.996093.40625-1.527343.480469-.5.09375-1.003907.148437-1.511719.160156zm0 0"/></g></svg>