<svg height="472pt" viewBox="-100 0 472 472.09832" width="472pt" xmlns="http://www.w3.org/2000/svg"><path d="m216.058594 56.097656c-2.320313.003906-4.53125-1.003906-6.050782-2.757812-1.523437-1.75-2.207031-4.078125-1.878906-6.378906.449219-3.125 4.761719-31.03125 18.265625-44.519532 2.007813-2.078125 4.984375-2.914062 7.78125-2.179687 2.796875.730469 4.980469 2.914062 5.710938 5.710937.734375 2.796875-.101563 5.773438-2.179688 7.78125-8.289062 8.296875-12.722656 28.425782-13.730469 35.480469-.5625 3.9375-3.9375 6.863281-7.917968 6.863281zm0 0" fill="#898890"/><path d="m268.457031 152.097656h-200.796875l19.917969 312.480469c.253906 4.230469 3.761719 7.527344 8 7.519531h144.960937c4.238282.007813 7.746094-3.289062 8-7.519531l19.941407-312.480469zm0 0" fill="#ff6243"/><path d="m119.578125 464.578125-19.945313-312.480469h-32l19.945313 312.480469c.253906 4.230469 3.761719 7.527344 8 7.519531h32c-4.238281.007813-7.746094-3.289062-8-7.519531zm0 0" fill="#cd2a00"/><path d="m240.058594 72.097656c0 13.253906-10.746094 24-24 24s-24-10.746094-24-24 10.746094-24 24-24 24 10.746094 24 24zm0 0" fill="#cd2a00"/><path d="m216.058594 72.097656c.019531-8.539062 4.59375-16.421875 12-20.671875-3.632813-2.15625-7.777344-3.304687-12-3.328125-13.253906 0-24 10.746094-24 24s10.746094 24 24 24c4.222656-.019531 8.367187-1.171875 12-3.328125-7.40625-4.25-11.980469-12.132812-12-20.671875zm0 0" fill="#ab2300"/><path d="m44.058594 172.304688 22.398437-38.773438-2.398437-37.433594h24l44-76.207031c-42.050782-23.910156-95.515625-9.394531-119.703125 32.5-24.1875 41.890625-10.027344 95.453125 31.703125 119.914063zm0 0" fill="#f9ed32"/><path d="m43.851562 52.097656c12.851563-22.292968 34.84375-37.816406 60.152344-42.464844-42.117187-7.789062-83.722656 15.886719-98.53125 56.074219s1.484375 85.199219 38.585938 106.597657l10.265625-17.765626c-25.191407-28.328124-29.410157-69.601562-10.472657-102.441406zm0 0" fill="#ebbf00"/><path d="m216.058594 96.097656h-152l2.390625 37.433594 1.183593 18.566406h200.847657l3.578125-56zm0 0" fill="#e6e7e8"/><path d="m96.058594 96.097656h-32l2.390625 37.433594 1.183593 18.566406h32l-1.183593-18.566406zm0 0" fill="#bcbec0"/><g fill="#ffbcab"><path d="m184.058594 296.097656c-2.675782.027344-5.1875-1.296875-6.671875-3.527344-1.484375-2.226562-1.742188-5.050781-.6875-7.511718.726562-2.011719 2.308593-3.59375 4.320312-4.320313 1.457031-.644531 3.078125-.8125 4.640625-.480469.5.089844.984375.25 1.4375.480469.511719.175781.992188.417969 1.441406.71875.417969.296875.816407.617188 1.199219.960938 1.460938 1.535156 2.289063 3.5625 2.320313 5.679687-.011719 1.046875-.230469 2.078125-.640625 3.039063-.40625.96875-.976563 1.863281-1.679688 2.640625-1.507812 1.503906-3.550781 2.339844-5.679687 2.320312zm0 0"/><path d="m120.058594 256.097656c-2.128906.019532-4.175782-.816406-5.679688-2.320312-.730468-.777344-1.324218-1.667969-1.769531-2.640625-1.152344-3-.464844-6.402344 1.769531-8.71875 3.207032-2.960938 8.152344-2.960938 11.359375 0 .722657.765625 1.292969 1.660156 1.679688 2.640625 1.054687 2.460937.796875 5.285156-.6875 7.511718-1.488281 2.230469-3.996094 3.554688-6.671875 3.527344zm0 0"/><path d="m168.058594 208.097656c-1.046875-.011718-2.078125-.230468-3.039063-.640625-.96875-.40625-1.863281-.972656-2.640625-1.679687-.703125-.777344-1.273437-1.671875-1.679687-2.640625-.449219-.949219-.667969-1.988281-.640625-3.039063 0-4.417968 3.582031-8 8-8 4.417968 0 8 3.582032 8 8-.011719 1.046875-.230469 2.078125-.640625 3.039063-.726563 2.011719-2.308594 3.59375-4.320313 4.320312-.960937.410157-1.992187.628907-3.039062.640625zm0 0"/><path d="m160.058594 408.097656c-2.675782.027344-5.1875-1.296875-6.671875-3.527344-1.484375-2.226562-1.742188-5.050781-.6875-7.511718.726562-2.011719 2.308593-3.59375 4.320312-4.320313 1.425781-.636719 3.019531-.808593 4.550781-.480469.53125.074219 1.046876.238282 1.527344.480469.492188.160157.953125.40625 1.359375.71875.457031.277344.886719.597657 1.28125.960938.722657.765625 1.292969 1.660156 1.679688 2.640625.855469 1.9375.855469 4.144531 0 6.078125-.40625.96875-.976563 1.863281-1.679688 2.640625-1.507812 1.503906-3.550781 2.339844-5.679687 2.320312zm0 0"/><path d="m136.058594 352.097656c-2.128906.023438-4.175782-.8125-5.679688-2.320312-1.507812-1.503906-2.34375-3.550782-2.320312-5.679688-.027344-1.046875.191406-2.089844.640625-3.039062.40625-.96875.972656-1.863282 1.679687-2.640625.378906-.339844.777344-.664063 1.191406-.960938.449219-.300781.9375-.542969 1.449219-.71875.453125-.230469.9375-.394531 1.4375-.480469 1.023438-.238281 2.089844-.238281 3.113281 0 .53125.074219 1.046876.238282 1.527344.480469.492188.160157.953125.40625 1.359375.71875.457031.277344.886719.597657 1.28125.960938.707031.777343 1.273438 1.671875 1.679688 2.640625 1.054687 2.460937.796875 5.285156-.6875 7.511718-1.488281 2.230469-3.996094 3.554688-6.671875 3.527344zm0 0"/><path d="m208.058594 368.097656c-2.128906.023438-4.175782-.8125-5.679688-2.320312-1.507812-1.503906-2.34375-3.550782-2.320312-5.679688-.027344-1.046875.191406-2.089844.640625-3.039062.386719-.980469.957031-1.875 1.679687-2.640625.378906-.339844.777344-.664063 1.191406-.960938.449219-.300781.9375-.542969 1.449219-.71875.453125-.230469.9375-.394531 1.4375-.480469 2.636719-.523437 5.359375.285157 7.28125 2.160157 1.460938 1.535156 2.289063 3.5625 2.320313 5.679687.019531 2.128906-.816406 4.175782-2.320313 5.679688-1.503906 1.507812-3.550781 2.34375-5.679687 2.320312zm0 0"/><path d="m232.058594 208.097656h-8v-8c0-4.417968-3.582032-8-8-8-4.417969 0-8 3.582032-8 8v8h-8c-4.417969 0-8 3.582032-8 8 0 4.417969 3.582031 8 8 8h8v8c0 4.417969 3.582031 8 8 8 4.417968 0 8-3.582031 8-8v-8h8c4.417968 0 8-3.582031 8-8 0-4.417968-3.582032-8-8-8zm0 0"/></g></svg>