<svg height="472pt" viewBox="-76 0 472 472" width="472pt" xmlns="http://www.w3.org/2000/svg"><path d="m264 456h-96v-168c0-4.417969-3.582031-8-8-8s-8 3.582031-8 8v168h-96c-4.417969 0-8 3.582031-8 8s3.582031 8 8 8h208c4.417969 0 8-3.582031 8-8s-3.582031-8-8-8zm0 0" fill="#acabb1"/><path d="m282.640625 0h-245.28125c-19.785156 22.382812-32.195313 50.316406-35.542969 80h316.367188c-3.347656-29.683594-15.757813-57.617188-35.542969-80zm0 0" fill="#e6e7e8"/><path d="m37.359375 0c-19.785156 22.382812-32.195313 50.316406-35.542969 80h24c3.347656-29.683594 15.757813-57.617188 35.542969-80zm0 0" fill="#bcbec0"/><path d="m318.183594 80h-316.367188c-1.160156 7.949219-1.7656248 15.96875-1.816406 24 0 92.800781 67.199219 184 160 184s160-91.199219 160-184c-.050781-8.03125-.65625-16.050781-1.816406-24zm0 0" fill="#c61469"/><path d="m24 104c.050781-8.03125.65625-16.050781 1.816406-24h-24c-1.160156 7.949219-1.7656248 15.96875-1.816406 24 0 92.800781 67.199219 184 160 184 4.054688 0 8.046875-.230469 12-.574219-86.511719-7.464843-148-94.699219-148-183.425781zm0 0" fill="#971051"/><path d="m32 112c-4.417969 0-8-3.582031-8-8-.234375-27.082031 7.367188-53.652344 21.886719-76.511719 1.585937-2.429687 4.359375-3.808593 7.25-3.609375 2.890625.199219 5.449219 1.945313 6.6875 4.566406 1.234375 2.621094.957031 5.707032-.726563 8.066407-12.730468 20.191406-19.359375 43.625-19.097656 67.488281 0 4.417969-3.582031 8-8 8zm0 0" fill="#f1f2f2"/><g fill="#f7afd1"><path d="m32 136c-1.046875-.011719-2.078125-.230469-3.039062-.640625-3.046876-1.152344-5.035157-4.101563-4.960938-7.359375.027344-2.117188.855469-4.148438 2.320312-5.679688.765626-.722656 1.660157-1.292968 2.640626-1.679687 2.976562-1.253906 6.417968-.589844 8.71875 1.679687 2.308593 2.289063 3 5.746094 1.753906 8.746094-1.246094 3.003906-4.183594 4.953125-7.433594 4.933594zm0 0"/><path d="m128 216h-8v-8c0-4.417969-3.582031-8-8-8s-8 3.582031-8 8v8h-8c-4.417969 0-8 3.582031-8 8s3.582031 8 8 8h8v8c0 4.417969 3.582031 8 8 8s8-3.582031 8-8v-8h8c4.417969 0 8-3.582031 8-8s-3.582031-8-8-8zm0 0"/><path d="m144 208c-2.117188-.03125-4.148438-.859375-5.679688-2.320312-.34375-.378907-.664062-.78125-.960937-1.199219-.300781-.445313-.542969-.929688-.71875-1.441407-.230469-.453124-.394531-.9375-.480469-1.4375-.09375-.53125-.148437-1.066406-.160156-1.601562-.027344-1.050781.191406-2.089844.640625-3.039062.40625-.96875.972656-1.863282 1.679687-2.640626 3.207032-2.960937 8.152344-2.960937 11.359376 0 .707031.777344 1.273437 1.671876 1.679687 2.640626.410156.960937.628906 1.992187.640625 3.039062-.011719.535156-.070312 1.070312-.167969 1.601562-.082031.5-.238281.988282-.472656 1.4375-.179687.507813-.417969.992188-.71875 1.441407l-.960937 1.199219c-1.535157 1.460937-3.5625 2.289062-5.679688 2.320312zm0 0"/><path d="m272 160c-.535156-.011719-1.070312-.066406-1.601562-.160156-.5-.085938-.984376-.25-1.4375-.480469-.511719-.175781-1-.417969-1.449219-.71875l-1.191407-.960937c-1.464843-1.53125-2.292968-3.5625-2.320312-5.679688-.027344-1.050781.191406-2.089844.640625-3.039062.386719-.980469.957031-1.875 1.679687-2.640626.378907-.34375.777344-.664062 1.191407-.960937.449219-.300781.9375-.542969 1.449219-.71875.453124-.230469.9375-.394531 1.4375-.480469 1.023437-.238281 2.089843-.238281 3.113281 0 .53125.074219 1.050781.238282 1.527343.480469.511719.175781.996094.417969 1.441407.71875.417969.296875.816406.617187 1.199219.960937.722656.765626 1.292968 1.660157 1.679687 2.640626.410156.960937.628906 1.992187.640625 3.039062-.03125 2.117188-.859375 4.144531-2.320312 5.679688l-1.199219.960937c-.445313.300781-.929688.542969-1.441407.71875-.476562.242187-.996093.40625-1.527343.480469-.5.09375-1.003907.148437-1.511719.160156zm0 0"/><path d="m248 128c-2.117188-.03125-4.148438-.859375-5.679688-2.320312-.707031-.777344-1.273437-1.671876-1.679687-2.640626-.851563-1.9375-.851563-4.140624 0-6.078124.386719-.980469.957031-1.875 1.679687-2.640626 3.207032-2.960937 8.152344-2.960937 11.359376 0 .722656.765626 1.292968 1.660157 1.679687 2.640626.855469 1.9375.855469 4.140624 0 6.078124-.40625.96875-.972656 1.863282-1.679687 2.640626-1.535157 1.460937-3.5625 2.289062-5.679688 2.320312zm0 0"/></g></svg>